<svg width="41" height="41" viewBox="0 0 41 41" fill="none" xmlns="http://www.w3.org/2000/svg">
<g clip-path="url(#clip0_1_906)">
<path d="M35.1628 39.3816H32.6573V0.451904H7.53362V39.3816H5.02814V40.6372H7.53362V40.643H32.6574V40.6372H35.1629L35.1628 39.3816ZM31.3901 39.3759H8.80073V1.7191H31.39V39.3759H31.3901Z" fill="#2B30A7"/>
<path d="M28.8897 20.5535V4.21899H11.2994V20.5535H28.8897ZM27.6224 19.2863H12.5667V5.48619H27.6224V19.2863Z" fill="#2B30A7"/>
<path d="M11.3063 36.8707H28.885V26.198H11.3063V36.8707ZM12.5619 27.4536H27.6292V35.6151H12.5619V27.4536Z" fill="#2B30A7"/>
<path d="M20.8568 10.0086L19.9608 9.11255L13.3689 15.7044L14.2649 16.6004L20.8568 10.0086Z" fill="#2B30A7"/>
<path d="M26.1936 8.43851L25.2976 7.54248L20.903 11.9371L21.7991 12.8331L26.1936 8.43851Z" fill="#2B30A7"/>
<path d="M18.3911 14.4489L19.2872 15.345L20.5427 14.0894L19.6467 13.1934L18.3911 14.4489Z" fill="#2B30A7"/>
<path d="M14.4453 22.4309H11.3063V23.6865H14.4453V22.4309Z" fill="#2B30A7"/>
</g>
<defs>
<clipPath id="clip0_1_906">
<rect width="40.1911" height="40.1911" fill="white" transform="translate(0 0.451904)"/>
</clipPath>
</defs>
</svg>
