<svg width="40" height="40" viewBox="0 0 40 40" fill="none" xmlns="http://www.w3.org/2000/svg">
<g clip-path="url(#clip0_1_949)">
<path d="M2.4671 0.372925H12.1721V39.1927H2.4671C2.03812 39.1927 1.6267 39.0223 1.32336 38.719C1.02002 38.4156 0.849609 38.0042 0.849609 37.5752V1.99042C0.849609 1.56143 1.02002 1.15001 1.32336 0.846676C1.6267 0.543337 2.03812 0.372925 2.4671 0.372925Z" fill="#2B30A7"/>
<path d="M15.4063 0.372803H25.1113C25.5403 0.372803 25.9517 0.543215 26.255 0.846554C26.5583 1.14989 26.7288 1.56131 26.7288 1.9903V37.5751C26.7288 38.0041 26.5583 38.4155 26.255 38.7189C25.9517 39.0222 25.5403 39.1926 25.1113 39.1926H15.4063V0.372803Z" fill="#2B30A7"/>
</g>
<defs>
<clipPath id="clip0_1_949">
<rect width="38.8198" height="38.8198" fill="white" transform="translate(0.84967 0.372803)"/>
</clipPath>
</defs>
</svg>
