<svg width="42" height="41" viewBox="0 0 42 41" fill="none" xmlns="http://www.w3.org/2000/svg">
<g clip-path="url(#clip0_1_931)">
<path d="M39.2094 0.586182H34.6594C34.2408 0.586182 33.9011 0.92591 33.9011 1.3445H11.1514C11.1514 0.92591 10.8117 0.586182 10.3931 0.586182H6.60148H2.80987C2.39127 0.586182 2.05154 0.92591 2.05154 1.3445V38.1277C2.05154 39.589 3.24211 40.7773 4.70567 40.7773C5.44883 40.7773 6.11919 40.4687 6.60148 39.9765C7.08377 40.4687 7.75413 40.7773 8.49729 40.7773C9.96085 40.7773 11.1514 39.589 11.1514 38.1277V35.469H33.9011V37.744C33.9011 39.4169 35.2615 40.7773 36.9344 40.7773C38.6073 40.7773 39.9677 39.4169 39.9677 37.744V1.3445C39.9677 0.92591 39.628 0.586182 39.2094 0.586182ZM11.1514 5.89444H33.9011V30.1608H11.1514V5.89444ZM33.9011 2.86115V4.3778H11.1514V2.86115H33.9011ZM4.70567 39.2606C4.07854 39.2606 3.56819 38.7526 3.56819 38.1277V2.10283H5.84316V38.1277C5.84316 38.7526 5.33281 39.2606 4.70567 39.2606ZM9.63477 38.1277C9.63477 38.7526 9.12442 39.2606 8.49729 39.2606C7.87015 39.2606 7.3598 38.7526 7.3598 38.1277V2.10283H9.63477V2.86115V5.13612V30.9191V34.7107V38.1277ZM11.1514 33.9524V31.6774H33.9011V33.9524H11.1514ZM38.451 37.744C38.451 38.5804 37.7708 39.2606 36.9344 39.2606C36.098 39.2606 35.4177 38.5804 35.4177 37.744V34.7107V30.9191V5.13612V2.86115V2.10283H38.451V37.744Z" fill="#2B30A7"/>
<path d="M13.4265 11.9607C13.6206 11.9607 13.8147 11.8864 13.9626 11.7386L16.2376 9.46359C16.5341 9.16709 16.5341 8.68783 16.2376 8.39132C15.9411 8.09482 15.4618 8.09482 15.1653 8.39132L12.8903 10.6663C12.5938 10.9628 12.5938 11.4421 12.8903 11.7386C13.0382 11.8864 13.2324 11.9607 13.4265 11.9607Z" fill="#2B30A7"/>
<path d="M18.9569 8.39132L12.8903 14.4579C12.5938 14.7544 12.5938 15.2337 12.8903 15.5302C13.0382 15.678 13.2324 15.7524 13.4265 15.7524C13.6206 15.7524 13.8147 15.678 13.9626 15.5302L20.0292 9.46359C20.3257 9.16709 20.3257 8.68783 20.0292 8.39132C19.7327 8.09482 19.2534 8.09482 18.9569 8.39132Z" fill="#2B30A7"/>
</g>
<defs>
<clipPath id="clip0_1_931">
<rect width="40.1911" height="40.1911" fill="white" transform="translate(0.914062 0.586182)"/>
</clipPath>
</defs>
</svg>
