<svg width="41" height="41" viewBox="0 0 41 41" fill="none" xmlns="http://www.w3.org/2000/svg">
<g clip-path="url(#clip0_1_899)">
<path d="M39.3942 32.1848H35.1109V17.2933H37.1125V27.221C37.1125 27.6632 37.471 28.0216 37.9131 28.0216C38.3552 28.0216 38.7137 27.6632 38.7137 27.221V17.2933H39.3942C39.8363 17.2933 40.1948 16.9349 40.1948 16.4927C40.1948 16.0505 39.8363 15.6921 39.3942 15.6921H31.5481V4.08307C31.5481 3.64089 31.1896 3.28247 30.7475 3.28247H9.45109C9.00899 3.28247 8.65049 3.64089 8.65049 4.08307V15.692H0.80435C0.362248 15.692 0.00374603 16.0505 0.00374603 16.4927C0.00374603 16.9349 0.362248 17.2933 0.80435 17.2933H1.48485V32.1848H0.80435C0.362248 32.1848 0.00374603 32.5432 0.00374603 32.9854V36.1079C0.00374603 36.55 0.362248 36.9085 0.80435 36.9085H39.3942C39.8364 36.9085 40.1949 36.55 40.1949 36.1079V32.9854C40.1949 32.5432 39.8364 32.1848 39.3942 32.1848ZM31.5482 17.2933H33.5097V32.1848H31.5482V17.2933ZM10.2517 4.88368H29.9469V15.692H28.0205V7.7659C28.0205 7.32372 27.662 6.9653 27.2199 6.9653H12.9787C12.5366 6.9653 12.1781 7.32372 12.1781 7.7659V15.692H10.2517V4.88368ZM29.9469 17.2933V32.1848H28.0205V17.2933H29.9469ZM20.8599 15.692V8.5665H26.4192V15.692H20.8599ZM26.4192 17.2933V32.1848H24.4626V17.2933H26.4192ZM22.8614 17.2933V32.1848H20.8599V17.2933H22.8614ZM13.7794 15.692V8.5665H19.2587V15.692H13.7794ZM19.2587 17.2933V32.1848H17.3372V17.2933H19.2587ZM15.7359 17.2933V32.1848H13.7794V17.2933H15.7359ZM10.2517 17.2933H12.1781V32.1848H10.2517V17.2933ZM6.60882 17.2933H8.65041V32.1848H6.60882V17.2933ZM3.08614 17.2933H5.00762V32.1848H3.08614V17.2933ZM38.5936 35.3073H1.60495V33.7861H38.5936V35.3073H38.5936Z" fill="#2B30A7"/>
<path d="M37.9158 28.9827C37.4737 28.9827 37.1152 29.3411 37.1152 29.7833V30.3437C37.1152 30.7859 37.4737 31.1443 37.9158 31.1443C38.3579 31.1443 38.7164 30.7859 38.7164 30.3437V29.7833C38.7164 29.3411 38.3579 28.9827 37.9158 28.9827Z" fill="#2B30A7"/>
</g>
<defs>
<clipPath id="clip0_1_899">
<rect width="40.1911" height="40.1911" fill="white" transform="translate(0.00390625)"/>
</clipPath>
</defs>
</svg>
