<svg width="52" height="33" viewBox="0 0 52 33" fill="none" xmlns="http://www.w3.org/2000/svg">
<path d="M51.3215 4.93558H25.1306L19.1721 0.147399C18.9276 -0.049133 18.5793 -0.049133 18.3347 0.147399L13.5526 3.99024V2.70733C13.5526 2.33822 13.2532 2.03885 12.8841 2.03885H7.64773C7.27862 2.03885 6.97926 2.33822 6.97926 2.70733V9.27254L1.10135 13.996C0.88031 14.1737 0.795302 14.4715 0.889557 14.739C0.983812 15.0065 1.23638 15.1855 1.52004 15.1855H4.63959V32.0088C4.63959 32.3779 4.93885 32.6773 5.30807 32.6773H51.3215C51.6907 32.6773 51.99 32.3779 51.99 32.0088V5.60405C51.99 5.23483 51.6907 4.93558 51.3215 4.93558ZM50.653 6.27253V13.8486H36.2221L26.7943 6.27253H50.653ZM8.31621 3.3758H12.2157V5.06459L8.31621 8.19819V3.3758ZM18.7535 1.52602L34.0878 13.8486H32.6653L19.1725 3.0058C18.9279 2.80927 18.5797 2.80927 18.335 3.0058L4.84225 13.8486H3.41907L18.7535 1.52602ZM26.6993 31.3404H22.6884V21.0904H26.6993V31.3404ZM47.7563 22.7059H35.0552V21.0904H47.7563V22.7059ZM35.0552 24.0428H47.7563V25.5469H35.0552V24.0428ZM35.0552 26.8839H47.7563V28.3879H35.0552V26.8839ZM35.0552 29.7249H47.7563V31.3404H35.0552V29.7249ZM50.653 31.3404H49.0932V20.4219C49.0932 20.0528 48.7939 19.7535 48.4247 19.7535H34.3868C34.0177 19.7535 33.7183 20.0528 33.7183 20.4219V31.3404H28.0362V20.4219C28.0362 20.0528 27.737 19.7535 27.3678 19.7535H22.02C21.6507 19.7535 21.3515 20.0528 21.3515 20.4219V31.3404H5.97654V14.6521L18.7538 4.38442L32.0113 15.0381C32.13 15.1335 32.2778 15.1855 32.43 15.1855H50.653V31.3404Z" fill="#2B30A7"/>
<path d="M16.4491 18.1938H9.87572C9.50661 18.1938 9.20724 18.4932 9.20724 18.8623V25.4357C9.20724 25.8048 9.50661 26.1041 9.87572 26.1041H16.4491C16.8182 26.1041 17.1175 25.8048 17.1175 25.4357V18.8623C17.1175 18.4931 16.8183 18.1938 16.4491 18.1938ZM10.5442 19.5308H12.9953V24.7672H10.5442V19.5308ZM15.7806 24.7672H14.3322V19.5308H15.7806V24.7672Z" fill="#2B30A7"/>
</svg>
