<svg width="41" height="42" viewBox="0 0 41 42" fill="none" xmlns="http://www.w3.org/2000/svg">
<path d="M31.8212 4.19482H15.0749C13.2278 4.19482 11.7257 5.69697 11.7257 7.54408V17.5919H8.37642C6.5293 17.5919 5.02716 19.094 5.02716 20.9411V36.0128C5.02716 36.4569 5.20359 36.8829 5.51765 37.1969C5.8317 37.511 6.25765 37.6874 6.70179 37.6874H33.4959C33.94 37.6874 34.3659 37.511 34.68 37.1969C34.9941 36.8829 35.1705 36.4569 35.1705 36.0128V7.54408C35.1705 5.69697 33.6683 4.19482 31.8212 4.19482ZM8.37642 20.9411H18.4242V34.3382H8.37642V20.9411ZM31.8212 34.3382H21.7735V20.9411C21.7735 19.094 20.2713 17.5919 18.4242 17.5919H15.0749V7.54408H31.8212V34.3382Z" fill="#2B30A7"/>
<path d="M18.4249 10.8933H21.7742V14.2426H18.4249V10.8933ZM25.1234 10.8933H28.4727V14.2426H25.1234V10.8933ZM25.1234 17.6437H28.4727V20.9411H25.1234V17.6437ZM25.1234 24.2903H28.4727V27.6396H25.1234V24.2903ZM11.7264 24.292H15.0756V27.6413H11.7264V24.292Z" fill="#2B30A7"/>
</svg>
