<svg width="41" height="41" viewBox="0 0 41 41" fill="none" xmlns="http://www.w3.org/2000/svg">
<g clip-path="url(#clip0_1_919)">
<path d="M40.0637 36.9649H38.008V18.7991C38.008 18.6183 37.9302 18.4461 37.7945 18.3267L21.0132 3.55924C20.7756 3.35004 20.4194 3.35004 20.1818 3.55924L3.40058 18.3268C3.2647 18.4463 3.18699 18.6183 3.18699 18.7992V36.9649H1.13127C0.783762 36.9649 0.501953 37.2466 0.501953 37.5942C0.501953 37.9417 0.783683 38.2235 1.13127 38.2235H40.0638C40.4113 38.2235 40.6931 37.9418 40.6931 37.5942C40.6931 37.2466 40.4113 36.9649 40.0637 36.9649ZM34.0644 36.9649H21.2268V31.5532C21.2268 31.5531 21.2268 31.553 21.2268 31.5528V29.865C21.2268 28.9574 21.5803 28.1039 22.2221 27.4621L23.2499 26.4343C23.674 26.6847 24.1641 26.8083 24.6724 26.8083C25.5679 26.8083 26.5194 26.4259 27.2628 25.6825C29.3828 23.5625 29.9253 19.7177 29.9474 19.5551C29.9737 19.3605 29.9076 19.1645 29.7687 19.0256C29.6298 18.8867 29.4337 18.8207 29.2391 18.8469C29.0765 18.869 25.2317 19.4116 23.1118 21.5315C21.9463 22.697 21.6689 24.3728 22.3601 25.5442L21.3322 26.5721C20.4526 27.4516 19.9682 28.6211 19.9682 29.865V30.0337L18.7222 28.7877C19.1064 28.1906 19.2731 27.4602 19.1943 26.6738C19.0968 25.7023 18.6321 24.7564 17.886 24.0102C15.3521 21.4763 10.7992 20.8837 10.6066 20.8597C10.4137 20.8355 10.2211 20.9019 10.0839 21.0392C9.94671 21.1765 9.88045 21.3693 9.90447 21.5619C9.92849 21.7544 10.5211 26.3073 13.055 28.8413C13.8012 29.5875 14.7471 30.0521 15.7186 30.1495C15.8466 30.1624 15.9729 30.1687 16.0976 30.1687C16.7392 30.1687 17.3328 29.9997 17.8329 29.6779L19.9683 31.8137V36.965H7.13058V20.0771L20.5975 8.22612L34.0644 20.0772V36.9649ZM26.4125 22.3818C26.1667 22.136 25.7683 22.136 25.5226 22.3818L23.3068 24.5976C23.1034 23.9333 23.3532 23.07 24.0018 22.4214C25.2601 21.1632 27.3509 20.5339 28.5301 20.2641C28.2603 21.4433 27.631 23.5342 26.3729 24.7924C25.7241 25.441 24.861 25.6908 24.1967 25.4875L26.4125 23.2717C26.6582 23.0259 26.6582 22.6275 26.4125 22.3818ZM14.1113 25.9566L16.9042 28.7496C16.5928 28.8843 16.2317 28.9363 15.8441 28.8973C15.1607 28.8288 14.4862 28.4928 13.9449 27.9513C12.3265 26.3329 11.5885 23.6298 11.3042 22.2587C12.674 22.5418 15.3738 23.2778 16.996 24.9001C17.5375 25.4416 17.8734 26.116 17.942 26.7994C17.9809 27.187 17.9288 27.5481 17.7943 27.8595L15.0013 25.0666C14.7555 24.8208 14.3571 24.8208 14.1114 25.0666C13.8656 25.3124 13.8656 25.711 14.1113 25.9566ZM36.7495 36.9649H35.3231V19.7926C35.3231 19.6118 35.2453 19.4396 35.1096 19.3202L21.0132 6.91551C20.7755 6.70632 20.4195 6.70632 20.1818 6.91551L6.08561 19.3202C5.94989 19.4397 5.8721 19.6117 5.8721 19.7926V36.9649H4.44555V19.0837L20.5975 4.87001L36.7495 19.0838V36.9649Z" fill="#2B30A7"/>
</g>
<defs>
<clipPath id="clip0_1_919">
<rect width="40.1911" height="40.1911" fill="white" transform="translate(0.5 0.716797)"/>
</clipPath>
</defs>
</svg>
