<svg width="26" height="26" viewBox="0 0 26 26" fill="none" xmlns="http://www.w3.org/2000/svg">
<path d="M23.2743 12.0521L13.5005 6.6354C13.3401 6.54646 13.1597 6.4997 12.9763 6.49951C12.7929 6.49932 12.6124 6.54571 12.4518 6.63431L2.72566 12.0076C2.55643 12.1011 2.4153 12.2382 2.31692 12.4046C2.21853 12.571 2.16647 12.7607 2.16614 12.9541C2.16581 13.1474 2.21722 13.3373 2.31503 13.504C2.41285 13.6708 2.5535 13.8083 2.72241 13.9024L12.4962 19.3624C12.6571 19.4528 12.8386 19.5004 13.0231 19.5006C13.2077 19.5008 13.3892 19.4536 13.5503 19.3635L23.2765 13.9468C23.4454 13.8529 23.5862 13.7154 23.6841 13.5487C23.782 13.382 23.8335 13.1921 23.8333 12.9988C23.8331 12.8055 23.7811 12.6157 23.6828 12.4493C23.5845 12.2828 23.4435 12.1456 23.2743 12.0521ZM13.0249 17.1762L5.48057 12.9621L12.974 8.82156L20.5183 13.0021L13.0249 17.1762Z" fill="black"/>
<path d="M13 23.8334C13.1839 23.8335 13.3648 23.7865 13.5254 23.6969L23.2754 18.2802L22.2235 16.3866L13 21.5107L3.77543 16.3866L2.72351 18.2802L12.4735 23.6969C12.6345 23.7864 12.8158 23.8334 13 23.8334ZM21.6667 2.16675H19.5V4.33341H17.3333V6.50008H19.5V8.66675H21.6667V6.50008H23.8333V4.33341H21.6667V2.16675Z" fill="black"/>
</svg>
