<svg width="26" height="26" viewBox="0 0 26 26" fill="none" xmlns="http://www.w3.org/2000/svg">
<path d="M19.1826 13.3175C19.0821 13.2168 18.9627 13.1369 18.8313 13.0824C18.6998 13.0279 18.5589 12.9998 18.4167 12.9998C18.2744 12.9998 18.1335 13.0279 18.0021 13.0824C17.8707 13.1369 17.7513 13.2168 17.6508 13.3175L15.9239 15.0443C15.1233 14.806 13.6294 14.2643 12.6826 13.3175C11.7358 12.3706 11.1941 10.8767 10.9558 10.0761L12.6826 8.34931C12.7833 8.24879 12.8632 8.1294 12.9177 7.99797C12.9722 7.86655 13.0002 7.72567 13.0002 7.58339C13.0002 7.44111 12.9722 7.30023 12.9177 7.1688C12.8632 7.03738 12.7833 6.91799 12.6826 6.81747L8.34926 2.48414C8.24873 2.38345 8.12935 2.30356 7.99792 2.24906C7.8665 2.19456 7.72562 2.1665 7.58334 2.1665C7.44106 2.1665 7.30018 2.19456 7.16875 2.24906C7.03733 2.30356 6.91794 2.38345 6.81742 2.48414L3.87942 5.42214C3.46776 5.83381 3.23592 6.39931 3.24459 6.97672C3.26951 8.51939 3.67792 13.8776 7.90076 18.1004C12.1236 22.3232 17.4818 22.7306 19.0255 22.7566H19.0558C19.6278 22.7566 20.1684 22.5312 20.5779 22.1217L23.5159 19.1837C23.6166 19.0832 23.6965 18.9638 23.751 18.8324C23.8055 18.701 23.8336 18.5601 23.8336 18.4178C23.8336 18.2755 23.8055 18.1346 23.751 18.0032C23.6965 17.8718 23.6166 17.7524 23.5159 17.6519L19.1826 13.3175ZM19.045 20.5888C17.693 20.5661 13.0672 20.2031 9.43259 16.5675C5.78609 12.921 5.43292 8.27889 5.41126 6.95397L7.58334 4.78189L10.3848 7.58339L8.98409 8.98414C8.85676 9.11138 8.76313 9.26834 8.71169 9.44084C8.66024 9.61334 8.65259 9.79594 8.68942 9.97214C8.71542 10.0967 9.35134 13.051 11.1497 14.8493C12.948 16.6476 15.9023 17.2836 16.0268 17.3096C16.2029 17.3474 16.3857 17.3404 16.5584 17.2891C16.731 17.2378 16.888 17.1439 17.0148 17.016L18.4167 15.6152L21.2182 18.4167L19.045 20.5888Z" fill="#999DB2"/>
</svg>
