<svg width="26" height="26" viewBox="0 0 26 26" fill="none" xmlns="http://www.w3.org/2000/svg">
<path d="M13.0013 2.16675C10.8587 2.16675 8.76416 2.80211 6.98263 3.99249C5.2011 5.18288 3.81256 6.87481 2.99261 8.85434C2.17266 10.8339 1.95813 13.0121 2.37613 15.1136C2.79414 17.215 3.82591 19.1453 5.34098 20.6604C6.85605 22.1755 8.78637 23.2073 10.8878 23.6253C12.9893 24.0433 15.1675 23.8287 17.147 23.0088C19.1266 22.1888 20.8185 20.8003 22.0089 19.0188C23.1993 17.2372 23.8346 15.1427 23.8346 13.0001C23.8346 11.5774 23.5544 10.1687 23.01 8.85434C22.4656 7.53998 21.6676 6.34573 20.6616 5.33976C19.6557 4.33379 18.4614 3.53581 17.147 2.99139C15.8327 2.44696 14.424 2.16675 13.0013 2.16675ZM13.0013 16.2501C12.3585 16.2501 11.7302 16.0595 11.1957 15.7024C10.6612 15.3452 10.2447 14.8377 9.9987 14.2438C9.75271 13.6499 9.68835 12.9965 9.81375 12.366C9.93916 11.7356 10.2487 11.1565 10.7032 10.702C11.1577 10.2475 11.7368 9.93793 12.3673 9.81253C12.9977 9.68713 13.6512 9.75149 14.245 9.99747C14.8389 10.2435 15.3465 10.66 15.7036 11.1945C16.0607 11.7289 16.2513 12.3573 16.2513 13.0001C16.2513 13.862 15.9089 14.6887 15.2994 15.2982C14.6899 15.9077 13.8633 16.2501 13.0013 16.2501ZM15.9805 8.48258C15.4048 8.10046 14.7612 7.83202 14.0846 7.69175V4.44175C15.6256 4.63463 17.0856 5.24108 18.3096 6.19675L15.9805 8.48258ZM11.918 7.69175C11.2414 7.83202 10.5979 8.10046 10.0221 8.48258L7.69297 6.16425C8.91706 5.20858 10.377 4.60213 11.918 4.40925V7.69175ZM8.48381 10.0209C8.10169 10.5966 7.83325 11.2401 7.69297 11.9167H4.44297C4.62635 10.379 5.22145 8.91935 6.16547 7.69175L8.48381 10.0209ZM7.69297 14.0834C7.83325 14.76 8.10169 15.4035 8.48381 15.9792L6.16547 18.3084C5.2098 17.0843 4.60335 15.6244 4.41047 14.0834H7.69297ZM10.0221 17.5176C10.5979 17.8997 11.2414 18.1681 11.918 18.3084V21.5584C10.377 21.3655 8.91706 20.7591 7.69297 19.8034L10.0221 17.5176ZM14.0846 18.3084C14.7612 18.1681 15.4048 17.8997 15.9805 17.5176L18.3096 19.8359C17.0856 20.7916 15.6256 21.398 14.0846 21.5909V18.3084ZM17.5188 15.9792C17.9009 15.4035 18.1694 14.76 18.3096 14.0834H21.5596C21.3668 15.6244 20.7603 17.0843 19.8046 18.3084L17.5188 15.9792ZM18.3096 11.9167C18.1694 11.2401 17.9009 10.5966 17.5188 10.0209L19.8371 7.69175C20.7928 8.91583 21.3993 10.3758 21.5921 11.9167H18.3096Z" fill="#999DB2"/>
</svg>
