<svg width="26" height="26" viewBox="0 0 26 26" fill="none" xmlns="http://www.w3.org/2000/svg">
<path d="M21.668 6.50008H18.418V4.33341C18.418 3.1385 17.4462 2.16675 16.2513 2.16675H9.7513C8.55639 2.16675 7.58463 3.1385 7.58463 4.33341V6.50008H4.33464C3.13972 6.50008 2.16797 7.47183 2.16797 8.66675V11.9167H23.8346V8.66675C23.8346 7.47183 22.8629 6.50008 21.668 6.50008ZM9.7513 4.33341H16.2513V6.50008H9.7513V4.33341ZM15.168 15.1667H10.8346V13.0001H2.16797V20.5834C2.16797 21.7783 3.13972 22.7501 4.33464 22.7501H21.668C22.8629 22.7501 23.8346 21.7783 23.8346 20.5834V13.0001H15.168V15.1667Z" fill="#999DB2"/>
</svg>
