<svg width="82" height="82" viewBox="0 0 82 82" fill="none" xmlns="http://www.w3.org/2000/svg">
<path d="M27.3333 41C35.1233 41 41 35.1233 41 27.3333C41 19.5433 35.1233 13.6667 27.3333 13.6667C19.5433 13.6667 13.6667 19.5433 13.6667 27.3333C13.6667 35.1233 19.5433 41 27.3333 41ZM27.3333 20.5C31.3582 20.5 34.1667 23.3085 34.1667 27.3333C34.1667 31.3582 31.3582 34.1667 27.3333 34.1667C23.3085 34.1667 20.5 31.3582 20.5 27.3333C20.5 23.3085 23.3085 20.5 27.3333 20.5ZM30.75 44.4167H23.9167C14.4969 44.4167 6.83334 52.0803 6.83334 61.5V64.9167H13.6667V61.5C13.6667 55.8488 18.2655 51.25 23.9167 51.25H30.75C36.4012 51.25 41 55.8488 41 61.5V64.9167H47.8333V61.5C47.8333 52.0803 40.1698 44.4167 30.75 44.4167ZM62.7437 9.00635L57.9125 13.8375C62.4259 18.3578 64.9167 24.3643 64.9167 30.75C64.9167 37.1358 62.4259 43.1423 57.9125 47.6625L62.7437 52.4937C68.552 46.6819 71.75 38.9603 71.75 30.75C71.75 22.5398 68.552 14.8181 62.7437 9.00635Z" fill="white"/>
<path d="M53.0779 18.6685L48.2468 23.5065C50.184 25.4369 51.25 28.0096 51.25 30.7498C51.25 33.49 50.184 36.0627 48.2468 37.9931L53.0779 42.8311C56.3033 39.6058 58.0833 35.3179 58.0833 30.7498C58.0833 26.1817 56.3033 21.8938 53.0779 18.6685Z" fill="white"/>
</svg>
