<svg width="16" height="17" viewBox="0 0 16 17" fill="none" xmlns="http://www.w3.org/2000/svg">
<path d="M12.9839 7.91933H14.2515C14.2515 4.66797 11.7968 2.21582 8.54102 2.21582V3.48341C11.1155 3.48341 12.9839 5.34866 12.9839 7.91933Z" fill="white"/>
<path d="M8.54906 6.01881C9.88193 6.01881 10.4504 6.58732 10.4504 7.92019H11.718C11.718 5.8762 10.593 4.75122 8.54906 4.75122V6.01881ZM10.7179 9.46855C10.5961 9.35786 10.4361 9.29882 10.2716 9.30391C10.1071 9.309 9.95101 9.3778 9.83629 9.4958L8.31962 11.0556C7.95456 10.9859 7.22062 10.7571 6.46514 10.0035C5.70966 9.24736 5.48086 8.51152 5.41304 8.14899L6.97154 6.63169C7.08969 6.51705 7.1586 6.36094 7.16369 6.1964C7.16877 6.03186 7.10964 5.87179 6.9988 5.75008L4.65693 3.17497C4.54604 3.05288 4.39193 2.97882 4.22731 2.96852C4.0627 2.95823 3.90056 3.01251 3.77532 3.11983L2.39999 4.29933C2.29041 4.4093 2.22501 4.55566 2.21619 4.71066C2.20668 4.86911 2.02541 8.62244 4.9358 11.5341C7.47478 14.0724 10.6552 14.2581 11.5311 14.2581C11.6591 14.2581 11.7377 14.2543 11.7586 14.2531C11.9136 14.2444 12.0598 14.1787 12.1693 14.0686L13.3481 12.6927C13.4556 12.5675 13.5099 12.4054 13.4998 12.2408C13.4896 12.0762 13.4156 11.922 13.2936 11.8111L10.7179 9.46855Z" fill="white"/>
</svg>
