<svg width="28" height="28" viewBox="0 0 28 28" fill="none" xmlns="http://www.w3.org/2000/svg">
<path d="M10.7007 18.949L14 15.6497L17.2994 18.949L18.949 17.2994L15.6497 14L18.949 10.7007L17.2994 9.05103L14 12.3504L10.7007 9.05103L9.05103 10.7007L12.3504 14L9.05103 17.2994L10.7007 18.949Z" fill="black"/>
<path d="M14 25.6666C20.433 25.6666 25.6667 20.433 25.6667 14C25.6667 7.56698 20.433 2.33331 14 2.33331C7.56704 2.33331 2.33337 7.56698 2.33337 14C2.33337 20.433 7.56704 25.6666 14 25.6666ZM14 4.66665C19.1462 4.66665 23.3334 8.85381 23.3334 14C23.3334 19.1461 19.1462 23.3333 14 23.3333C8.85387 23.3333 4.66671 19.1461 4.66671 14C4.66671 8.85381 8.85387 4.66665 14 4.66665Z" fill="black"/>
</svg>
