<svg width="130" height="85" viewBox="0 0 130 85" fill="none" xmlns="http://www.w3.org/2000/svg">
<path d="M115.92 2.72163C87.6743 21.5517 125.481 28.1934 106.147 56.7734" stroke="white" stroke-width="1.68116" stroke-dasharray="1.68 1.68"/>
<g filter="url(#filter0_b_8_1648)">
<rect x="0.535461" y="49.1855" width="114.138" height="35.2102" rx="17.6051" transform="rotate(-0.113413 0.535461 49.1855)" fill="#27395C" fill-opacity="0.68"/>
</g>
<path d="M16.3845 72.3998C15.5542 72.3998 14.8148 72.2571 14.1662 71.9717C13.5213 71.6826 13.0117 71.286 12.6373 70.782C12.2667 70.2742 12.0758 69.6886 12.0647 69.0252H14.4886C14.5035 69.3031 14.5943 69.5478 14.7611 69.759C14.9316 69.9666 15.1576 70.1278 15.4393 70.2427C15.721 70.3576 16.0379 70.415 16.39 70.415C16.7569 70.415 17.0812 70.3502 17.3629 70.2205C17.6446 70.0907 17.8651 69.911 18.0245 69.6812C18.1839 69.4514 18.2636 69.1864 18.2636 68.8862C18.2636 68.5823 18.1783 68.3135 18.0078 68.08C17.8411 67.8428 17.6001 67.6575 17.2851 67.5241C16.9738 67.3907 16.6031 67.3239 16.1732 67.3239H15.1113V65.556H16.1732C16.5364 65.556 16.857 65.493 17.135 65.367C17.4167 65.241 17.6354 65.0668 17.791 64.8444C17.9467 64.6183 18.0245 64.3551 18.0245 64.0549C18.0245 63.7695 17.956 63.5194 17.8188 63.3044C17.6854 63.0857 17.4964 62.9152 17.2517 62.7929C17.0108 62.6706 16.7291 62.6094 16.4067 62.6094C16.0805 62.6094 15.7822 62.6687 15.5116 62.7874C15.241 62.9022 15.0242 63.0672 14.8611 63.2822C14.6981 63.4971 14.611 63.7492 14.5998 64.0382H12.2926C12.3037 63.3822 12.4909 62.804 12.8541 62.3037C13.2174 61.8033 13.7066 61.4123 14.3219 61.1306C14.9408 60.8452 15.6395 60.7025 16.4178 60.7025C17.2036 60.7025 17.8911 60.8452 18.4804 61.1306C19.0697 61.416 19.5274 61.8015 19.8536 62.287C20.1835 62.7688 20.3466 63.3099 20.3428 63.9104C20.3466 64.5479 20.1483 65.0797 19.748 65.506C19.3514 65.9322 18.8344 66.2028 18.1969 66.3177V66.4066C19.0345 66.5141 19.672 66.8051 20.1093 67.2795C20.5504 67.7502 20.7691 68.3395 20.7654 69.0474C20.7691 69.696 20.5819 70.2724 20.2039 70.7764C19.8295 71.2805 19.3125 71.6771 18.6527 71.9662C17.993 72.2553 17.2369 72.3998 16.3845 72.3998ZM24.7808 69.1197L27.8552 63.7047H30.1902V72.2441H27.933V66.8125L24.8697 72.2441H22.518V63.7047H24.7808V69.1197ZM37.1368 69.6256L39.4496 63.7047H41.2509L37.9207 72.2441H36.3474L33.0951 63.7047H34.8908L37.1368 69.6256ZM34.3515 63.7047V72.2441H32.0888V63.7047H34.3515ZM40.0389 72.2441V63.7047H42.2739V72.2441H40.0389ZM50.0489 67.0293V68.8917H45.5901V67.0293H50.0489ZM46.3685 63.7047V72.2441H44.1057V63.7047H46.3685ZM51.5333 63.7047V72.2441H49.2872V63.7047H51.5333ZM55.6335 69.1197L58.7079 63.7047H61.0429V72.2441H58.7857V66.8125L55.7224 72.2441H53.3707V63.7047H55.6335V69.1197ZM65.2042 69.1197L68.2786 63.7047H70.6137V72.2441H68.3565V66.8125L65.2932 72.2441H62.9415V63.7047H65.2042V69.1197ZM67.8728 60.7248H69.524C69.5203 61.3993 69.2701 61.9423 68.7734 62.3537C68.2805 62.7651 67.6134 62.9708 66.772 62.9708C65.927 62.9708 65.258 62.7651 64.765 62.3537C64.2721 61.9423 64.0256 61.3993 64.0256 60.7248H65.6657C65.662 60.9805 65.7435 61.2103 65.9103 61.4141C66.0808 61.618 66.368 61.7199 66.772 61.7199C67.1649 61.7199 67.4466 61.6198 67.6171 61.4197C67.7876 61.2196 67.8728 60.9879 67.8728 60.7248ZM79.994 72.4109C79.1193 72.4109 78.3669 72.2256 77.7368 71.855C77.1105 71.4806 76.6286 70.9617 76.2913 70.2983C75.9578 69.6349 75.791 68.8713 75.791 68.0078C75.791 67.1331 75.9596 66.3658 76.2969 65.7061C76.6379 65.0427 77.1216 64.5256 77.7479 64.155C78.3743 63.7807 79.1193 63.5935 79.9829 63.5935C80.7279 63.5935 81.3802 63.7288 81.9398 63.9993C82.4995 64.2699 82.9424 64.6498 83.2686 65.139C83.5947 65.6283 83.7745 66.2028 83.8079 66.8625H81.5729C81.5099 66.4363 81.3431 66.0934 81.0726 65.834C80.8057 65.5708 80.4554 65.4393 80.0218 65.4393C79.6549 65.4393 79.3343 65.5393 79.06 65.7395C78.7894 65.9359 78.5782 66.2232 78.4262 66.6012C78.2743 66.9792 78.1983 67.437 78.1983 67.9744C78.1983 68.5192 78.2724 68.9825 78.4207 69.3643C78.5726 69.7461 78.7857 70.037 79.06 70.2371C79.3343 70.4373 79.6549 70.5374 80.0218 70.5374C80.2924 70.5374 80.5351 70.4818 80.7501 70.3706C80.9688 70.2594 81.1485 70.0982 81.2894 69.8869C81.4339 69.6719 81.5284 69.4143 81.5729 69.1141H83.8079C83.7708 69.7664 83.5929 70.3409 83.2741 70.8376C82.9591 71.3305 82.5236 71.716 81.9676 71.994C81.4117 72.2719 80.7538 72.4109 79.994 72.4109ZM87.7593 72.4054C87.2145 72.4054 86.7289 72.3109 86.3027 72.1218C85.8765 71.9291 85.5392 71.6456 85.2909 71.2712C85.0462 70.8932 84.9239 70.4225 84.9239 69.8591C84.9239 69.3847 85.011 68.9862 85.1852 68.6638C85.3594 68.3413 85.5966 68.0819 85.8969 67.8855C86.1971 67.689 86.5381 67.5408 86.9198 67.4407C87.3053 67.3406 87.7093 67.2702 88.1318 67.2294C88.6284 67.1775 89.0287 67.1294 89.3327 67.0849C89.6366 67.0367 89.8571 66.9663 89.9942 66.8736C90.1314 66.781 90.1999 66.6438 90.1999 66.4622V66.4289C90.1999 66.0768 90.0888 65.8043 89.8664 65.6116C89.6477 65.4189 89.3364 65.3225 88.9324 65.3225C88.5061 65.3225 88.167 65.417 87.915 65.606C87.6629 65.7914 87.4961 66.0249 87.4146 66.3065L85.2241 66.1286C85.3353 65.6097 85.554 65.1613 85.8802 64.7832C86.2063 64.4015 86.627 64.1087 87.1422 63.9048C87.6611 63.6973 88.2615 63.5935 88.9435 63.5935C89.4179 63.5935 89.8719 63.6491 90.3056 63.7603C90.7429 63.8715 91.1302 64.0438 91.4675 64.2773C91.8085 64.5108 92.0772 64.811 92.2737 65.178C92.4701 65.5412 92.5683 65.9767 92.5683 66.4844V72.2441H90.3223V71.06H90.2555C90.1184 71.3268 89.9349 71.5622 89.7051 71.766C89.4753 71.9662 89.1992 72.1237 88.8768 72.2386C88.5543 72.3498 88.1818 72.4054 87.7593 72.4054ZM88.4376 70.7709C88.786 70.7709 89.0936 70.7023 89.3605 70.5652C89.6273 70.4243 89.8367 70.2353 89.9887 69.9981C90.1406 69.7609 90.2166 69.4922 90.2166 69.1919V68.2857C90.1425 68.3339 90.0406 68.3784 89.9108 68.4192C89.7848 68.4562 89.6421 68.4914 89.4828 68.5248C89.3234 68.5545 89.164 68.5823 89.0046 68.6082C88.8453 68.6304 88.7007 68.6508 88.571 68.6694C88.293 68.7101 88.0503 68.775 87.8427 68.8639C87.6351 68.9529 87.4739 69.0733 87.359 69.2253C87.2441 69.3736 87.1867 69.5589 87.1867 69.7813C87.1867 70.1037 87.3034 70.3502 87.5369 70.5207C87.7741 70.6875 88.0743 70.7709 88.4376 70.7709ZM93.7386 74.7459V70.365H94.3946C94.5836 70.2464 94.7356 70.0574 94.8505 69.7979C94.9691 69.5385 95.0655 69.2327 95.1396 68.8806C95.2174 68.5285 95.2767 68.1486 95.3175 67.7409C95.362 67.3295 95.4009 66.9144 95.4343 66.4956L95.6566 63.7047H102.206V70.365H103.529V74.7459H101.272V72.2441H96.0514V74.7459H93.7386ZM96.7519 70.365H99.9708V65.5282H97.6692L97.5802 66.4956C97.5172 67.4073 97.4264 68.182 97.3078 68.8195C97.1892 69.4532 97.0039 69.9684 96.7519 70.365Z" fill="white"/>
<defs>
<filter id="filter0_b_8_1648" x="-15.0186" y="33.4052" width="145.316" height="66.545" filterUnits="userSpaceOnUse" color-interpolation-filters="sRGB">
<feFlood flood-opacity="0" result="BackgroundImageFix"/>
<feGaussianBlur in="BackgroundImageFix" stdDeviation="7.79445"/>
<feComposite in2="SourceAlpha" operator="in" result="effect1_backgroundBlur_8_1648"/>
<feBlend mode="normal" in="SourceGraphic" in2="effect1_backgroundBlur_8_1648" result="shape"/>
</filter>
</defs>
</svg>
