<svg width="277" height="217" viewBox="0 0 277 217" fill="none" xmlns="http://www.w3.org/2000/svg">
<path d="M50.0521 6.73114C78.5135 -38.6643 170.504 219.412 148.498 170.5" stroke="white" stroke-width="2.65347" stroke-dasharray="2.65 2.65"/>
<g filter="url(#filter0_b_10_1655)">
<rect y="135.549" width="276.366" height="80.8028" rx="19" transform="rotate(-0.113413 0 135.549)" fill="#27395C" fill-opacity="0.48"/>
</g>
<path d="M32.1108 191.4C29.9896 191.4 28.1004 191.035 26.4432 190.306C24.7955 189.567 23.4934 188.554 22.5369 187.266C21.59 185.969 21.1023 184.473 21.0739 182.778H27.267C27.3049 183.488 27.5369 184.113 27.9631 184.653C28.3987 185.183 28.9763 185.595 29.696 185.888C30.4157 186.182 31.2254 186.329 32.125 186.329C33.0625 186.329 33.8911 186.163 34.6108 185.831C35.3305 185.5 35.8939 185.041 36.3011 184.454C36.7083 183.867 36.9119 183.189 36.9119 182.422C36.9119 181.646 36.6941 180.959 36.2585 180.363C35.8324 179.757 35.2169 179.283 34.4119 178.942C33.6165 178.601 32.6695 178.431 31.571 178.431H28.858V173.914H31.571C32.4991 173.914 33.3182 173.753 34.0284 173.431C34.7481 173.109 35.3068 172.664 35.7045 172.096C36.1023 171.518 36.3011 170.846 36.3011 170.079C36.3011 169.349 36.1259 168.71 35.7756 168.161C35.4347 167.602 34.9517 167.167 34.3267 166.854C33.7112 166.542 32.9915 166.385 32.1676 166.385C31.3343 166.385 30.572 166.537 29.8807 166.84C29.1894 167.134 28.6354 167.555 28.2188 168.104C27.8021 168.653 27.5795 169.297 27.5511 170.036H21.6562C21.6847 168.36 22.1629 166.883 23.0909 165.604C24.0189 164.326 25.2689 163.327 26.8409 162.607C28.4223 161.878 30.2074 161.513 32.196 161.513C34.2036 161.513 35.9602 161.878 37.4659 162.607C38.9716 163.336 40.1411 164.321 40.9744 165.562C41.8172 166.793 42.2339 168.175 42.2244 169.709C42.2339 171.338 41.7273 172.697 40.7045 173.786C39.6913 174.875 38.3703 175.566 36.7415 175.86V176.087C38.8816 176.362 40.5104 177.105 41.6278 178.317C42.7547 179.52 43.3134 181.026 43.304 182.834C43.3134 184.492 42.8352 185.964 41.8693 187.252C40.9129 188.54 39.5919 189.553 37.9062 190.292C36.2206 191.03 34.2888 191.4 32.1108 191.4ZM53.5632 183.019L61.4183 169.184H67.3842V191.002H61.6172V177.124L53.7905 191.002H47.782V169.184H53.5632V183.019ZM85.1328 184.312L91.0419 169.184H95.6442L87.1357 191.002H83.1158L74.8061 169.184H79.3942L85.1328 184.312ZM78.0163 169.184V191.002H72.2351V169.184H78.0163ZM92.5476 191.002V169.184H98.2578V191.002H92.5476ZM118.123 177.678V182.437H106.731V177.678H118.123ZM108.719 169.184V191.002H102.938V169.184H108.719ZM121.915 169.184V191.002H116.177V169.184H121.915ZM132.391 183.019L140.246 169.184H146.212V191.002H140.445V177.124L132.619 191.002H126.61V169.184H132.391V183.019ZM156.844 183.019L164.7 169.184H170.665V191.002H164.898V177.124L157.072 191.002H151.063V169.184H156.844V183.019ZM163.663 161.57H167.881C167.872 163.294 167.233 164.681 165.964 165.732C164.704 166.783 163 167.309 160.85 167.309C158.691 167.309 156.982 166.783 155.722 165.732C154.463 164.681 153.833 163.294 153.833 161.57H158.023C158.014 162.224 158.222 162.811 158.648 163.331C159.084 163.852 159.818 164.113 160.85 164.113C161.854 164.113 162.574 163.857 163.009 163.346C163.445 162.834 163.663 162.242 163.663 161.57ZM194.632 191.428C192.397 191.428 190.475 190.955 188.865 190.008C187.265 189.051 186.034 187.725 185.172 186.03C184.32 184.335 183.893 182.385 183.893 180.178C183.893 177.943 184.324 175.983 185.186 174.297C186.057 172.602 187.293 171.281 188.893 170.334C190.494 169.378 192.397 168.9 194.604 168.9C196.507 168.9 198.174 169.245 199.604 169.937C201.034 170.628 202.165 171.599 202.999 172.849C203.832 174.099 204.291 175.566 204.376 177.252H198.666C198.505 176.163 198.079 175.287 197.388 174.624C196.706 173.952 195.811 173.616 194.703 173.616C193.766 173.616 192.946 173.871 192.246 174.383C191.554 174.885 191.015 175.618 190.626 176.584C190.238 177.55 190.044 178.72 190.044 180.093C190.044 181.485 190.233 182.669 190.612 183.644C191 184.619 191.545 185.363 192.246 185.874C192.946 186.385 193.766 186.641 194.703 186.641C195.394 186.641 196.015 186.499 196.564 186.215C197.123 185.931 197.582 185.519 197.942 184.979C198.311 184.43 198.553 183.772 198.666 183.005H204.376C204.282 184.671 203.827 186.139 203.013 187.408C202.208 188.668 201.095 189.653 199.675 190.363C198.254 191.073 196.573 191.428 194.632 191.428ZM214.472 191.414C213.08 191.414 211.84 191.172 210.751 190.689C209.662 190.197 208.8 189.473 208.165 188.516C207.54 187.55 207.228 186.348 207.228 184.908C207.228 183.696 207.451 182.678 207.896 181.854C208.341 181.03 208.947 180.367 209.714 179.866C210.481 179.364 211.352 178.985 212.327 178.729C213.312 178.474 214.344 178.294 215.424 178.189C216.693 178.057 217.716 177.934 218.492 177.82C219.269 177.697 219.832 177.517 220.183 177.28C220.533 177.044 220.708 176.693 220.708 176.229V176.144C220.708 175.244 220.424 174.548 219.856 174.056C219.297 173.564 218.502 173.317 217.469 173.317C216.38 173.317 215.514 173.559 214.87 174.042C214.226 174.515 213.8 175.112 213.592 175.831L207.995 175.377C208.279 174.051 208.838 172.905 209.671 171.939C210.504 170.964 211.579 170.216 212.896 169.695C214.221 169.165 215.755 168.9 217.498 168.9C218.71 168.9 219.87 169.042 220.978 169.326C222.095 169.61 223.085 170.05 223.947 170.647C224.818 171.243 225.504 172.01 226.006 172.948C226.508 173.876 226.759 174.989 226.759 176.286V191.002H221.021V187.976H220.85C220.5 188.658 220.031 189.26 219.444 189.78C218.857 190.292 218.151 190.694 217.327 190.988C216.504 191.272 215.552 191.414 214.472 191.414ZM216.205 187.238C217.095 187.238 217.881 187.063 218.563 186.712C219.245 186.352 219.78 185.869 220.168 185.263C220.557 184.657 220.751 183.971 220.751 183.204V180.888C220.561 181.011 220.301 181.125 219.969 181.229C219.647 181.324 219.283 181.414 218.876 181.499C218.469 181.575 218.061 181.646 217.654 181.712C217.247 181.769 216.878 181.821 216.546 181.868C215.836 181.973 215.216 182.138 214.685 182.366C214.155 182.593 213.743 182.901 213.45 183.289C213.156 183.668 213.009 184.141 213.009 184.709C213.009 185.533 213.308 186.163 213.904 186.599C214.51 187.025 215.277 187.238 216.205 187.238ZM229.749 197.394V186.201H231.425C231.908 185.898 232.297 185.415 232.59 184.752C232.893 184.089 233.139 183.308 233.329 182.408C233.528 181.509 233.679 180.538 233.783 179.496C233.897 178.445 233.996 177.385 234.082 176.314L234.65 169.184H251.383V186.201H254.763V197.394H248.996V191.002H235.658V197.394H229.749ZM237.448 186.201H245.673V173.843H239.792L239.565 176.314C239.404 178.644 239.172 180.623 238.869 182.252C238.566 183.871 238.092 185.188 237.448 186.201Z" fill="white"/>
<defs>
<filter id="filter0_b_10_1655" x="-29.2472" y="105.754" width="335.02" height="139.844" filterUnits="userSpaceOnUse" color-interpolation-filters="sRGB">
<feFlood flood-opacity="0" result="BackgroundImageFix"/>
<feGaussianBlur in="BackgroundImageFix" stdDeviation="14.6424"/>
<feComposite in2="SourceAlpha" operator="in" result="effect1_backgroundBlur_10_1655"/>
<feBlend mode="normal" in="SourceGraphic" in2="effect1_backgroundBlur_10_1655" result="shape"/>
</filter>
</defs>
</svg>
