<svg width="158" height="86" viewBox="0 0 158 86" fill="none" xmlns="http://www.w3.org/2000/svg">
<path d="M126.41 15.2784C102.274 31.3695 72.848 28.4518 72.8483 57.4905" stroke="white" stroke-width="1.43662" stroke-dasharray="1.44 1.44"/>
<g filter="url(#filter0_b_8_1649)">
<rect x="0.526367" y="55.1406" width="156.656" height="30.0887" rx="15.0444" transform="rotate(-0.113413 0.526367 55.1406)" fill="#27395C" fill-opacity="0.68"/>
</g>
<path d="M21.1368 64.2585V74.8164H18.9303V66.0732H14.6618V74.8164H12.4554V64.2585H21.1368ZM25.4787 74.9659C24.9735 74.9659 24.5233 74.8783 24.1281 74.703C23.7328 74.5243 23.4201 74.2614 23.1898 73.9142C22.963 73.5637 22.8496 73.1272 22.8496 72.6048C22.8496 72.1649 22.9303 71.7954 23.0919 71.4964C23.2534 71.1974 23.4734 70.9569 23.7517 70.7747C24.0301 70.5926 24.3463 70.4551 24.7003 70.3623C25.0577 70.2695 25.4323 70.2042 25.8241 70.1664C26.2847 70.1183 26.6558 70.0736 26.9377 70.0324C27.2195 69.9877 27.424 69.9224 27.5511 69.8365C27.6783 69.7505 27.7419 69.6234 27.7419 69.455V69.4241C27.7419 69.0976 27.6388 68.8449 27.4326 68.6662C27.2298 68.4875 26.9411 68.3982 26.5665 68.3982C26.1713 68.3982 25.8568 68.4858 25.6231 68.6611C25.3894 68.8329 25.2347 69.0494 25.1591 69.3106L23.128 69.1457C23.2311 68.6645 23.4338 68.2487 23.7363 67.8981C24.0387 67.5441 24.4288 67.2726 24.9065 67.0836C25.3877 66.8911 25.9444 66.7949 26.5768 66.7949C27.0167 66.7949 27.4377 66.8464 27.8398 66.9495C28.2454 67.0527 28.6045 67.2125 28.9173 67.429C29.2335 67.6455 29.4826 67.9239 29.6648 68.2641C29.8469 68.6009 29.938 69.0048 29.938 69.4756V74.8164H27.8553V73.7183H27.7934C27.6663 73.9658 27.4961 74.184 27.2831 74.3731C27.07 74.5586 26.8139 74.7047 26.5149 74.8113C26.2159 74.9144 25.8705 74.9659 25.4787 74.9659ZM26.1077 73.4503C26.4307 73.4503 26.716 73.3867 26.9634 73.2595C27.2109 73.1289 27.4051 72.9537 27.546 72.7337C27.6869 72.5137 27.7573 72.2646 27.7573 71.9862V71.1459C27.6886 71.1906 27.5941 71.2318 27.4738 71.2696C27.357 71.304 27.2246 71.3366 27.0769 71.3676C26.9291 71.3951 26.7813 71.4208 26.6335 71.4449C26.4857 71.4655 26.3517 71.4844 26.2314 71.5016C25.9736 71.5394 25.7485 71.5996 25.5561 71.682C25.3636 71.7645 25.2141 71.8762 25.1076 72.0171C25.001 72.1546 24.9477 72.3264 24.9477 72.5326C24.9477 72.8316 25.056 73.0602 25.2725 73.2183C25.4925 73.3729 25.7709 73.4503 26.1077 73.4503ZM37.1527 69.9808V71.7078H33.0182V69.9808H37.1527ZM33.74 66.898V74.8164H31.6418V66.898H33.74ZM38.5292 66.898V74.8164H36.4465V66.898H38.5292ZM43.8107 74.9711C43.0099 74.9711 42.3174 74.8009 41.7331 74.4607C41.1523 74.117 40.7038 73.6393 40.3876 73.0275C40.0714 72.4124 39.9133 71.6992 39.9133 70.8881C39.9133 70.0702 40.0714 69.3553 40.3876 68.7436C40.7038 68.1284 41.1523 67.6507 41.7331 67.3104C42.3174 66.9667 43.0099 66.7949 43.8107 66.7949C44.6115 66.7949 45.3023 66.9667 45.8831 67.3104C46.4673 67.6507 46.9176 68.1284 47.2337 68.7436C47.5499 69.3553 47.708 70.0702 47.708 70.8881C47.708 71.6992 47.5499 72.4124 47.2337 73.0275C46.9176 73.6393 46.4673 74.117 45.8831 74.4607C45.3023 74.8009 44.6115 74.9711 43.8107 74.9711ZM43.821 73.2698C44.1853 73.2698 44.4895 73.1667 44.7335 72.9605C44.9775 72.7509 45.1614 72.4656 45.2851 72.1048C45.4122 71.7439 45.4758 71.3332 45.4758 70.8727C45.4758 70.4121 45.4122 70.0014 45.2851 69.6406C45.1614 69.2797 44.9775 68.9944 44.7335 68.7848C44.4895 68.5752 44.1853 68.4703 43.821 68.4703C43.4533 68.4703 43.1439 68.5752 42.8931 68.7848C42.6456 68.9944 42.4583 69.2797 42.3311 69.6406C42.2074 70.0014 42.1456 70.4121 42.1456 70.8727C42.1456 71.3332 42.2074 71.7439 42.3311 72.1048C42.4583 72.4656 42.6456 72.7509 42.8931 72.9605C43.1439 73.1667 43.4533 73.2698 43.821 73.2698ZM49.136 77.7858V66.898H51.3012V68.228H51.3992C51.4954 68.015 51.6346 67.7984 51.8167 67.5785C52.0023 67.3551 52.2429 67.1695 52.5385 67.0217C52.8375 66.8705 53.2086 66.7949 53.652 66.7949C54.2294 66.7949 54.7621 66.9461 55.2501 67.2485C55.7381 67.5476 56.1282 67.9995 56.4203 68.6044C56.7125 69.2058 56.8585 69.9602 56.8585 70.8675C56.8585 71.7508 56.7159 72.4966 56.4307 73.1049C56.1488 73.7098 55.7639 74.1686 55.2759 74.4813C54.7913 74.7906 54.2483 74.9453 53.6468 74.9453C53.2207 74.9453 52.8581 74.8748 52.5591 74.7339C52.2635 74.593 52.0212 74.416 51.8322 74.2029C51.6432 73.9864 51.4988 73.7682 51.3992 73.5482H51.3321V77.7858H49.136ZM51.2857 70.8572C51.2857 71.328 51.351 71.7387 51.4816 72.0893C51.6122 72.4399 51.8013 72.7131 52.0487 72.909C52.2962 73.1014 52.5969 73.1977 52.9509 73.1977C53.3083 73.1977 53.6108 73.0997 53.8582 72.9038C54.1057 72.7045 54.293 72.4295 54.4201 72.079C54.5507 71.725 54.616 71.3177 54.616 70.8572C54.616 70.4001 54.5524 69.998 54.4253 69.6509C54.2981 69.3038 54.1108 69.0323 53.8634 68.8364C53.6159 68.6405 53.3117 68.5425 52.9509 68.5425C52.5935 68.5425 52.291 68.637 52.0436 68.826C51.7996 69.0151 51.6122 69.2831 51.4816 69.6303C51.351 69.9774 51.2857 70.3864 51.2857 70.8572ZM60.5806 74.9659C60.0754 74.9659 59.6252 74.8783 59.2299 74.703C58.8347 74.5243 58.522 74.2614 58.2917 73.9142C58.0649 73.5637 57.9514 73.1272 57.9514 72.6048C57.9514 72.1649 58.0322 71.7954 58.1937 71.4964C58.3553 71.1974 58.5752 70.9569 58.8536 70.7747C59.132 70.5926 59.4482 70.4551 59.8022 70.3623C60.1596 70.2695 60.5342 70.2042 60.926 70.1664C61.3865 70.1183 61.7577 70.0736 62.0395 70.0324C62.3213 69.9877 62.5258 69.9224 62.653 69.8365C62.7802 69.7505 62.8437 69.6234 62.8437 69.455V69.4241C62.8437 69.0976 62.7406 68.8449 62.5344 68.6662C62.3317 68.4875 62.043 68.3982 61.6684 68.3982C61.2731 68.3982 60.9587 68.4858 60.7249 68.6611C60.4912 68.8329 60.3366 69.0494 60.261 69.3106L58.2298 69.1457C58.3329 68.6645 58.5357 68.2487 58.8381 67.8981C59.1406 67.5441 59.5307 67.2726 60.0084 67.0836C60.4895 66.8911 61.0463 66.7949 61.6787 66.7949C62.1186 66.7949 62.5396 66.8464 62.9417 66.9495C63.3472 67.0527 63.7064 67.2125 64.0191 67.429C64.3353 67.6455 64.5845 67.9239 64.7666 68.2641C64.9488 68.6009 65.0399 69.0048 65.0399 69.4756V74.8164H62.9572V73.7183H62.8953C62.7681 73.9658 62.598 74.184 62.3849 74.3731C62.1718 74.5586 61.9158 74.7047 61.6168 74.8113C61.3178 74.9144 60.9724 74.9659 60.5806 74.9659ZM61.2095 73.4503C61.5326 73.4503 61.8179 73.3867 62.0653 73.2595C62.3128 73.1289 62.5069 72.9537 62.6478 72.7337C62.7888 72.5137 62.8592 72.2646 62.8592 71.9862V71.1459C62.7905 71.1906 62.696 71.2318 62.5757 71.2696C62.4588 71.304 62.3265 71.3366 62.1787 71.3676C62.0309 71.3951 61.8832 71.4208 61.7354 71.4449C61.5876 71.4655 61.4536 71.4844 61.3333 71.5016C61.0755 71.5394 60.8504 71.5996 60.6579 71.682C60.4655 71.7645 60.316 71.8762 60.2094 72.0171C60.1029 72.1546 60.0496 72.3264 60.0496 72.5326C60.0496 72.8316 60.1579 73.0602 60.3744 73.2183C60.5944 73.3729 60.8727 73.4503 61.2095 73.4503ZM71.4246 72.3883L73.5692 66.898H75.2395L72.1515 74.8164H70.6926L67.6768 66.898H69.3419L71.4246 72.3883ZM68.8418 66.898V74.8164H66.7437V66.898H68.8418ZM74.1156 74.8164V66.898H76.188V74.8164H74.1156ZM83.3976 69.9808V71.7078H79.2631V69.9808H83.3976ZM79.9848 66.898V74.8164H77.8867V66.898H79.9848ZM84.774 66.898V74.8164H82.6913V66.898H84.774ZM87.8543 69.3313H90.2205C91.2687 69.3313 92.0867 69.5821 92.6744 70.0839C93.2621 70.5823 93.5559 71.249 93.5559 72.0841C93.5559 72.6272 93.4236 73.1049 93.159 73.5173C92.8944 73.9263 92.5129 74.2459 92.0145 74.4762C91.5162 74.703 90.9182 74.8164 90.2205 74.8164H86.4778V66.898H88.576V73.0894H90.2205C90.5883 73.0894 90.8907 72.9966 91.1278 72.811C91.365 72.6254 91.4853 72.3883 91.4887 72.0996C91.4853 71.7937 91.365 71.5446 91.1278 71.3521C90.8907 71.1562 90.5883 71.0583 90.2205 71.0583H87.8543V69.3313ZM94.4065 74.8164V66.898H96.6027V74.8164H94.4065ZM101.967 74.9711C101.152 74.9711 100.451 74.8061 99.8633 74.4762C99.2791 74.1428 98.8289 73.6719 98.5127 73.0636C98.1965 72.4519 98.0384 71.7284 98.0384 70.8933C98.0384 70.0788 98.1965 69.3639 98.5127 68.7487C98.8289 68.1335 99.2739 67.6541 99.8479 67.3104C100.425 66.9667 101.102 66.7949 101.879 66.7949C102.401 66.7949 102.888 66.8791 103.338 67.0475C103.792 67.2125 104.187 67.4616 104.524 67.795C104.864 68.1284 105.129 68.5477 105.318 69.0529C105.507 69.5546 105.601 70.1423 105.601 70.816V71.4191H98.9148V70.0581H103.534C103.534 69.742 103.465 69.4619 103.328 69.2178C103.19 68.9738 102.999 68.7831 102.755 68.6456C102.515 68.5047 102.235 68.4342 101.915 68.4342C101.582 68.4342 101.286 68.5116 101.028 68.6662C100.774 68.8175 100.575 69.0219 100.43 69.2797C100.286 69.534 100.212 69.8176 100.209 70.1303V71.4243C100.209 71.8161 100.281 72.1546 100.425 72.4399C100.573 72.7251 100.781 72.9451 101.049 73.0997C101.317 73.2544 101.635 73.3317 102.003 73.3317C102.247 73.3317 102.47 73.2973 102.673 73.2286C102.876 73.1599 103.049 73.0568 103.194 72.9193C103.338 72.7818 103.448 72.6134 103.524 72.4141L105.555 72.5481C105.452 73.0361 105.24 73.4623 104.921 73.8266C104.604 74.1875 104.195 74.4693 103.694 74.6721C103.195 74.8714 102.62 74.9711 101.967 74.9711ZM113.972 74.9711C113.171 74.9711 112.479 74.8009 111.894 74.4607C111.314 74.117 110.865 73.6393 110.549 73.0275C110.233 72.4124 110.075 71.6992 110.075 70.8881C110.075 70.0702 110.233 69.3553 110.549 68.7436C110.865 68.1284 111.314 67.6507 111.894 67.3104C112.479 66.9667 113.171 66.7949 113.972 66.7949C114.773 66.7949 115.463 66.9667 116.044 67.3104C116.629 67.6507 117.079 68.1284 117.395 68.7436C117.711 69.3553 117.869 70.0702 117.869 70.8881C117.869 71.6992 117.711 72.4124 117.395 73.0275C117.079 73.6393 116.629 74.117 116.044 74.4607C115.463 74.8009 114.773 74.9711 113.972 74.9711ZM113.982 73.2698C114.346 73.2698 114.651 73.1667 114.895 72.9605C115.139 72.7509 115.323 72.4656 115.446 72.1048C115.573 71.7439 115.637 71.3332 115.637 70.8727C115.637 70.4121 115.573 70.0014 115.446 69.6406C115.323 69.2797 115.139 68.9944 114.895 68.7848C114.651 68.5752 114.346 68.4703 113.982 68.4703C113.614 68.4703 113.305 68.5752 113.054 68.7848C112.807 68.9944 112.619 69.2797 112.492 69.6406C112.369 70.0014 112.307 70.4121 112.307 70.8727C112.307 71.3332 112.369 71.7439 112.492 72.1048C112.619 72.4656 112.807 72.7509 113.054 72.9605C113.305 73.1667 113.614 73.2698 113.982 73.2698ZM119.297 74.8164V66.898H121.493V69.9705H122.112L124.267 66.898H126.844L124.045 70.8263L126.875 74.8164H124.267L122.313 72.0068H121.493V74.8164H119.297ZM133.314 69.9808V71.7078H129.18V69.9808H133.314ZM129.902 66.898V74.8164H127.803V66.898H129.902ZM134.691 66.898V74.8164H132.608V66.898H134.691ZM138.652 74.9659C138.147 74.9659 137.697 74.8783 137.302 74.703C136.907 74.5243 136.594 74.2614 136.364 73.9142C136.137 73.5637 136.023 73.1272 136.023 72.6048C136.023 72.1649 136.104 71.7954 136.266 71.4964C136.427 71.1974 136.647 70.9569 136.925 70.7747C137.204 70.5926 137.52 70.4551 137.874 70.3623C138.231 70.2695 138.606 70.2042 138.998 70.1664C139.458 70.1183 139.83 70.0736 140.111 70.0324C140.393 69.9877 140.598 69.9224 140.725 69.8365C140.852 69.7505 140.916 69.6234 140.916 69.455V69.4241C140.916 69.0976 140.813 68.8449 140.606 68.6662C140.404 68.4875 140.115 68.3982 139.74 68.3982C139.345 68.3982 139.031 68.4858 138.797 68.6611C138.563 68.8329 138.408 69.0494 138.333 69.3106L136.302 69.1457C136.405 68.6645 136.608 68.2487 136.91 67.8981C137.212 67.5441 137.603 67.2726 138.08 67.0836C138.561 66.8911 139.118 66.7949 139.751 66.7949C140.19 66.7949 140.611 66.8464 141.014 66.9495C141.419 67.0527 141.778 67.2125 142.091 67.429C142.407 67.6455 142.656 67.9239 142.839 68.2641C143.021 68.6009 143.112 69.0048 143.112 69.4756V74.8164H141.029V73.7183H140.967C140.84 73.9658 140.67 74.184 140.457 74.3731C140.244 74.5586 139.988 74.7047 139.689 74.8113C139.39 74.9144 139.044 74.9659 138.652 74.9659ZM139.281 73.4503C139.604 73.4503 139.89 73.3867 140.137 73.2595C140.385 73.1289 140.579 72.9537 140.72 72.7337C140.861 72.5137 140.931 72.2646 140.931 71.9862V71.1459C140.862 71.1906 140.768 71.2318 140.648 71.2696C140.531 71.304 140.398 71.3366 140.251 71.3676C140.103 71.3951 139.955 71.4208 139.807 71.4449C139.659 71.4655 139.525 71.4844 139.405 71.5016C139.147 71.5394 138.922 71.5996 138.73 71.682C138.537 71.7645 138.388 71.8762 138.281 72.0171C138.175 72.1546 138.121 72.3264 138.121 72.5326C138.121 72.8316 138.23 73.0602 138.446 73.2183C138.666 73.3729 138.945 73.4503 139.281 73.4503Z" fill="white"/>
<defs>
<filter id="filter0_b_8_1649" x="-15.0327" y="39.2715" width="187.833" height="61.5166" filterUnits="userSpaceOnUse" color-interpolation-filters="sRGB">
<feFlood flood-opacity="0" result="BackgroundImageFix"/>
<feGaussianBlur in="BackgroundImageFix" stdDeviation="7.79445"/>
<feComposite in2="SourceAlpha" operator="in" result="effect1_backgroundBlur_8_1649"/>
<feBlend mode="normal" in="SourceGraphic" in2="effect1_backgroundBlur_8_1649" result="shape"/>
</filter>
</defs>
</svg>
