<svg width="401" height="172" viewBox="0 0 401 172" fill="none" xmlns="http://www.w3.org/2000/svg">
<path d="M193.179 170.738C221.64 125.343 127.622 118.006 146.123 68.0059" stroke="white" stroke-width="2.65347" stroke-dasharray="2.65 2.65"/>
<g filter="url(#filter0_b_10_1656)">
<rect y="1.64258" width="400.773" height="81.0716" rx="19" transform="rotate(-0.113413 0 1.64258)" fill="#27395C" fill-opacity="0.48"/>
</g>
<path d="M42.2585 26.9091V56H36.179V31.9091H24.4176V56H18.3381V26.9091H42.2585ZM54.2223 56.4119C52.8303 56.4119 51.5897 56.1705 50.5007 55.6875C49.4117 55.1951 48.55 54.4706 47.9155 53.5142C47.2905 52.5483 46.978 51.3456 46.978 49.9062C46.978 48.6941 47.2005 47.6761 47.6456 46.8523C48.0907 46.0284 48.6967 45.3655 49.4638 44.8636C50.2308 44.3617 51.102 43.983 52.0774 43.7273C53.0623 43.4716 54.0945 43.2917 55.174 43.1875C56.4429 43.0549 57.4657 42.9318 58.2422 42.8182C59.0187 42.6951 59.5822 42.5152 59.9325 42.2784C60.2829 42.0417 60.4581 41.6913 60.4581 41.2273V41.142C60.4581 40.2424 60.174 39.5464 59.6058 39.054C59.0471 38.5616 58.2517 38.3153 57.2195 38.3153C56.1304 38.3153 55.264 38.5568 54.62 39.0398C53.9761 39.5133 53.55 40.1098 53.3416 40.8295L47.745 40.375C48.0291 39.0492 48.5878 37.9034 49.4212 36.9375C50.2545 35.9621 51.3293 35.214 52.6456 34.6932C53.9714 34.1629 55.5054 33.8977 57.2479 33.8977C58.46 33.8977 59.62 34.0398 60.728 34.3239C61.8454 34.608 62.835 35.0483 63.6967 35.6449C64.5679 36.2415 65.2545 37.0085 65.7564 37.946C66.2583 38.8741 66.5092 39.9867 66.5092 41.2841V56H60.7706V52.9744H60.6001C60.2498 53.6562 59.781 54.2576 59.1939 54.7784C58.6068 55.2898 57.9013 55.6922 57.0774 55.9858C56.2536 56.2699 55.3018 56.4119 54.2223 56.4119ZM55.9553 52.2358C56.8454 52.2358 57.6314 52.0606 58.3132 51.7102C58.995 51.3504 59.5301 50.8674 59.9183 50.2614C60.3066 49.6553 60.5007 48.9687 60.5007 48.2017V45.8864C60.3113 46.0095 60.0509 46.1231 59.7195 46.2273C59.3975 46.322 59.0329 46.4119 58.6257 46.4972C58.2185 46.5729 57.8113 46.6439 57.4041 46.7102C56.9969 46.767 56.6276 46.8191 56.2962 46.8665C55.5859 46.9706 54.9657 47.1364 54.4354 47.3636C53.9051 47.5909 53.4931 47.8987 53.1996 48.2869C52.906 48.6657 52.7592 49.1392 52.7592 49.7074C52.7592 50.5312 53.0575 51.161 53.6541 51.5966C54.2602 52.0227 55.0272 52.2358 55.9553 52.2358ZM86.3885 42.6761V47.4347H74.9964V42.6761H86.3885ZM76.9851 34.1818V56H71.2038V34.1818H76.9851ZM90.1811 34.1818V56H84.4425V34.1818H90.1811ZM104.734 56.4261C102.527 56.4261 100.619 55.9574 99.0092 55.0199C97.4089 54.0729 96.1731 52.7566 95.3018 51.071C94.4306 49.3759 93.995 47.411 93.995 45.1761C93.995 42.9223 94.4306 40.9527 95.3018 39.267C96.1731 37.572 97.4089 36.2557 99.0092 35.3182C100.619 34.3712 102.527 33.8977 104.734 33.8977C106.94 33.8977 108.844 34.3712 110.444 35.3182C112.054 36.2557 113.294 37.572 114.165 39.267C115.037 40.9527 115.472 42.9223 115.472 45.1761C115.472 47.411 115.037 49.3759 114.165 51.071C113.294 52.7566 112.054 54.0729 110.444 55.0199C108.844 55.9574 106.94 56.4261 104.734 56.4261ZM104.762 51.7386C105.766 51.7386 106.604 51.4545 107.276 50.8864C107.949 50.3087 108.455 49.5227 108.796 48.5284C109.147 47.5341 109.322 46.4025 109.322 45.1335C109.322 43.8646 109.147 42.733 108.796 41.7386C108.455 40.7443 107.949 39.9583 107.276 39.3807C106.604 38.803 105.766 38.5142 104.762 38.5142C103.749 38.5142 102.897 38.803 102.205 39.3807C101.523 39.9583 101.007 40.7443 100.657 41.7386C100.316 42.733 100.146 43.8646 100.146 45.1335C100.146 46.4025 100.316 47.5341 100.657 48.5284C101.007 49.5227 101.523 50.3087 102.205 50.8864C102.897 51.4545 103.749 51.7386 104.762 51.7386ZM119.407 64.1818V34.1818H125.373V37.8466H125.643C125.908 37.2595 126.291 36.6629 126.793 36.0568C127.305 35.4413 127.968 34.9299 128.782 34.5227C129.606 34.1061 130.629 33.8977 131.85 33.8977C133.441 33.8977 134.909 34.3144 136.254 35.1477C137.598 35.9716 138.673 37.2169 139.478 38.8835C140.283 40.5407 140.685 42.6193 140.685 45.1193C140.685 47.553 140.292 49.608 139.506 51.2841C138.73 52.9508 137.669 54.215 136.325 55.0767C134.989 55.929 133.493 56.3551 131.836 56.3551C130.662 56.3551 129.663 56.161 128.839 55.7727C128.024 55.3845 127.357 54.8968 126.836 54.3097C126.315 53.7131 125.917 53.1117 125.643 52.5057H125.458V64.1818H119.407ZM125.33 45.0909C125.33 46.3883 125.51 47.5199 125.87 48.4858C126.23 49.4517 126.751 50.2045 127.433 50.7443C128.114 51.2746 128.943 51.5398 129.918 51.5398C130.903 51.5398 131.737 51.2699 132.418 50.7301C133.1 50.1809 133.616 49.4233 133.967 48.4574C134.326 47.482 134.506 46.3598 134.506 45.0909C134.506 43.8314 134.331 42.7235 133.981 41.767C133.63 40.8106 133.114 40.0625 132.433 39.5227C131.751 38.983 130.913 38.7131 129.918 38.7131C128.933 38.7131 128.1 38.9735 127.418 39.4943C126.746 40.0152 126.23 40.7538 125.87 41.7102C125.51 42.6667 125.33 43.7936 125.33 45.0909ZM150.941 56.4119C149.549 56.4119 148.308 56.1705 147.219 55.6875C146.13 55.1951 145.269 54.4706 144.634 53.5142C144.009 52.5483 143.697 51.3456 143.697 49.9062C143.697 48.6941 143.919 47.6761 144.364 46.8523C144.809 46.0284 145.415 45.3655 146.183 44.8636C146.95 44.3617 147.821 43.983 148.796 43.7273C149.781 43.4716 150.813 43.2917 151.893 43.1875C153.162 43.0549 154.184 42.9318 154.961 42.8182C155.737 42.6951 156.301 42.5152 156.651 42.2784C157.002 42.0417 157.177 41.6913 157.177 41.2273V41.142C157.177 40.2424 156.893 39.5464 156.325 39.054C155.766 38.5616 154.97 38.3153 153.938 38.3153C152.849 38.3153 151.983 38.5568 151.339 39.0398C150.695 39.5133 150.269 40.1098 150.06 40.8295L144.464 40.375C144.748 39.0492 145.307 37.9034 146.14 36.9375C146.973 35.9621 148.048 35.214 149.364 34.6932C150.69 34.1629 152.224 33.8977 153.967 33.8977C155.179 33.8977 156.339 34.0398 157.447 34.3239C158.564 34.608 159.554 35.0483 160.415 35.6449C161.287 36.2415 161.973 37.0085 162.475 37.946C162.977 38.8741 163.228 39.9867 163.228 41.2841V56H157.489V52.9744H157.319C156.969 53.6562 156.5 54.2576 155.913 54.7784C155.326 55.2898 154.62 55.6922 153.796 55.9858C152.972 56.2699 152.021 56.4119 150.941 56.4119ZM152.674 52.2358C153.564 52.2358 154.35 52.0606 155.032 51.7102C155.714 51.3504 156.249 50.8674 156.637 50.2614C157.025 49.6553 157.219 48.9687 157.219 48.2017V45.8864C157.03 46.0095 156.77 46.1231 156.438 46.2273C156.116 46.322 155.752 46.4119 155.344 46.4972C154.937 46.5729 154.53 46.6439 154.123 46.7102C153.716 46.767 153.346 46.8191 153.015 46.8665C152.305 46.9706 151.684 47.1364 151.154 47.3636C150.624 47.5909 150.212 47.8987 149.918 48.2869C149.625 48.6657 149.478 49.1392 149.478 49.7074C149.478 50.5312 149.776 51.161 150.373 51.5966C150.979 52.0227 151.746 52.2358 152.674 52.2358ZM180.82 49.3097L186.729 34.1818H191.332L182.823 56H178.803L170.494 34.1818H175.082L180.82 49.3097ZM173.704 34.1818V56H167.923V34.1818H173.704ZM188.235 56V34.1818H193.945V56H188.235ZM213.81 42.6761V47.4347H202.418V42.6761H213.81ZM204.407 34.1818V56H198.626V34.1818H204.407ZM217.603 34.1818V56H211.864V34.1818H217.603ZM226.09 40.8864H232.61C235.498 40.8864 237.752 41.5777 239.371 42.9602C240.991 44.3333 241.8 46.1705 241.8 48.4716C241.8 49.9678 241.436 51.2841 240.707 52.4205C239.978 53.5473 238.926 54.428 237.553 55.0625C236.18 55.6875 234.532 56 232.61 56H222.298V34.1818H228.079V51.2415H232.61C233.623 51.2415 234.457 50.9858 235.11 50.4744C235.763 49.9631 236.095 49.3097 236.104 48.5142C236.095 47.6714 235.763 46.9848 235.11 46.4545C234.457 45.9148 233.623 45.6449 232.61 45.6449H226.09V40.8864ZM244.144 56V34.1818H250.195V56H244.144ZM264.975 56.4261C262.731 56.4261 260.799 55.9716 259.18 55.0625C257.57 54.1439 256.329 52.8466 255.458 51.1705C254.587 49.4848 254.151 47.4915 254.151 45.1903C254.151 42.946 254.587 40.9763 255.458 39.2812C256.329 37.5862 257.556 36.2652 259.137 35.3182C260.728 34.3712 262.594 33.8977 264.734 33.8977C266.173 33.8977 267.513 34.1297 268.754 34.5938C270.004 35.0483 271.093 35.7348 272.021 36.6534C272.958 37.572 273.687 38.7273 274.208 40.1193C274.729 41.5019 274.989 43.1212 274.989 44.9773V46.6392H256.566V42.8892H269.293C269.293 42.018 269.104 41.2462 268.725 40.5739C268.346 39.9015 267.821 39.3759 267.148 38.9972C266.486 38.6089 265.714 38.4148 264.833 38.4148C263.915 38.4148 263.1 38.6278 262.39 39.054C261.689 39.4706 261.14 40.0341 260.742 40.7443C260.344 41.4451 260.141 42.2263 260.131 43.0881V46.6534C260.131 47.733 260.33 48.6657 260.728 49.4517C261.135 50.2377 261.708 50.8438 262.447 51.2699C263.185 51.696 264.061 51.9091 265.075 51.9091C265.747 51.9091 266.362 51.8144 266.921 51.625C267.48 51.4356 267.958 51.1515 268.356 50.7727C268.754 50.3939 269.057 49.9299 269.265 49.3807L274.862 49.75C274.577 51.0947 273.995 52.2689 273.114 53.2727C272.243 54.267 271.116 55.0436 269.734 55.6023C268.361 56.1515 266.774 56.4261 264.975 56.4261ZM298.054 56.4261C295.848 56.4261 293.939 55.9574 292.33 55.0199C290.729 54.0729 289.493 52.7566 288.622 51.071C287.751 49.3759 287.315 47.411 287.315 45.1761C287.315 42.9223 287.751 40.9527 288.622 39.267C289.493 37.572 290.729 36.2557 292.33 35.3182C293.939 34.3712 295.848 33.8977 298.054 33.8977C300.26 33.8977 302.164 34.3712 303.764 35.3182C305.374 36.2557 306.615 37.572 307.486 39.267C308.357 40.9527 308.793 42.9223 308.793 45.1761C308.793 47.411 308.357 49.3759 307.486 51.071C306.615 52.7566 305.374 54.0729 303.764 55.0199C302.164 55.9574 300.26 56.4261 298.054 56.4261ZM298.082 51.7386C299.086 51.7386 299.924 51.4545 300.597 50.8864C301.269 50.3087 301.776 49.5227 302.116 48.5284C302.467 47.5341 302.642 46.4025 302.642 45.1335C302.642 43.8646 302.467 42.733 302.116 41.7386C301.776 40.7443 301.269 39.9583 300.597 39.3807C299.924 38.803 299.086 38.5142 298.082 38.5142C297.069 38.5142 296.217 38.803 295.526 39.3807C294.844 39.9583 294.328 40.7443 293.977 41.7386C293.636 42.733 293.466 43.8646 293.466 45.1335C293.466 46.4025 293.636 47.5341 293.977 48.5284C294.328 49.5227 294.844 50.3087 295.526 50.8864C296.217 51.4545 297.069 51.7386 298.082 51.7386ZM312.727 56V34.1818H318.778V42.6477H320.483L326.42 34.1818H333.523L325.81 45.0057L333.608 56H326.42L321.037 48.2585H318.778V56H312.727ZM351.349 42.6761V47.4347H339.957V42.6761H351.349ZM341.946 34.1818V56H336.165V34.1818H341.946ZM355.142 34.1818V56H349.403V34.1818H355.142ZM366.058 56.4119C364.666 56.4119 363.426 56.1705 362.337 55.6875C361.248 55.1951 360.386 54.4706 359.751 53.5142C359.126 52.5483 358.814 51.3456 358.814 49.9062C358.814 48.6941 359.036 47.6761 359.482 46.8523C359.927 46.0284 360.533 45.3655 361.3 44.8636C362.067 44.3617 362.938 43.983 363.913 43.7273C364.898 43.4716 365.93 43.2917 367.01 43.1875C368.279 43.0549 369.302 42.9318 370.078 42.8182C370.855 42.6951 371.418 42.5152 371.768 42.2784C372.119 42.0417 372.294 41.6913 372.294 41.2273V41.142C372.294 40.2424 372.01 39.5464 371.442 39.054C370.883 38.5616 370.088 38.3153 369.055 38.3153C367.966 38.3153 367.1 38.5568 366.456 39.0398C365.812 39.5133 365.386 40.1098 365.178 40.8295L359.581 40.375C359.865 39.0492 360.424 37.9034 361.257 36.9375C362.09 35.9621 363.165 35.214 364.482 34.6932C365.807 34.1629 367.341 33.8977 369.084 33.8977C370.296 33.8977 371.456 34.0398 372.564 34.3239C373.681 34.608 374.671 35.0483 375.533 35.6449C376.404 36.2415 377.09 37.0085 377.592 37.946C378.094 38.8741 378.345 39.9867 378.345 41.2841V56H372.607V52.9744H372.436C372.086 53.6562 371.617 54.2576 371.03 54.7784C370.443 55.2898 369.737 55.6922 368.913 55.9858C368.089 56.2699 367.138 56.4119 366.058 56.4119ZM367.791 52.2358C368.681 52.2358 369.467 52.0606 370.149 51.7102C370.831 51.3504 371.366 50.8674 371.754 50.2614C372.143 49.6553 372.337 48.9687 372.337 48.2017V45.8864C372.147 46.0095 371.887 46.1231 371.555 46.2273C371.233 46.322 370.869 46.4119 370.462 46.4972C370.054 46.5729 369.647 46.6439 369.24 46.7102C368.833 46.767 368.464 46.8191 368.132 46.8665C367.422 46.9706 366.802 47.1364 366.271 47.3636C365.741 47.5909 365.329 47.8987 365.036 48.2869C364.742 48.6657 364.595 49.1392 364.595 49.7074C364.595 50.5312 364.893 51.161 365.49 51.5966C366.096 52.0227 366.863 52.2358 367.791 52.2358Z" fill="white"/>
<defs>
<filter id="filter0_b_10_1656" x="-29.2472" y="-28.3981" width="459.428" height="140.36" filterUnits="userSpaceOnUse" color-interpolation-filters="sRGB">
<feFlood flood-opacity="0" result="BackgroundImageFix"/>
<feGaussianBlur in="BackgroundImageFix" stdDeviation="14.6424"/>
<feComposite in2="SourceAlpha" operator="in" result="effect1_backgroundBlur_10_1656"/>
<feBlend mode="normal" in="SourceGraphic" in2="effect1_backgroundBlur_10_1656" result="shape"/>
</filter>
</defs>
</svg>
