<svg width="244" height="83" viewBox="0 0 244 83" fill="none" xmlns="http://www.w3.org/2000/svg">
<path d="M26.3135 31.3575C-0.304694 49.1028 35.324 55.3619 17.1042 82.2956" stroke="white" stroke-width="1.58431" stroke-dasharray="1.58 1.58"/>
<g filter="url(#filter0_b_8_1650)">
<rect x="25.2037" y="0.953125" width="218.717" height="33.7395" rx="16.8697" transform="rotate(-0.113413 25.2037 0.953125)" fill="#27395C" fill-opacity="0.68"/>
</g>
<path d="M35.2965 11.3376H37.5236V17.9775H37.6112L42.1736 11.3376H44.1274V21.8955H41.8952V15.2504H41.8179L37.2297 21.8955H35.2965V11.3376ZM51.4414 17.0599V18.7869H47.3069V17.0599H51.4414ZM48.0286 13.9771V21.8955H45.9305V13.9771H48.0286ZM52.8178 13.9771V21.8955H50.7351V13.9771H52.8178ZM53.7264 15.7041V13.9771H60.9025V15.7041H58.3507V21.8955H56.2576V15.7041H53.7264ZM65.5589 22.0502C64.7444 22.0502 64.0433 21.8852 63.4556 21.5553C62.8714 21.2219 62.4211 20.751 62.1049 20.1427C61.7888 19.531 61.6307 18.8075 61.6307 17.9724C61.6307 17.1579 61.7888 16.443 62.1049 15.8278C62.4211 15.2126 62.8662 14.7332 63.4401 14.3895C64.0175 14.0458 64.6946 13.874 65.4713 13.874C65.9937 13.874 66.48 13.9582 66.9302 14.1266C67.3839 14.2916 67.7791 14.5407 68.1159 14.8741C68.4562 15.2075 68.7208 15.6268 68.9098 16.132C69.0989 16.6338 69.1934 17.2214 69.1934 17.8951V18.4982H62.5071V17.1372H67.1261C67.1261 16.8211 67.0574 16.541 66.9199 16.2969C66.7824 16.0529 66.5917 15.8622 66.3477 15.7247C66.1071 15.5838 65.827 15.5134 65.5074 15.5134C65.174 15.5134 64.8785 15.5907 64.6207 15.7453C64.3664 15.8966 64.167 16.101 64.0227 16.3588C63.8783 16.6131 63.8044 16.8967 63.801 17.2094V18.5034C63.801 18.8952 63.8732 19.2337 64.0175 19.519C64.1653 19.8042 64.3732 20.0242 64.6413 20.1788C64.9094 20.3335 65.2273 20.4108 65.595 20.4108C65.839 20.4108 66.0624 20.3764 66.2652 20.3077C66.468 20.239 66.6415 20.1359 66.7859 19.9984C66.9302 19.8609 67.0402 19.6925 67.1158 19.4932L69.147 19.6272C69.0439 20.1152 68.8325 20.5414 68.5129 20.9057C68.1967 21.2666 67.7877 21.5484 67.2859 21.7512C66.7876 21.9505 66.2119 22.0502 65.5589 22.0502ZM70.6265 24.8649V13.9771H72.7917V15.3071H72.8897C72.9859 15.0941 73.1251 14.8775 73.3072 14.6576C73.4928 14.4342 73.7334 14.2486 74.029 14.1008C74.328 13.9496 74.6991 13.874 75.1425 13.874C75.7199 13.874 76.2526 14.0252 76.7406 14.3277C77.2286 14.6267 77.6187 15.0786 77.9108 15.6835C78.203 16.2849 78.349 17.0393 78.349 17.9466C78.349 18.8299 78.2064 19.5757 77.9211 20.184C77.6393 20.7889 77.2544 21.2477 76.7664 21.5604C76.2818 21.8697 75.7388 22.0244 75.1373 22.0244C74.7112 22.0244 74.3486 21.9539 74.0496 21.813C73.754 21.6721 73.5117 21.4951 73.3227 21.282C73.1337 21.0655 72.9893 20.8473 72.8897 20.6273H72.8226V24.8649H70.6265ZM72.7762 17.9363C72.7762 18.4071 72.8415 18.8178 72.9721 19.1684C73.1027 19.519 73.2918 19.7922 73.5392 19.9881C73.7867 20.1805 74.0874 20.2768 74.4414 20.2768C74.7988 20.2768 75.1012 20.1788 75.3487 19.9829C75.5961 19.7836 75.7835 19.5086 75.9106 19.1581C76.0412 18.8041 76.1065 18.3968 76.1065 17.9363C76.1065 17.4792 76.0429 17.0771 75.9158 16.73C75.7886 16.3829 75.6013 16.1114 75.3538 15.9155C75.1064 15.7196 74.8022 15.6216 74.4414 15.6216C74.0839 15.6216 73.7815 15.7161 73.5341 15.9051C73.29 16.0942 73.1027 16.3622 72.9721 16.7094C72.8415 17.0565 72.7762 17.4655 72.7762 17.9363ZM81.1896 16.4104H83.5558C84.604 16.4104 85.422 16.6612 86.0097 17.163C86.5974 17.6614 86.8912 18.3281 86.8912 19.1632C86.8912 19.7063 86.7589 20.184 86.4943 20.5964C86.2296 21.0054 85.8482 21.325 85.3498 21.5553C84.8515 21.7821 84.2535 21.8955 83.5558 21.8955H79.8131V13.9771H81.9113V20.1685H83.5558C83.9235 20.1685 84.226 20.0757 84.4631 19.8901C84.7003 19.7045 84.8205 19.4674 84.824 19.1787C84.8205 18.8728 84.7003 18.6237 84.4631 18.4312C84.226 18.2353 83.9235 18.1374 83.5558 18.1374H81.1896V16.4104ZM91.9562 22.0502C91.1417 22.0502 90.4406 21.8852 89.8529 21.5553C89.2686 21.2219 88.8184 20.751 88.5022 20.1427C88.186 19.531 88.028 18.8075 88.028 17.9724C88.028 17.1579 88.186 16.443 88.5022 15.8278C88.8184 15.2126 89.2635 14.7332 89.8374 14.3895C90.4148 14.0458 91.0919 13.874 91.8686 13.874C92.391 13.874 92.8773 13.9582 93.3275 14.1266C93.7812 14.2916 94.1764 14.5407 94.5132 14.8741C94.8535 15.2075 95.1181 15.6268 95.3071 16.132C95.4961 16.6338 95.5907 17.2214 95.5907 17.8951V18.4982H88.9043V17.1372H93.5234C93.5234 16.8211 93.4547 16.541 93.3172 16.2969C93.1797 16.0529 92.989 15.8622 92.745 15.7247C92.5044 15.5838 92.2243 15.5134 91.9047 15.5134C91.5713 15.5134 91.2757 15.5907 91.018 15.7453C90.7637 15.8966 90.5643 16.101 90.42 16.3588C90.2756 16.6131 90.2017 16.8967 90.1983 17.2094V18.5034C90.1983 18.8952 90.2705 19.2337 90.4148 19.519C90.5626 19.8042 90.7705 20.0242 91.0386 20.1788C91.3067 20.3335 91.6246 20.4108 91.9923 20.4108C92.2363 20.4108 92.4597 20.3764 92.6625 20.3077C92.8653 20.239 93.0388 20.1359 93.1832 19.9984C93.3275 19.8609 93.4375 19.6925 93.5131 19.4932L95.5443 19.6272C95.4412 20.1152 95.2298 20.5414 94.9102 20.9057C94.594 21.2666 94.185 21.5484 93.6832 21.7512C93.1849 21.9505 92.6092 22.0502 91.9562 22.0502ZM97.0238 24.8649V13.9771H99.189V15.3071H99.2869C99.3832 15.0941 99.5224 14.8775 99.7045 14.6576C99.8901 14.4342 100.131 14.2486 100.426 14.1008C100.725 13.9496 101.096 13.874 101.54 13.874C102.117 13.874 102.65 14.0252 103.138 14.3277C103.626 14.6267 104.016 15.0786 104.308 15.6835C104.6 16.2849 104.746 17.0393 104.746 17.9466C104.746 18.8299 104.604 19.5757 104.318 20.184C104.037 20.7889 103.652 21.2477 103.164 21.5604C102.679 21.8697 102.136 22.0244 101.535 22.0244C101.108 22.0244 100.746 21.9539 100.447 21.813C100.151 21.6721 99.909 21.4951 99.72 21.282C99.531 21.0655 99.3866 20.8473 99.2869 20.6273H99.2199V24.8649H97.0238ZM99.1735 17.9363C99.1735 18.4071 99.2388 18.8178 99.3694 19.1684C99.5 19.519 99.689 19.7922 99.9365 19.9881C100.184 20.1805 100.485 20.2768 100.839 20.2768C101.196 20.2768 101.499 20.1788 101.746 19.9829C101.993 19.7836 102.181 19.5086 102.308 19.1581C102.438 18.8041 102.504 18.3968 102.504 17.9363C102.504 17.4792 102.44 17.0771 102.313 16.73C102.186 16.3829 101.999 16.1114 101.751 15.9155C101.504 15.7196 101.2 15.6216 100.839 15.6216C100.481 15.6216 100.179 15.7161 99.9313 15.9051C99.6873 16.0942 99.5 16.3622 99.3694 16.7094C99.2388 17.0565 99.1735 17.4655 99.1735 17.9363ZM111.721 17.0599V18.7869H107.587V17.0599H111.721ZM108.309 13.9771V21.8955H106.21V13.9771H108.309ZM113.098 13.9771V21.8955H111.015V13.9771H113.098ZM116.178 16.4104H118.544C119.592 16.4104 120.41 16.6612 120.998 17.163C121.586 17.6614 121.88 18.3281 121.88 19.1632C121.88 19.7063 121.747 20.184 121.483 20.5964C121.218 21.0054 120.837 21.325 120.338 21.5553C119.84 21.7821 119.242 21.8955 118.544 21.8955H114.802V13.9771H116.9V20.1685H118.544C118.912 20.1685 119.214 20.0757 119.452 19.8901C119.689 19.7045 119.809 19.4674 119.812 19.1787C119.809 18.8728 119.689 18.6237 119.452 18.4312C119.214 18.2353 118.912 18.1374 118.544 18.1374H116.178V16.4104ZM122.73 21.8955V13.9771H124.926V21.8955H122.73ZM130.29 22.0502C129.476 22.0502 128.775 21.8852 128.187 21.5553C127.603 21.2219 127.153 20.751 126.836 20.1427C126.52 19.531 126.362 18.8075 126.362 17.9724C126.362 17.1579 126.52 16.443 126.836 15.8278C127.153 15.2126 127.598 14.7332 128.172 14.3895C128.749 14.0458 129.426 13.874 130.203 13.874C130.725 13.874 131.211 13.9582 131.662 14.1266C132.115 14.2916 132.511 14.5407 132.847 14.8741C133.188 15.2075 133.452 15.6268 133.641 16.132C133.83 16.6338 133.925 17.2214 133.925 17.8951V18.4982H127.239V17.1372H131.858C131.858 16.8211 131.789 16.541 131.651 16.2969C131.514 16.0529 131.323 15.8622 131.079 15.7247C130.839 15.5838 130.558 15.5134 130.239 15.5134C129.905 15.5134 129.61 15.5907 129.352 15.7453C129.098 15.8966 128.899 16.101 128.754 16.3588C128.61 16.6131 128.536 16.8967 128.532 17.2094V18.5034C128.532 18.8952 128.605 19.2337 128.749 19.519C128.897 19.8042 129.105 20.0242 129.373 20.1788C129.641 20.3335 129.959 20.4108 130.326 20.4108C130.571 20.4108 130.794 20.3764 130.997 20.3077C131.199 20.239 131.373 20.1359 131.517 19.9984C131.662 19.8609 131.772 19.6925 131.847 19.4932L133.878 19.6272C133.775 20.1152 133.564 20.5414 133.244 20.9057C132.928 21.2666 132.519 21.5484 132.017 21.7512C131.519 21.9505 130.943 22.0502 130.29 22.0502ZM138.718 21.8955V13.9771H145.641V21.8955H143.543V15.7041H140.79V21.8955H138.718ZM151.003 22.0502C150.188 22.0502 149.487 21.8852 148.899 21.5553C148.315 21.2219 147.865 20.751 147.549 20.1427C147.233 19.531 147.075 18.8075 147.075 17.9724C147.075 17.1579 147.233 16.443 147.549 15.8278C147.865 15.2126 148.31 14.7332 148.884 14.3895C149.461 14.0458 150.138 13.874 150.915 13.874C151.438 13.874 151.924 13.9582 152.374 14.1266C152.828 14.2916 153.223 14.5407 153.56 14.8741C153.9 15.2075 154.165 15.6268 154.354 16.132C154.543 16.6338 154.637 17.2214 154.637 17.8951V18.4982H147.951V17.1372H152.57C152.57 16.8211 152.501 16.541 152.364 16.2969C152.226 16.0529 152.036 15.8622 151.792 15.7247C151.551 15.5838 151.271 15.5134 150.951 15.5134C150.618 15.5134 150.322 15.5907 150.065 15.7453C149.81 15.8966 149.611 16.101 149.467 16.3588C149.322 16.6131 149.248 16.8967 149.245 17.2094V18.5034C149.245 18.8952 149.317 19.2337 149.461 19.519C149.609 19.8042 149.817 20.0242 150.085 20.1788C150.353 20.3335 150.671 20.4108 151.039 20.4108C151.283 20.4108 151.506 20.3764 151.709 20.3077C151.912 20.239 152.085 20.1359 152.23 19.9984C152.374 19.8609 152.484 19.6925 152.56 19.4932L154.591 19.6272C154.488 20.1152 154.276 20.5414 153.957 20.9057C153.641 21.2666 153.232 21.5484 152.73 21.7512C152.231 21.9505 151.656 22.0502 151.003 22.0502ZM156.07 24.8649V13.9771H158.236V15.3071H158.333C158.43 15.0941 158.569 14.8775 158.751 14.6576C158.937 14.4342 159.177 14.2486 159.473 14.1008C159.772 13.9496 160.143 13.874 160.586 13.874C161.164 13.874 161.696 14.0252 162.184 14.3277C162.672 14.6267 163.063 15.0786 163.355 15.6835C163.647 16.2849 163.793 17.0393 163.793 17.9466C163.793 18.8299 163.65 19.5757 163.365 20.184C163.083 20.7889 162.698 21.2477 162.21 21.5604C161.726 21.8697 161.183 22.0244 160.581 22.0244C160.155 22.0244 159.792 21.9539 159.493 21.813C159.198 21.6721 158.956 21.4951 158.767 21.282C158.578 21.0655 158.433 20.8473 158.333 20.6273H158.266V24.8649H156.07ZM158.22 17.9363C158.22 18.4071 158.285 18.8178 158.416 19.1684C158.547 19.519 158.736 19.7922 158.983 19.9881C159.231 20.1805 159.531 20.2768 159.885 20.2768C160.243 20.2768 160.545 20.1788 160.793 19.9829C161.04 19.7836 161.227 19.5086 161.354 19.1581C161.485 18.8041 161.55 18.3968 161.55 17.9363C161.55 17.4792 161.487 17.0771 161.36 16.73C161.232 16.3829 161.045 16.1114 160.798 15.9155C160.55 15.7196 160.246 15.6216 159.885 15.6216C159.528 15.6216 159.225 15.7161 158.978 15.9051C158.734 16.0942 158.547 16.3622 158.416 16.7094C158.285 17.0565 158.22 17.4655 158.22 17.9363ZM168.866 22.0502C168.051 22.0502 167.35 21.8852 166.762 21.5553C166.178 21.2219 165.728 20.751 165.412 20.1427C165.095 19.531 164.937 18.8075 164.937 17.9724C164.937 17.1579 165.095 16.443 165.412 15.8278C165.728 15.2126 166.173 14.7332 166.747 14.3895C167.324 14.0458 168.001 13.874 168.778 13.874C169.3 13.874 169.787 13.9582 170.237 14.1266C170.691 14.2916 171.086 14.5407 171.423 14.8741C171.763 15.2075 172.027 15.6268 172.216 16.132C172.406 16.6338 172.5 17.2214 172.5 17.8951V18.4982H165.814V17.1372H170.433C170.433 16.8211 170.364 16.541 170.227 16.2969C170.089 16.0529 169.898 15.8622 169.654 15.7247C169.414 15.5838 169.134 15.5134 168.814 15.5134C168.481 15.5134 168.185 15.5907 167.927 15.7453C167.673 15.8966 167.474 16.101 167.329 16.3588C167.185 16.6131 167.111 16.8967 167.108 17.2094V18.5034C167.108 18.8952 167.18 19.2337 167.324 19.519C167.472 19.8042 167.68 20.0242 167.948 20.1788C168.216 20.3335 168.534 20.4108 168.902 20.4108C169.146 20.4108 169.369 20.3764 169.572 20.3077C169.775 20.239 169.948 20.1359 170.093 19.9984C170.237 19.8609 170.347 19.6925 170.422 19.4932L172.454 19.6272C172.351 20.1152 172.139 20.5414 171.82 20.9057C171.503 21.2666 171.094 21.5484 170.593 21.7512C170.094 21.9505 169.519 22.0502 168.866 22.0502ZM179.356 13.9771V15.7041H176.067V21.8955H173.933V13.9771H179.356ZM183.99 22.0502C183.189 22.0502 182.496 21.88 181.912 21.5398C181.331 21.1961 180.883 20.7184 180.567 20.1066C180.25 19.4915 180.092 18.7783 180.092 17.9672C180.092 17.1493 180.25 16.4344 180.567 15.8227C180.883 15.2075 181.331 14.7298 181.912 14.3895C182.496 14.0458 183.189 13.874 183.99 13.874C184.79 13.874 185.481 14.0458 186.062 14.3895C186.646 14.7298 187.097 15.2075 187.413 15.8227C187.729 16.4344 187.887 17.1493 187.887 17.9672C187.887 18.7783 187.729 19.4915 187.413 20.1066C187.097 20.7184 186.646 21.1961 186.062 21.5398C185.481 21.88 184.79 22.0502 183.99 22.0502ZM184 20.3489C184.364 20.3489 184.668 20.2458 184.913 20.0396C185.157 19.83 185.34 19.5447 185.464 19.1839C185.591 18.823 185.655 18.4123 185.655 17.9518C185.655 17.4912 185.591 17.0805 185.464 16.7197C185.34 16.3588 185.157 16.0736 184.913 15.8639C184.668 15.6543 184.364 15.5494 184 15.5494C183.632 15.5494 183.323 15.6543 183.072 15.8639C182.825 16.0736 182.637 16.3588 182.51 16.7197C182.386 17.0805 182.325 17.4912 182.325 17.9518C182.325 18.4123 182.386 18.823 182.51 19.1839C182.637 19.5447 182.825 19.83 183.072 20.0396C183.323 20.2458 183.632 20.3489 184 20.3489ZM189.315 24.8649V13.9771H191.48V15.3071H191.578C191.674 15.0941 191.814 14.8775 191.996 14.6576C192.181 14.4342 192.422 14.2486 192.718 14.1008C193.017 13.9496 193.388 13.874 193.831 13.874C194.408 13.874 194.941 14.0252 195.429 14.3277C195.917 14.6267 196.307 15.0786 196.599 15.6835C196.892 16.2849 197.038 17.0393 197.038 17.9466C197.038 18.8299 196.895 19.5757 196.61 20.184C196.328 20.7889 195.943 21.2477 195.455 21.5604C194.97 21.8697 194.427 22.0244 193.826 22.0244C193.4 22.0244 193.037 21.9539 192.738 21.813C192.443 21.6721 192.2 21.4951 192.011 21.282C191.822 21.0655 191.678 20.8473 191.578 20.6273H191.511V24.8649H189.315ZM191.465 17.9363C191.465 18.4071 191.53 18.8178 191.661 19.1684C191.791 19.519 191.98 19.7922 192.228 19.9881C192.475 20.1805 192.776 20.2768 193.13 20.2768C193.487 20.2768 193.79 20.1788 194.037 19.9829C194.285 19.7836 194.472 19.5086 194.599 19.1581C194.73 18.8041 194.795 18.3968 194.795 17.9363C194.795 17.4792 194.731 17.0771 194.604 16.73C194.477 16.3829 194.29 16.1114 194.042 15.9155C193.795 15.7196 193.491 15.6216 193.13 15.6216C192.772 15.6216 192.47 15.7161 192.223 15.9051C191.979 16.0942 191.791 16.3622 191.661 16.7094C191.53 17.0565 191.465 17.4655 191.465 17.9363ZM202.079 22.0502C201.279 22.0502 200.586 21.88 200.002 21.5398C199.421 21.1961 198.972 20.7184 198.656 20.1066C198.34 19.4915 198.182 18.7783 198.182 17.9672C198.182 17.1493 198.34 16.4344 198.656 15.8227C198.972 15.2075 199.421 14.7298 200.002 14.3895C200.586 14.0458 201.279 13.874 202.079 13.874C202.88 13.874 203.571 14.0458 204.152 14.3895C204.736 14.7298 205.186 15.2075 205.502 15.8227C205.819 16.4344 205.977 17.1493 205.977 17.9672C205.977 18.7783 205.819 19.4915 205.502 20.1066C205.186 20.7184 204.736 21.1961 204.152 21.5398C203.571 21.88 202.88 22.0502 202.079 22.0502ZM202.09 20.3489C202.454 20.3489 202.758 20.2458 203.002 20.0396C203.246 19.83 203.43 19.5447 203.554 19.1839C203.681 18.823 203.745 18.4123 203.745 17.9518C203.745 17.4912 203.681 17.0805 203.554 16.7197C203.43 16.3588 203.246 16.0736 203.002 15.8639C202.758 15.6543 202.454 15.5494 202.09 15.5494C201.722 15.5494 201.413 15.6543 201.162 15.8639C200.914 16.0736 200.727 16.3588 200.6 16.7197C200.476 17.0805 200.414 17.4912 200.414 17.9518C200.414 18.4123 200.476 18.823 200.6 19.1839C200.727 19.5447 200.914 19.83 201.162 20.0396C201.413 20.2458 201.722 20.3489 202.09 20.3489ZM206.786 24.2154V20.153H207.394C207.57 20.0431 207.711 19.8678 207.817 19.6272C207.927 19.3866 208.016 19.1031 208.085 18.7766C208.157 18.4501 208.212 18.0978 208.25 17.7198C208.291 17.3383 208.327 16.9534 208.358 16.565L208.565 13.9771H214.637V20.153H215.864V24.2154H213.771V21.8955H208.931V24.2154H206.786ZM209.58 20.153H212.565V15.668H210.431L210.348 16.565C210.29 17.4105 210.206 18.1288 210.096 18.7199C209.986 19.3076 209.814 19.7853 209.58 20.153ZM217.144 21.8955V13.9771H219.34V17.0496H219.959L222.114 13.9771H224.691L221.892 17.9054L224.722 21.8955H222.114L220.16 19.0859H219.34V21.8955H217.144ZM227.748 18.9983L230.599 13.9771H232.765V21.8955H230.671V16.8589L227.831 21.8955H225.65V13.9771H227.748V18.9983Z" fill="white"/>
<defs>
<filter id="filter0_b_8_1650" x="9.64817" y="-15.0352" width="249.894" height="65.2833" filterUnits="userSpaceOnUse" color-interpolation-filters="sRGB">
<feFlood flood-opacity="0" result="BackgroundImageFix"/>
<feGaussianBlur in="BackgroundImageFix" stdDeviation="7.79445"/>
<feComposite in2="SourceAlpha" operator="in" result="effect1_backgroundBlur_8_1650"/>
<feBlend mode="normal" in="SourceGraphic" in2="effect1_backgroundBlur_8_1650" result="shape"/>
</filter>
</defs>
</svg>
