<svg width="596" height="161" viewBox="0 0 596 161" fill="none" xmlns="http://www.w3.org/2000/svg">
<path d="M192.054 159.734C220.515 114.339 126.497 107.002 144.998 57.002" stroke="white" stroke-width="2.65347" stroke-dasharray="2.65 2.65"/>
<g filter="url(#filter0_b_10_1657)">
<rect x="0.0898438" y="1.73047" width="595.242" height="80.0554" rx="19" transform="rotate(-0.113413 0.0898438 1.73047)" fill="#27395C" fill-opacity="0.48"/>
</g>
<path d="M24.5284 25.9091H30.6648V44.2045H30.9062L43.4773 25.9091H48.8608V55H42.7102V36.6903H42.4972L29.8551 55H24.5284V25.9091ZM69.0135 41.6761V46.4347H57.6214V41.6761H69.0135ZM59.6101 33.1818V55H53.8288V33.1818H59.6101ZM72.8061 33.1818V55H67.0675V33.1818H72.8061ZM75.3097 37.9403V33.1818H95.0824V37.9403H88.0511V55H82.2841V37.9403H75.3097ZM107.913 55.4261C105.668 55.4261 103.737 54.9716 102.117 54.0625C100.507 53.1439 99.2668 51.8466 98.3956 50.1705C97.5244 48.4848 97.0888 46.4915 97.0888 44.1903C97.0888 41.946 97.5244 39.9763 98.3956 38.2812C99.2668 36.5862 100.493 35.2652 102.075 34.3182C103.665 33.3712 105.531 32.8977 107.671 32.8977C109.111 32.8977 110.451 33.1297 111.691 33.5938C112.941 34.0483 114.03 34.7348 114.958 35.6534C115.896 36.572 116.625 37.7273 117.146 39.1193C117.666 40.5019 117.927 42.1212 117.927 43.9773V45.6392H99.5036V41.8892H112.231C112.231 41.018 112.041 40.2462 111.663 39.5739C111.284 38.9015 110.758 38.3759 110.086 37.9972C109.423 37.6089 108.651 37.4148 107.771 37.4148C106.852 37.4148 106.038 37.6278 105.327 38.054C104.627 38.4706 104.077 39.0341 103.68 39.7443C103.282 40.4451 103.078 41.2263 103.069 42.0881V45.6534C103.069 46.733 103.268 47.6657 103.665 48.4517C104.073 49.2377 104.646 49.8438 105.384 50.2699C106.123 50.696 106.999 50.9091 108.012 50.9091C108.684 50.9091 109.3 50.8144 109.859 50.625C110.417 50.4356 110.896 50.1515 111.293 49.7727C111.691 49.3939 111.994 48.9299 112.202 48.3807L117.799 48.75C117.515 50.0947 116.933 51.2689 116.052 52.2727C115.181 53.267 114.054 54.0436 112.671 54.6023C111.298 55.1515 109.712 55.4261 107.913 55.4261ZM121.876 63.1818V33.1818H127.842V36.8466H128.112C128.377 36.2595 128.76 35.6629 129.262 35.0568C129.773 34.4413 130.436 33.9299 131.251 33.5227C132.075 33.1061 133.097 32.8977 134.319 32.8977C135.91 32.8977 137.378 33.3144 138.722 34.1477C140.067 34.9716 141.142 36.2169 141.947 37.8835C142.752 39.5407 143.154 41.6193 143.154 44.1193C143.154 46.553 142.761 48.608 141.975 50.2841C141.199 51.9508 140.138 53.215 138.793 54.0767C137.458 54.929 135.962 55.3551 134.305 55.3551C133.13 55.3551 132.131 55.161 131.308 54.7727C130.493 54.3845 129.826 53.8968 129.305 53.3097C128.784 52.7131 128.386 52.1117 128.112 51.5057H127.927V63.1818H121.876ZM127.799 44.0909C127.799 45.3883 127.979 46.5199 128.339 47.4858C128.699 48.4517 129.219 49.2045 129.901 49.7443C130.583 50.2746 131.412 50.5398 132.387 50.5398C133.372 50.5398 134.205 50.2699 134.887 49.7301C135.569 49.1809 136.085 48.4233 136.435 47.4574C136.795 46.482 136.975 45.3598 136.975 44.0909C136.975 42.8314 136.8 41.7235 136.45 40.767C136.099 39.8106 135.583 39.0625 134.901 38.5227C134.219 37.983 133.381 37.7131 132.387 37.7131C131.402 37.7131 130.569 37.9735 129.887 38.4943C129.215 39.0152 128.699 39.7538 128.339 40.7102C127.979 41.6667 127.799 42.7936 127.799 44.0909ZM150.981 39.8864H157.501C160.389 39.8864 162.643 40.5777 164.262 41.9602C165.881 43.3333 166.691 45.1705 166.691 47.4716C166.691 48.9678 166.326 50.2841 165.597 51.4205C164.868 52.5473 163.817 53.428 162.444 54.0625C161.071 54.6875 159.423 55 157.501 55H147.188V33.1818H152.969V50.2415H157.501C158.514 50.2415 159.347 49.9858 160.001 49.4744C160.654 48.9631 160.986 48.3097 160.995 47.5142C160.986 46.6714 160.654 45.9848 160.001 45.4545C159.347 44.9148 158.514 44.6449 157.501 44.6449H150.981V39.8864ZM180.647 55.4261C178.403 55.4261 176.471 54.9716 174.852 54.0625C173.242 53.1439 172.001 51.8466 171.13 50.1705C170.259 48.4848 169.823 46.4915 169.823 44.1903C169.823 41.946 170.259 39.9763 171.13 38.2812C172.001 36.5862 173.228 35.2652 174.809 34.3182C176.4 33.3712 178.265 32.8977 180.406 32.8977C181.845 32.8977 183.185 33.1297 184.425 33.5938C185.675 34.0483 186.764 34.7348 187.692 35.6534C188.63 36.572 189.359 37.7273 189.88 39.1193C190.401 40.5019 190.661 42.1212 190.661 43.9773V45.6392H172.238V41.8892H184.965C184.965 41.018 184.776 40.2462 184.397 39.5739C184.018 38.9015 183.493 38.3759 182.82 37.9972C182.157 37.6089 181.386 37.4148 180.505 37.4148C179.586 37.4148 178.772 37.6278 178.062 38.054C177.361 38.4706 176.812 39.0341 176.414 39.7443C176.016 40.4451 175.813 41.2263 175.803 42.0881V45.6534C175.803 46.733 176.002 47.6657 176.4 48.4517C176.807 49.2377 177.38 49.8438 178.119 50.2699C178.857 50.696 179.733 50.9091 180.746 50.9091C181.419 50.9091 182.034 50.8144 182.593 50.625C183.152 50.4356 183.63 50.1515 184.028 49.7727C184.425 49.3939 184.728 48.9299 184.937 48.3807L190.533 48.75C190.249 50.0947 189.667 51.2689 188.786 52.2727C187.915 53.267 186.788 54.0436 185.406 54.6023C184.032 55.1515 182.446 55.4261 180.647 55.4261ZM194.61 63.1818V33.1818H200.576V36.8466H200.846C201.111 36.2595 201.495 35.6629 201.996 35.0568C202.508 34.4413 203.171 33.9299 203.985 33.5227C204.809 33.1061 205.832 32.8977 207.053 32.8977C208.644 32.8977 210.112 33.3144 211.457 34.1477C212.801 34.9716 213.876 36.2169 214.681 37.8835C215.486 39.5407 215.888 41.6193 215.888 44.1193C215.888 46.553 215.496 48.608 214.71 50.2841C213.933 51.9508 212.872 53.215 211.528 54.0767C210.192 54.929 208.696 55.3551 207.039 55.3551C205.865 55.3551 204.866 55.161 204.042 54.7727C203.228 54.3845 202.56 53.8968 202.039 53.3097C201.518 52.7131 201.121 52.1117 200.846 51.5057H200.661V63.1818H194.61ZM200.533 44.0909C200.533 45.3883 200.713 46.5199 201.073 47.4858C201.433 48.4517 201.954 49.2045 202.636 49.7443C203.317 50.2746 204.146 50.5398 205.121 50.5398C206.106 50.5398 206.94 50.2699 207.621 49.7301C208.303 49.1809 208.819 48.4233 209.17 47.4574C209.53 46.482 209.71 45.3598 209.71 44.0909C209.71 42.8314 209.534 41.7235 209.184 40.767C208.834 39.8106 208.317 39.0625 207.636 38.5227C206.954 37.983 206.116 37.7131 205.121 37.7131C204.137 37.7131 203.303 37.9735 202.621 38.4943C201.949 39.0152 201.433 39.7538 201.073 40.7102C200.713 41.6667 200.533 42.7936 200.533 44.0909ZM235.107 41.6761V46.4347H223.715V41.6761H235.107ZM225.704 33.1818V55H219.923V33.1818H225.704ZM238.9 33.1818V55H233.161V33.1818H238.9ZM247.387 39.8864H253.907C256.795 39.8864 259.049 40.5777 260.668 41.9602C262.288 43.3333 263.097 45.1705 263.097 47.4716C263.097 48.9678 262.733 50.2841 262.004 51.4205C261.274 52.5473 260.223 53.428 258.85 54.0625C257.477 54.6875 255.829 55 253.907 55H243.594V33.1818H249.376V50.2415H253.907C254.92 50.2415 255.754 49.9858 256.407 49.4744C257.06 48.9631 257.392 48.3097 257.401 47.5142C257.392 46.6714 257.06 45.9848 256.407 45.4545C255.754 44.9148 254.92 44.6449 253.907 44.6449H247.387V39.8864ZM265.441 55V33.1818H271.492V55H265.441ZM286.272 55.4261C284.028 55.4261 282.096 54.9716 280.477 54.0625C278.867 53.1439 277.626 51.8466 276.755 50.1705C275.884 48.4848 275.448 46.4915 275.448 44.1903C275.448 41.946 275.884 39.9763 276.755 38.2812C277.626 36.5862 278.853 35.2652 280.434 34.3182C282.025 33.3712 283.89 32.8977 286.031 32.8977C287.47 32.8977 288.81 33.1297 290.05 33.5938C291.3 34.0483 292.389 34.7348 293.317 35.6534C294.255 36.572 294.984 37.7273 295.505 39.1193C296.026 40.5019 296.286 42.1212 296.286 43.9773V45.6392H277.863V41.8892H290.59C290.59 41.018 290.401 40.2462 290.022 39.5739C289.643 38.9015 289.118 38.3759 288.445 37.9972C287.782 37.6089 287.011 37.4148 286.13 37.4148C285.211 37.4148 284.397 37.6278 283.687 38.054C282.986 38.4706 282.437 39.0341 282.039 39.7443C281.641 40.4451 281.438 41.2263 281.428 42.0881V45.6534C281.428 46.733 281.627 47.6657 282.025 48.4517C282.432 49.2377 283.005 49.8438 283.744 50.2699C284.482 50.696 285.358 50.9091 286.371 50.9091C287.044 50.9091 287.659 50.8144 288.218 50.625C288.777 50.4356 289.255 50.1515 289.653 49.7727C290.05 49.3939 290.353 48.9299 290.562 48.3807L296.158 48.75C295.874 50.0947 295.292 51.2689 294.411 52.2727C293.54 53.267 292.413 54.0436 291.031 54.6023C289.657 55.1515 288.071 55.4261 286.272 55.4261ZM309.493 55V33.1818H328.57V55H322.788V37.9403H315.203V55H309.493ZM343.342 55.4261C341.098 55.4261 339.166 54.9716 337.547 54.0625C335.937 53.1439 334.696 51.8466 333.825 50.1705C332.954 48.4848 332.518 46.4915 332.518 44.1903C332.518 41.946 332.954 39.9763 333.825 38.2812C334.696 36.5862 335.923 35.2652 337.504 34.3182C339.095 33.3712 340.961 32.8977 343.101 32.8977C344.54 32.8977 345.88 33.1297 347.121 33.5938C348.371 34.0483 349.46 34.7348 350.388 35.6534C351.325 36.572 352.054 37.7273 352.575 39.1193C353.096 40.5019 353.357 42.1212 353.357 43.9773V45.6392H334.933V41.8892H347.661C347.661 41.018 347.471 40.2462 347.092 39.5739C346.714 38.9015 346.188 38.3759 345.516 37.9972C344.853 37.6089 344.081 37.4148 343.2 37.4148C342.282 37.4148 341.467 37.6278 340.757 38.054C340.056 38.4706 339.507 39.0341 339.109 39.7443C338.712 40.4451 338.508 41.2263 338.499 42.0881V45.6534C338.499 46.733 338.697 47.6657 339.095 48.4517C339.502 49.2377 340.075 49.8438 340.814 50.2699C341.553 50.696 342.429 50.9091 343.442 50.9091C344.114 50.9091 344.73 50.8144 345.288 50.625C345.847 50.4356 346.325 50.1515 346.723 49.7727C347.121 49.3939 347.424 48.9299 347.632 48.3807L353.229 48.75C352.945 50.0947 352.362 51.2689 351.482 52.2727C350.61 53.267 349.483 54.0436 348.101 54.6023C346.728 55.1515 345.142 55.4261 343.342 55.4261ZM357.305 63.1818V33.1818H363.271V36.8466H363.541C363.806 36.2595 364.19 35.6629 364.692 35.0568C365.203 34.4413 365.866 33.9299 366.68 33.5227C367.504 33.1061 368.527 32.8977 369.749 32.8977C371.339 32.8977 372.807 33.3144 374.152 34.1477C375.497 34.9716 376.571 36.2169 377.376 37.8835C378.181 39.5407 378.584 41.6193 378.584 44.1193C378.584 46.553 378.191 48.608 377.405 50.2841C376.628 51.9508 375.568 53.215 374.223 54.0767C372.888 54.929 371.392 55.3551 369.734 55.3551C368.56 55.3551 367.561 55.161 366.737 54.7727C365.923 54.3845 365.255 53.8968 364.734 53.3097C364.214 52.7131 363.816 52.1117 363.541 51.5057H363.357V63.1818H357.305ZM363.229 44.0909C363.229 45.3883 363.409 46.5199 363.768 47.4858C364.128 48.4517 364.649 49.2045 365.331 49.7443C366.013 50.2746 366.841 50.5398 367.817 50.5398C368.802 50.5398 369.635 50.2699 370.317 49.7301C370.999 49.1809 371.515 48.4233 371.865 47.4574C372.225 46.482 372.405 45.3598 372.405 44.0909C372.405 42.8314 372.23 41.7235 371.879 40.767C371.529 39.8106 371.013 39.0625 370.331 38.5227C369.649 37.983 368.811 37.7131 367.817 37.7131C366.832 37.7131 365.999 37.9735 365.317 38.4943C364.644 39.0152 364.128 39.7538 363.768 40.7102C363.409 41.6667 363.229 42.7936 363.229 44.0909ZM392.561 55.4261C390.317 55.4261 388.385 54.9716 386.766 54.0625C385.156 53.1439 383.915 51.8466 383.044 50.1705C382.173 48.4848 381.737 46.4915 381.737 44.1903C381.737 41.946 382.173 39.9763 383.044 38.2812C383.915 36.5862 385.142 35.2652 386.723 34.3182C388.314 33.3712 390.179 32.8977 392.32 32.8977C393.759 32.8977 395.099 33.1297 396.339 33.5938C397.589 34.0483 398.679 34.7348 399.607 35.6534C400.544 36.572 401.273 37.7273 401.794 39.1193C402.315 40.5019 402.575 42.1212 402.575 43.9773V45.6392H384.152V41.8892H396.879C396.879 41.018 396.69 40.2462 396.311 39.5739C395.932 38.9015 395.407 38.3759 394.734 37.9972C394.071 37.6089 393.3 37.4148 392.419 37.4148C391.5 37.4148 390.686 37.6278 389.976 38.054C389.275 38.4706 388.726 39.0341 388.328 39.7443C387.93 40.4451 387.727 41.2263 387.717 42.0881V45.6534C387.717 46.733 387.916 47.6657 388.314 48.4517C388.721 49.2377 389.294 49.8438 390.033 50.2699C390.771 50.696 391.647 50.9091 392.661 50.9091C393.333 50.9091 393.948 50.8144 394.507 50.625C395.066 50.4356 395.544 50.1515 395.942 49.7727C396.339 49.3939 396.643 48.9299 396.851 48.3807L402.447 48.75C402.163 50.0947 401.581 51.2689 400.7 52.2727C399.829 53.267 398.702 54.0436 397.32 54.6023C395.946 55.1515 394.36 55.4261 392.561 55.4261ZM421.467 33.1818V37.9403H412.405V55H406.524V33.1818H421.467ZM434.234 55.4261C432.027 55.4261 430.119 54.9574 428.509 54.0199C426.909 53.0729 425.673 51.7566 424.802 50.071C423.931 48.3759 423.495 46.411 423.495 44.1761C423.495 41.9223 423.931 39.9527 424.802 38.267C425.673 36.572 426.909 35.2557 428.509 34.3182C430.119 33.3712 432.027 32.8977 434.234 32.8977C436.44 32.8977 438.344 33.3712 439.944 34.3182C441.554 35.2557 442.794 36.572 443.665 38.267C444.537 39.9527 444.972 41.9223 444.972 44.1761C444.972 46.411 444.537 48.3759 443.665 50.071C442.794 51.7566 441.554 53.0729 439.944 54.0199C438.344 54.9574 436.44 55.4261 434.234 55.4261ZM434.262 50.7386C435.266 50.7386 436.104 50.4545 436.776 49.8864C437.449 49.3087 437.955 48.5227 438.296 47.5284C438.647 46.5341 438.822 45.4025 438.822 44.1335C438.822 42.8646 438.647 41.733 438.296 40.7386C437.955 39.7443 437.449 38.9583 436.776 38.3807C436.104 37.803 435.266 37.5142 434.262 37.5142C433.249 37.5142 432.397 37.803 431.705 38.3807C431.023 38.9583 430.507 39.7443 430.157 40.7386C429.816 41.733 429.646 42.8646 429.646 44.1335C429.646 45.4025 429.816 46.5341 430.157 47.5284C430.507 48.5227 431.023 49.3087 431.705 49.8864C432.397 50.4545 433.249 50.7386 434.262 50.7386ZM448.907 63.1818V33.1818H454.873V36.8466H455.143C455.408 36.2595 455.791 35.6629 456.293 35.0568C456.805 34.4413 457.468 33.9299 458.282 33.5227C459.106 33.1061 460.129 32.8977 461.35 32.8977C462.941 32.8977 464.409 33.3144 465.754 34.1477C467.098 34.9716 468.173 36.2169 468.978 37.8835C469.783 39.5407 470.185 41.6193 470.185 44.1193C470.185 46.553 469.792 48.608 469.006 50.2841C468.23 51.9508 467.169 53.215 465.825 54.0767C464.489 54.929 462.993 55.3551 461.336 55.3551C460.162 55.3551 459.163 55.161 458.339 54.7727C457.524 54.3845 456.857 53.8968 456.336 53.3097C455.815 52.7131 455.417 52.1117 455.143 51.5057H454.958V63.1818H448.907ZM454.83 44.0909C454.83 45.3883 455.01 46.5199 455.37 47.4858C455.73 48.4517 456.251 49.2045 456.933 49.7443C457.614 50.2746 458.443 50.5398 459.418 50.5398C460.403 50.5398 461.237 50.2699 461.918 49.7301C462.6 49.1809 463.116 48.4233 463.467 47.4574C463.826 46.482 464.006 45.3598 464.006 44.0909C464.006 42.8314 463.831 41.7235 463.481 40.767C463.13 39.8106 462.614 39.0625 461.933 38.5227C461.251 37.983 460.413 37.7131 459.418 37.7131C458.433 37.7131 457.6 37.9735 456.918 38.4943C456.246 39.0152 455.73 39.7538 455.37 40.7102C455.01 41.6667 454.83 42.7936 454.83 44.0909ZM484.077 55.4261C481.871 55.4261 479.963 54.9574 478.353 54.0199C476.753 53.0729 475.517 51.7566 474.646 50.071C473.774 48.3759 473.339 46.411 473.339 44.1761C473.339 41.9223 473.774 39.9527 474.646 38.267C475.517 36.572 476.753 35.2557 478.353 34.3182C479.963 33.3712 481.871 32.8977 484.077 32.8977C486.284 32.8977 488.187 33.3712 489.788 34.3182C491.397 35.2557 492.638 36.572 493.509 38.267C494.38 39.9527 494.816 41.9223 494.816 44.1761C494.816 46.411 494.38 48.3759 493.509 50.071C492.638 51.7566 491.397 53.0729 489.788 54.0199C488.187 54.9574 486.284 55.4261 484.077 55.4261ZM484.106 50.7386C485.11 50.7386 485.948 50.4545 486.62 49.8864C487.292 49.3087 487.799 48.5227 488.14 47.5284C488.49 46.5341 488.665 45.4025 488.665 44.1335C488.665 42.8646 488.49 41.733 488.14 40.7386C487.799 39.7443 487.292 38.9583 486.62 38.3807C485.948 37.803 485.11 37.5142 484.106 37.5142C483.093 37.5142 482.24 37.803 481.549 38.3807C480.867 38.9583 480.351 39.7443 480.001 40.7386C479.66 41.733 479.489 42.8646 479.489 44.1335C479.489 45.4025 479.66 46.5341 480.001 47.5284C480.351 48.5227 480.867 49.3087 481.549 49.8864C482.24 50.4545 483.093 50.7386 484.106 50.7386ZM497.046 61.392V50.1989H498.722C499.205 49.8958 499.594 49.4129 499.887 48.75C500.19 48.0871 500.436 47.3059 500.626 46.4062C500.825 45.5066 500.976 44.536 501.08 43.4943C501.194 42.4432 501.293 41.3826 501.379 40.3125L501.947 33.1818H518.68V50.1989H522.06V61.392H516.293V55H502.955V61.392H497.046ZM504.745 50.1989H512.969V37.8409H507.089L506.862 40.3125C506.701 42.642 506.469 44.6212 506.165 46.25C505.862 47.8693 505.389 49.1856 504.745 50.1989ZM525.587 55V33.1818H531.638V41.6477H533.342L539.28 33.1818H546.382L538.669 44.0057L546.467 55H539.28L533.896 47.2585H531.638V55H525.587ZM554.805 47.017L562.661 33.1818H568.626V55H562.859V41.1222L555.033 55H549.024V33.1818H554.805V47.017Z" fill="white"/>
<defs>
<filter id="filter0_b_10_1657" x="-29.1574" y="-28.695" width="653.893" height="139.728" filterUnits="userSpaceOnUse" color-interpolation-filters="sRGB">
<feFlood flood-opacity="0" result="BackgroundImageFix"/>
<feGaussianBlur in="BackgroundImageFix" stdDeviation="14.6424"/>
<feComposite in2="SourceAlpha" operator="in" result="effect1_backgroundBlur_10_1657"/>
<feBlend mode="normal" in="SourceGraphic" in2="effect1_backgroundBlur_10_1657" result="shape"/>
</filter>
</defs>
</svg>
