<svg width="175" height="87" viewBox="0 0 175 87" fill="none" xmlns="http://www.w3.org/2000/svg">
<path d="M118.979 2.67406C89.9634 22.0176 128.801 28.8405 108.94 58.1999" stroke="white" stroke-width="1.72701" stroke-dasharray="1.73 1.73"/>
<g filter="url(#filter0_b_8_1651)">
<rect x="0.44458" y="50.4023" width="173.618" height="36.1705" rx="18.0852" transform="rotate(-0.113413 0.44458 50.4023)" fill="#27395C" fill-opacity="0.68"/>
</g>
<path d="M13.5506 72.8516V61.7016H17.9496C18.7953 61.7016 19.5158 61.8632 20.111 62.1862C20.7062 62.5056 21.1599 62.9502 21.4721 63.52C21.7878 64.0862 21.9457 64.7396 21.9457 65.48C21.9457 66.2204 21.786 66.8737 21.4666 67.4399C21.1472 68.0061 20.6845 68.4471 20.0783 68.7629C19.4758 69.0787 18.7463 69.2366 17.8897 69.2366H15.0859V67.3474H17.5086C17.9623 67.3474 18.3362 67.2693 18.6302 67.1133C18.9278 66.9536 19.1492 66.734 19.2944 66.4545C19.4432 66.1714 19.5176 65.8466 19.5176 65.48C19.5176 65.1098 19.4432 64.7867 19.2944 64.5109C19.1492 64.2314 18.9278 64.0155 18.6302 63.863C18.3325 63.707 17.9551 63.6289 17.4977 63.6289H15.908V72.8516H13.5506ZM25.5934 73.0094C25.0599 73.0094 24.5844 72.9169 24.167 72.7318C23.7496 72.5431 23.4193 72.2654 23.1761 71.8988C22.9366 71.5286 22.8168 71.0676 22.8168 70.516C22.8168 70.0514 22.9021 69.6612 23.0727 69.3454C23.2433 69.0297 23.4756 68.7756 23.7696 68.5832C24.0636 68.3909 24.3975 68.2457 24.7713 68.1477C25.1488 68.0497 25.5444 67.9807 25.9582 67.9408C26.4445 67.89 26.8365 67.8428 27.1341 67.7993C27.4318 67.7521 27.6477 67.6831 27.782 67.5924C27.9163 67.5016 27.9834 67.3673 27.9834 67.1895V67.1568C27.9834 66.812 27.8746 66.5453 27.6568 66.3565C27.4426 66.1678 27.1378 66.0734 26.7421 66.0734C26.3248 66.0734 25.9927 66.166 25.7458 66.3511C25.499 66.5326 25.3357 66.7612 25.2559 67.0371L23.1108 66.8628C23.2197 66.3547 23.4338 65.9155 23.7532 65.5453C24.0726 65.1715 24.4846 64.8847 24.9891 64.6851C25.4972 64.4819 26.0852 64.3802 26.753 64.3802C27.2176 64.3802 27.6622 64.4347 28.0869 64.5436C28.5152 64.6525 28.8945 64.8212 29.2247 65.0499C29.5587 65.2786 29.8218 65.5725 30.0142 65.9319C30.2065 66.2876 30.3027 66.714 30.3027 67.2113V72.8516H28.1032V71.6919H28.0379C27.9036 71.9533 27.7239 72.1837 27.4989 72.3834C27.2739 72.5793 27.0035 72.7336 26.6877 72.8461C26.3719 72.955 26.0072 73.0094 25.5934 73.0094ZM26.2576 71.4088C26.5988 71.4088 26.9 71.3417 27.1614 71.2074C27.4227 71.0695 27.6278 70.8844 27.7766 70.6521C27.9254 70.4198 27.9998 70.1566 27.9998 69.8626V68.9752C27.9272 69.0224 27.8274 69.066 27.7003 69.1059C27.5769 69.1422 27.4372 69.1767 27.2811 69.2093C27.1251 69.2384 26.969 69.2656 26.8129 69.291C26.6569 69.3128 26.5153 69.3327 26.3883 69.3509C26.1161 69.3908 25.8783 69.4543 25.6751 69.5414C25.4718 69.6285 25.3139 69.7465 25.2014 69.8953C25.0889 70.0405 25.0326 70.222 25.0326 70.4397C25.0326 70.7555 25.147 70.9969 25.3756 71.1638C25.6079 71.3272 25.9019 71.4088 26.2576 71.4088ZM31.672 70.4833H33.9205C33.9313 70.7591 34.0547 70.9769 34.2907 71.1366C34.5266 71.2963 34.8315 71.3762 35.2053 71.3762C35.5828 71.3762 35.9004 71.2891 36.1581 71.1148C36.4158 70.937 36.5446 70.6829 36.5446 70.3526C36.5446 70.1494 36.4938 69.9733 36.3922 69.8245C36.2905 69.6721 36.149 69.5523 35.9675 69.4652C35.786 69.3781 35.5755 69.3345 35.336 69.3345H34.1328V67.8156H35.336C35.6953 67.8156 35.9711 67.7321 36.1635 67.5652C36.3595 67.3982 36.4575 67.1895 36.4575 66.9391C36.4575 66.656 36.3559 66.4291 36.1526 66.2585C35.953 66.0843 35.6826 65.9972 35.3414 65.9972C34.9966 65.9972 34.7099 66.0752 34.4812 66.2313C34.2562 66.3837 34.14 66.5834 34.1328 66.8302H31.8952C31.9024 66.3293 32.0531 65.8956 32.3471 65.529C32.6447 65.1624 33.0439 64.8793 33.5448 64.6797C34.0493 64.4801 34.6137 64.3802 35.238 64.3802C35.9203 64.3802 36.5083 64.4764 37.0019 64.6688C37.4992 64.8575 37.8803 65.1279 38.1452 65.48C38.4138 65.8321 38.5481 66.2513 38.5481 66.7376C38.5481 67.1804 38.4029 67.5506 38.1126 67.8483C37.8222 68.1459 37.4157 68.3582 36.893 68.4852V68.5723C37.2378 68.5941 37.55 68.6867 37.8295 68.85C38.1089 69.0133 38.3321 69.2384 38.4991 69.5251C38.6661 69.8082 38.7495 70.1439 38.7495 70.5323C38.7495 71.0513 38.5971 71.4959 38.2922 71.8661C37.991 72.2364 37.5736 72.5213 37.04 72.7209C36.5101 72.9169 35.9022 73.0149 35.2162 73.0149C34.5484 73.0149 33.9495 72.9187 33.4196 72.7263C32.8933 72.5303 32.4741 72.2436 32.1619 71.8661C31.8534 71.4887 31.6901 71.0277 31.672 70.4833ZM39.5185 75.3015V71.0114H40.161C40.3461 70.8952 40.4949 70.7101 40.6074 70.4561C40.7235 70.202 40.8179 69.9026 40.8905 69.5578C40.9667 69.213 41.0248 68.8409 41.0647 68.4417C41.1083 68.0388 41.1464 67.6323 41.1791 67.2222L41.3968 64.4891H47.8102V71.0114H49.1059V75.3015H46.8956V72.8516H41.7834V75.3015H39.5185ZM42.4694 71.0114H45.6216V66.2749H43.3677L43.2806 67.2222C43.2188 68.115 43.1299 68.8736 43.0138 69.4979C42.8976 70.1185 42.7162 70.623 42.4694 71.0114ZM50.4575 72.8516V64.4891H54.0235C55.0543 64.4891 55.8691 64.6851 56.468 65.0771C57.0669 65.4691 57.3663 66.0262 57.3663 66.7485C57.3663 67.2022 57.1975 67.5797 56.86 67.8809C56.5224 68.1822 56.0542 68.3854 55.4554 68.4907C55.9562 68.527 56.3827 68.6413 56.7348 68.8337C57.0905 69.0224 57.3609 69.2674 57.546 69.5687C57.7347 69.8699 57.8291 70.2038 57.8291 70.5704C57.8291 71.0459 57.702 71.4542 57.448 71.7954C57.1975 72.1365 56.8291 72.3979 56.3428 72.5793C55.86 72.7608 55.2702 72.8516 54.5734 72.8516H50.4575ZM52.6189 71.1148H54.5734C54.8964 71.1148 55.1487 71.0386 55.3301 70.8862C55.5152 70.7301 55.6078 70.5178 55.6078 70.2492C55.6078 69.9516 55.5152 69.7175 55.3301 69.5469C55.1487 69.3763 54.8964 69.291 54.5734 69.291H52.6189V71.1148ZM52.6189 67.9299H54.0725C54.3048 67.9299 54.5026 67.8973 54.6659 67.8319C54.8329 67.763 54.9599 67.665 55.047 67.5379C55.1378 67.4109 55.1831 67.2603 55.1831 67.0861C55.1831 66.8284 55.0797 66.6269 54.8728 66.4817C54.6659 66.3366 54.3828 66.264 54.0235 66.264H52.6189V67.9299ZM61.5067 69.7919L64.5174 64.4891H66.804V72.8516H64.5936V67.5325L61.5938 72.8516H59.2909V64.4891H61.5067V69.7919ZM68.1188 72.8516L71.0424 68.5016L68.1351 64.4891H70.781L72.9533 67.7611H73.3126V64.4891H75.6319V67.7611H75.9803L78.1526 64.4891H80.7985L77.8967 68.5016L80.8149 72.8516H78.1091L75.9586 69.585H75.6319V72.8516H73.3126V69.585H72.986L70.8246 72.8516H68.1188ZM87.9428 67.7448V69.5687H83.5765V67.7448H87.9428ZM84.3387 64.4891V72.8516H82.1229V64.4891H84.3387ZM89.3964 64.4891V72.8516H87.1969V64.4891H89.3964ZM92.6494 67.0588H95.1483C96.2553 67.0588 97.1192 67.3238 97.7398 67.8537C98.3605 68.38 98.6708 69.0841 98.6708 69.9661C98.6708 70.5396 98.5311 71.0441 98.2516 71.4796C97.9721 71.9115 97.5692 72.2491 97.0429 72.4922C96.5167 72.7318 95.8851 72.8516 95.1483 72.8516H91.1958V64.4891H93.4116V71.0277H95.1483C95.5367 71.0277 95.8561 70.9297 96.1065 70.7337C96.357 70.5377 96.484 70.2873 96.4876 69.9824C96.484 69.6594 96.357 69.3963 96.1065 69.193C95.8561 68.9861 95.5367 68.8827 95.1483 68.8827H92.6494V67.0588ZM99.5691 72.8516V64.4891H101.888V72.8516H99.5691ZM107.553 73.0149C106.693 73.0149 105.953 72.8407 105.332 72.4922C104.715 72.1402 104.239 71.6429 103.905 71.0005C103.572 70.3544 103.405 69.5904 103.405 68.7085C103.405 67.8483 103.572 67.0933 103.905 66.4436C104.239 65.7939 104.709 65.2876 105.316 64.9247C105.925 64.5617 106.64 64.3802 107.461 64.3802C108.012 64.3802 108.526 64.4692 109.001 64.647C109.48 64.8212 109.898 65.0844 110.254 65.4364C110.613 65.7885 110.892 66.2313 111.092 66.7648C111.292 67.2948 111.391 67.9154 111.391 68.6268V69.2638H104.33V67.8265H109.208C109.208 67.4926 109.136 67.1968 108.99 66.9391C108.845 66.6814 108.644 66.4799 108.386 66.3347C108.132 66.1859 107.836 66.1115 107.499 66.1115C107.147 66.1115 106.835 66.1932 106.562 66.3565C106.294 66.5162 106.083 66.7322 105.931 67.0044C105.778 67.273 105.7 67.5724 105.697 67.9027V69.2692C105.697 69.683 105.773 70.0405 105.925 70.3417C106.081 70.643 106.301 70.8753 106.584 71.0386C106.867 71.2019 107.203 71.2836 107.591 71.2836C107.849 71.2836 108.085 71.2473 108.299 71.1747C108.513 71.1021 108.696 70.9932 108.849 70.8481C109.001 70.7029 109.117 70.525 109.197 70.3145L111.342 70.4561C111.233 70.9715 111.01 71.4215 110.673 71.8063C110.339 72.1874 109.907 72.485 109.377 72.6991C108.851 72.9096 108.243 73.0149 107.553 73.0149ZM115.8 75.3015V71.0114H116.442C116.627 70.8952 116.776 70.7101 116.889 70.4561C117.005 70.202 117.099 69.9026 117.172 69.5578C117.248 69.213 117.306 68.8409 117.346 68.4417C117.39 68.0388 117.428 67.6323 117.46 67.2222L117.678 64.4891H124.092V71.0114H125.387V75.3015H123.177V72.8516H118.065V75.3015H115.8ZM118.751 71.0114H121.903V66.2749H119.649L119.562 67.2222C119.5 68.115 119.411 68.8736 119.295 69.4979C119.179 70.1185 118.998 70.623 118.751 71.0114ZM126.739 72.8516V64.4891H130.305C131.336 64.4891 132.15 64.6851 132.749 65.0771C133.348 65.4691 133.648 66.0262 133.648 66.7485C133.648 67.2022 133.479 67.5797 133.141 67.8809C132.804 68.1822 132.336 68.3854 131.737 68.4907C132.238 68.527 132.664 68.6413 133.016 68.8337C133.372 69.0224 133.642 69.2674 133.827 69.5687C134.016 69.8699 134.11 70.2038 134.11 70.5704C134.11 71.0459 133.983 71.4542 133.729 71.7954C133.479 72.1365 133.11 72.3979 132.624 72.5793C132.141 72.7608 131.552 72.8516 130.855 72.8516H126.739ZM128.9 71.1148H130.855C131.178 71.1148 131.43 71.0386 131.611 70.8862C131.797 70.7301 131.889 70.5178 131.889 70.2492C131.889 69.9516 131.797 69.7175 131.611 69.5469C131.43 69.3763 131.178 69.291 130.855 69.291H128.9V71.1148ZM128.9 67.9299H130.354C130.586 67.9299 130.784 67.8973 130.947 67.8319C131.114 67.763 131.241 67.665 131.328 67.5379C131.419 67.4109 131.464 67.2603 131.464 67.0861C131.464 66.8284 131.361 66.6269 131.154 66.4817C130.947 66.3366 130.664 66.264 130.305 66.264H128.9V67.9299ZM139.383 73.0149C138.523 73.0149 137.783 72.8407 137.162 72.4922C136.545 72.1402 136.069 71.6429 135.736 71.0005C135.402 70.3544 135.235 69.5904 135.235 68.7085C135.235 67.8483 135.402 67.0933 135.736 66.4436C136.069 65.7939 136.539 65.2876 137.146 64.9247C137.755 64.5617 138.47 64.3802 139.291 64.3802C139.842 64.3802 140.356 64.4692 140.831 64.647C141.31 64.8212 141.728 65.0844 142.084 65.4364C142.443 65.7885 142.722 66.2313 142.922 66.7648C143.122 67.2948 143.221 67.9154 143.221 68.6268V69.2638H136.16V67.8265H141.038C141.038 67.4926 140.966 67.1968 140.821 66.9391C140.675 66.6814 140.474 66.4799 140.216 66.3347C139.962 66.1859 139.666 66.1115 139.329 66.1115C138.977 66.1115 138.665 66.1932 138.392 66.3565C138.124 66.5162 137.913 66.7322 137.761 67.0044C137.608 67.273 137.53 67.5724 137.527 67.9027V69.2692C137.527 69.683 137.603 70.0405 137.755 70.3417C137.911 70.643 138.131 70.8753 138.414 71.0386C138.697 71.2019 139.033 71.2836 139.421 71.2836C139.679 71.2836 139.915 71.2473 140.129 71.1747C140.343 71.1021 140.527 70.9932 140.679 70.8481C140.831 70.7029 140.948 70.525 141.027 70.3145L143.172 70.4561C143.064 70.9715 142.84 71.4215 142.503 71.8063C142.169 72.1874 141.737 72.485 141.207 72.6991C140.681 72.9096 140.073 73.0149 139.383 73.0149ZM144.735 75.9875V64.4891H147.022V65.8938H147.125C147.227 65.6687 147.374 65.4401 147.566 65.2078C147.762 64.9719 148.016 64.7759 148.328 64.6198C148.644 64.4601 149.036 64.3802 149.504 64.3802C150.114 64.3802 150.677 64.5399 151.192 64.8593C151.707 65.1751 152.119 65.6524 152.428 66.2912C152.736 66.9264 152.891 67.723 152.891 68.6812C152.891 69.614 152.74 70.4016 152.439 71.0441C152.141 71.6829 151.735 72.1674 151.219 72.4977C150.707 72.8243 150.134 72.9877 149.499 72.9877C149.049 72.9877 148.666 72.9133 148.35 72.7645C148.038 72.6156 147.782 72.4287 147.582 72.2037C147.383 71.975 147.23 71.7446 147.125 71.5123H147.054V75.9875H144.735ZM147.005 68.6703C147.005 69.1676 147.074 69.6013 147.212 69.9715C147.35 70.3417 147.55 70.6303 147.811 70.8372C148.072 71.0404 148.39 71.1421 148.764 71.1421C149.141 71.1421 149.461 71.0386 149.722 70.8317C149.983 70.6212 150.181 70.3309 150.315 69.9606C150.453 69.5868 150.522 69.1567 150.522 68.6703C150.522 68.1876 150.455 67.763 150.321 67.3964C150.187 67.0298 149.989 66.7431 149.727 66.5362C149.466 66.3293 149.145 66.2259 148.764 66.2259C148.386 66.2259 148.067 66.3257 147.806 66.5253C147.548 66.7249 147.35 67.008 147.212 67.3746C147.074 67.7412 147.005 68.1731 147.005 68.6703ZM156.653 69.7919L159.663 64.4891H161.95V72.8516H159.739V67.5325L156.74 72.8516H154.437V64.4891H156.653V69.7919Z" fill="white"/>
<defs>
<filter id="filter0_b_8_1651" x="-15.1085" y="34.5058" width="204.795" height="67.6202" filterUnits="userSpaceOnUse" color-interpolation-filters="sRGB">
<feFlood flood-opacity="0" result="BackgroundImageFix"/>
<feGaussianBlur in="BackgroundImageFix" stdDeviation="7.79445"/>
<feComposite in2="SourceAlpha" operator="in" result="effect1_backgroundBlur_8_1651"/>
<feBlend mode="normal" in="SourceGraphic" in2="effect1_backgroundBlur_8_1651" result="shape"/>
</filter>
</defs>
</svg>
