<svg width="433" height="208" viewBox="0 0 433 208" fill="none" xmlns="http://www.w3.org/2000/svg">
<path d="M132.495 17.003C62.9941 -54.4979 39.9937 150.503 87.4939 158.003" stroke="white" stroke-width="3" stroke-dasharray="2.65 2.65"/>
<g filter="url(#filter0_b_10_1654)">
<rect y="122.81" width="432.614" height="84.9934" rx="19" transform="rotate(-0.113413 0 122.81)" fill="#27395C" fill-opacity="0.48"/>
</g>
<path d="M21.5284 180.003V150.912H33.0057C35.2121 150.912 37.0919 151.333 38.6449 152.176C40.1979 153.01 41.3816 154.17 42.196 155.656C43.0199 157.134 43.4318 158.838 43.4318 160.77C43.4318 162.702 43.0152 164.406 42.1818 165.884C41.3485 167.361 40.1411 168.511 38.5597 169.335C36.9877 170.159 35.0843 170.571 32.8494 170.571H25.5341V165.642H31.8551C33.0388 165.642 34.0142 165.439 34.7812 165.031C35.5578 164.615 36.1354 164.042 36.5142 163.313C36.9025 162.574 37.0966 161.726 37.0966 160.77C37.0966 159.804 36.9025 158.961 36.5142 158.242C36.1354 157.512 35.5578 156.949 34.7812 156.551C34.0047 156.144 33.0199 155.94 31.8267 155.94H27.679V180.003H21.5284ZM52.9489 180.415C51.5568 180.415 50.3163 180.173 49.2273 179.69C48.1383 179.198 47.2765 178.474 46.642 177.517C46.017 176.551 45.7045 175.349 45.7045 173.909C45.7045 172.697 45.9271 171.679 46.3722 170.855C46.8172 170.031 47.4233 169.368 48.1903 168.867C48.9574 168.365 49.8286 167.986 50.804 167.73C51.7888 167.475 52.821 167.295 53.9006 167.19C55.1695 167.058 56.1922 166.935 56.9688 166.821C57.7453 166.698 58.3087 166.518 58.6591 166.281C59.0095 166.045 59.1847 165.694 59.1847 165.23V165.145C59.1847 164.245 58.9006 163.549 58.3324 163.057C57.7737 162.564 56.9782 162.318 55.946 162.318C54.857 162.318 53.9905 162.56 53.3466 163.043C52.7027 163.516 52.2765 164.113 52.0682 164.832L46.4716 164.378C46.7557 163.052 47.3144 161.906 48.1477 160.94C48.9811 159.965 50.0559 159.217 51.3722 158.696C52.6979 158.166 54.232 157.901 55.9744 157.901C57.1866 157.901 58.3466 158.043 59.4545 158.327C60.572 158.611 61.5616 159.051 62.4233 159.648C63.2945 160.244 63.9811 161.011 64.483 161.949C64.9848 162.877 65.2358 163.99 65.2358 165.287V180.003H59.4972V176.977H59.3267C58.9763 177.659 58.5076 178.261 57.9205 178.781C57.3333 179.293 56.6278 179.695 55.804 179.989C54.9801 180.273 54.0284 180.415 52.9489 180.415ZM54.6818 176.239C55.572 176.239 56.358 176.064 57.0398 175.713C57.7216 175.353 58.2566 174.87 58.6449 174.264C59.0331 173.658 59.2273 172.972 59.2273 172.205V169.889C59.0379 170.012 58.7775 170.126 58.446 170.23C58.1241 170.325 57.7595 170.415 57.3523 170.5C56.9451 170.576 56.5379 170.647 56.1307 170.713C55.7235 170.77 55.3542 170.822 55.0227 170.869C54.3125 170.974 53.6922 171.139 53.1619 171.367C52.6316 171.594 52.2197 171.902 51.9261 172.29C51.6326 172.669 51.4858 173.142 51.4858 173.71C51.4858 174.534 51.7841 175.164 52.3807 175.6C52.9867 176.026 53.7538 176.239 54.6818 176.239ZM68.8082 173.824H74.6747C74.7031 174.544 75.0251 175.112 75.6406 175.528C76.2562 175.945 77.0516 176.153 78.027 176.153C79.0118 176.153 79.8404 175.926 80.5128 175.472C81.1851 175.008 81.5213 174.345 81.5213 173.483C81.5213 172.953 81.3887 172.493 81.1236 172.105C80.8584 171.707 80.4891 171.395 80.0156 171.168C79.5421 170.94 78.9929 170.827 78.3679 170.827H75.2287V166.864H78.3679C79.3054 166.864 80.0251 166.646 80.527 166.21C81.0384 165.775 81.294 165.23 81.294 164.577C81.294 163.838 81.0289 163.246 80.4986 162.801C79.9777 162.347 79.2723 162.119 78.3821 162.119C77.4825 162.119 76.7344 162.323 76.1378 162.73C75.5507 163.128 75.2476 163.649 75.2287 164.293H69.3906C69.4096 162.986 69.8026 161.854 70.5696 160.898C71.3461 159.941 72.3878 159.203 73.6946 158.682C75.0109 158.161 76.4834 157.901 78.1122 157.901C79.8925 157.901 81.4266 158.152 82.7145 158.653C84.0118 159.146 85.0062 159.851 85.6974 160.77C86.3982 161.689 86.7486 162.782 86.7486 164.051C86.7486 165.207 86.3698 166.172 85.6122 166.949C84.8546 167.725 83.794 168.279 82.4304 168.611V168.838C83.33 168.895 84.1444 169.136 84.8736 169.563C85.6027 169.989 86.1851 170.576 86.6207 171.324C87.0563 172.063 87.2741 172.939 87.2741 173.952C87.2741 175.306 86.8764 176.466 86.081 177.432C85.295 178.398 84.206 179.141 82.8139 179.662C81.4313 180.173 79.8452 180.429 78.0554 180.429C76.313 180.429 74.7505 180.178 73.3679 179.676C71.9948 179.165 70.901 178.417 70.0866 177.432C69.2817 176.447 68.8556 175.244 68.8082 173.824ZM89.2805 186.395V175.202H90.9567C91.4396 174.899 91.8279 174.416 92.1214 173.753C92.4245 173.09 92.6707 172.309 92.8601 171.409C93.0589 170.51 93.2105 169.539 93.3146 168.497C93.4283 167.446 93.5277 166.386 93.6129 165.315L94.1811 158.185H110.914V175.202H114.295V186.395H108.528V180.003H95.1896V186.395H89.2805ZM96.9794 175.202H105.204V162.844H99.3232L99.0959 165.315C98.9349 167.645 98.7029 169.624 98.3999 171.253C98.0968 172.872 97.6233 174.189 96.9794 175.202ZM117.821 180.003V158.185H127.125C129.814 158.185 131.94 158.696 133.503 159.719C135.065 160.742 135.847 162.195 135.847 164.08C135.847 165.263 135.406 166.248 134.526 167.034C133.645 167.82 132.423 168.35 130.861 168.625C132.168 168.72 133.28 169.018 134.199 169.52C135.127 170.012 135.832 170.652 136.315 171.438C136.808 172.224 137.054 173.095 137.054 174.051C137.054 175.292 136.723 176.357 136.06 177.247C135.406 178.137 134.445 178.819 133.176 179.293C131.917 179.766 130.378 180.003 128.56 180.003H117.821ZM123.46 175.472H128.56C129.402 175.472 130.061 175.273 130.534 174.875C131.017 174.468 131.259 173.914 131.259 173.213C131.259 172.437 131.017 171.826 130.534 171.381C130.061 170.936 129.402 170.713 128.56 170.713H123.46V175.472ZM123.46 167.162H127.253C127.859 167.162 128.375 167.077 128.801 166.906C129.237 166.726 129.568 166.471 129.795 166.139C130.032 165.808 130.151 165.415 130.151 164.96C130.151 164.288 129.881 163.762 129.341 163.384C128.801 163.005 128.062 162.815 127.125 162.815H123.46V167.162ZM146.649 172.02L154.504 158.185H160.47V180.003H154.703V166.125L146.876 180.003H140.868V158.185H146.649V172.02ZM163.901 180.003L171.528 168.653L163.943 158.185H170.847L176.514 166.722H177.452V158.185H183.503V166.722H184.412L190.08 158.185H196.983L189.412 168.653L197.026 180.003H189.966L184.355 171.48H183.503V180.003H177.452V171.48H176.599L170.96 180.003H163.901ZM215.623 166.679V171.438H204.231V166.679H215.623ZM206.219 158.185V180.003H200.438V158.185H206.219ZM219.415 158.185V180.003H213.677V158.185H219.415ZM227.903 164.889H234.423C237.311 164.889 239.565 165.581 241.184 166.963C242.803 168.336 243.613 170.173 243.613 172.475C243.613 173.971 243.248 175.287 242.519 176.423C241.79 177.55 240.739 178.431 239.366 179.065C237.993 179.69 236.345 180.003 234.423 180.003H224.11V158.185H229.891V175.244H234.423C235.436 175.244 236.269 174.989 236.923 174.477C237.576 173.966 237.907 173.313 237.917 172.517C237.907 171.674 237.576 170.988 236.923 170.457C236.269 169.918 235.436 169.648 234.423 169.648H227.903V164.889ZM245.957 180.003V158.185H252.008V180.003H245.957ZM266.788 180.429C264.543 180.429 262.612 179.975 260.992 179.065C259.382 178.147 258.142 176.85 257.271 175.173C256.399 173.488 255.964 171.494 255.964 169.193C255.964 166.949 256.399 164.979 257.271 163.284C258.142 161.589 259.368 160.268 260.95 159.321C262.54 158.374 264.406 157.901 266.546 157.901C267.986 157.901 269.326 158.133 270.566 158.597C271.816 159.051 272.905 159.738 273.833 160.656C274.771 161.575 275.5 162.73 276.021 164.122C276.541 165.505 276.802 167.124 276.802 168.98V170.642H258.379V166.892H271.106C271.106 166.021 270.916 165.249 270.538 164.577C270.159 163.904 269.633 163.379 268.961 163C268.298 162.612 267.526 162.418 266.646 162.418C265.727 162.418 264.913 162.631 264.202 163.057C263.502 163.474 262.952 164.037 262.555 164.747C262.157 165.448 261.953 166.229 261.944 167.091V170.656C261.944 171.736 262.143 172.669 262.54 173.455C262.948 174.241 263.521 174.847 264.259 175.273C264.998 175.699 265.874 175.912 266.887 175.912C267.559 175.912 268.175 175.817 268.734 175.628C269.292 175.439 269.771 175.154 270.168 174.776C270.566 174.397 270.869 173.933 271.077 173.384L276.674 173.753C276.39 175.098 275.808 176.272 274.927 177.276C274.056 178.27 272.929 179.046 271.546 179.605C270.173 180.154 268.587 180.429 266.788 180.429ZM288.304 186.395V175.202H289.98C290.463 174.899 290.851 174.416 291.145 173.753C291.448 173.09 291.694 172.309 291.884 171.409C292.082 170.51 292.234 169.539 292.338 168.497C292.452 167.446 292.551 166.386 292.636 165.315L293.205 158.185H309.938V175.202H313.318V186.395H307.551V180.003H294.213V186.395H288.304ZM296.003 175.202H304.227V162.844H298.347L298.119 165.315C297.958 167.645 297.726 169.624 297.423 171.253C297.12 172.872 296.647 174.189 296.003 175.202ZM316.844 180.003V158.185H326.148C328.838 158.185 330.964 158.696 332.526 159.719C334.089 160.742 334.87 162.195 334.87 164.08C334.87 165.263 334.43 166.248 333.549 167.034C332.668 167.82 331.447 168.35 329.884 168.625C331.191 168.72 332.304 169.018 333.222 169.52C334.15 170.012 334.856 170.652 335.339 171.438C335.831 172.224 336.077 173.095 336.077 174.051C336.077 175.292 335.746 176.357 335.083 177.247C334.43 178.137 333.469 178.819 332.2 179.293C330.94 179.766 329.401 180.003 327.583 180.003H316.844ZM322.484 175.472H327.583C328.426 175.472 329.084 175.273 329.558 174.875C330.04 174.468 330.282 173.914 330.282 173.213C330.282 172.437 330.04 171.826 329.558 171.381C329.084 170.936 328.426 170.713 327.583 170.713H322.484V175.472ZM322.484 167.162H326.276C326.882 167.162 327.398 167.077 327.825 166.906C328.26 166.726 328.592 166.471 328.819 166.139C329.056 165.808 329.174 165.415 329.174 164.96C329.174 164.288 328.904 163.762 328.364 163.384C327.825 163.005 327.086 162.815 326.148 162.815H322.484V167.162ZM349.835 180.429C347.59 180.429 345.658 179.975 344.039 179.065C342.429 178.147 341.189 176.85 340.317 175.173C339.446 173.488 339.011 171.494 339.011 169.193C339.011 166.949 339.446 164.979 340.317 163.284C341.189 161.589 342.415 160.268 343.996 159.321C345.587 158.374 347.453 157.901 349.593 157.901C351.032 157.901 352.372 158.133 353.613 158.597C354.863 159.051 355.952 159.738 356.88 160.656C357.817 161.575 358.547 162.73 359.067 164.122C359.588 165.505 359.849 167.124 359.849 168.98V170.642H341.425V166.892H354.153C354.153 166.021 353.963 165.249 353.585 164.577C353.206 163.904 352.68 163.379 352.008 163C351.345 162.612 350.573 162.418 349.692 162.418C348.774 162.418 347.96 162.631 347.249 163.057C346.549 163.474 345.999 164.037 345.602 164.747C345.204 165.448 345 166.229 344.991 167.091V170.656C344.991 171.736 345.19 172.669 345.587 173.455C345.995 174.241 346.567 174.847 347.306 175.273C348.045 175.699 348.921 175.912 349.934 175.912C350.606 175.912 351.222 175.817 351.781 175.628C352.339 175.439 352.817 175.154 353.215 174.776C353.613 174.397 353.916 173.933 354.124 173.384L359.721 173.753C359.437 175.098 358.854 176.272 357.974 177.276C357.103 178.27 355.976 179.046 354.593 179.605C353.22 180.154 351.634 180.429 349.835 180.429ZM363.798 188.185V158.185H369.763V161.85H370.033C370.299 161.262 370.682 160.666 371.184 160.06C371.695 159.444 372.358 158.933 373.173 158.526C373.996 158.109 375.019 157.901 376.241 157.901C377.832 157.901 379.299 158.317 380.644 159.151C381.989 159.975 383.064 161.22 383.869 162.886C384.674 164.544 385.076 166.622 385.076 169.122C385.076 171.556 384.683 173.611 383.897 175.287C383.121 176.954 382.06 178.218 380.715 179.08C379.38 179.932 377.884 180.358 376.227 180.358C375.052 180.358 374.053 180.164 373.229 179.776C372.415 179.387 371.747 178.9 371.227 178.313C370.706 177.716 370.308 177.115 370.033 176.509H369.849V188.185H363.798ZM369.721 169.094C369.721 170.391 369.901 171.523 370.261 172.489C370.621 173.455 371.141 174.207 371.823 174.747C372.505 175.278 373.334 175.543 374.309 175.543C375.294 175.543 376.127 175.273 376.809 174.733C377.491 174.184 378.007 173.426 378.357 172.46C378.717 171.485 378.897 170.363 378.897 169.094C378.897 167.834 378.722 166.726 378.371 165.77C378.021 164.814 377.505 164.065 376.823 163.526C376.141 162.986 375.303 162.716 374.309 162.716C373.324 162.716 372.491 162.976 371.809 163.497C371.137 164.018 370.621 164.757 370.261 165.713C369.901 166.67 369.721 167.796 369.721 169.094ZM394.891 172.02L402.746 158.185H408.712V180.003H402.945V166.125L395.119 180.003H389.11V158.185H394.891V172.02Z" fill="white"/>
<defs>
<filter id="filter0_b_10_1654" x="-29.2473" y="92.7064" width="491.276" height="144.344" filterUnits="userSpaceOnUse" color-interpolation-filters="sRGB">
<feFlood flood-opacity="0" result="BackgroundImageFix"/>
<feGaussianBlur in="BackgroundImageFix" stdDeviation="14.6424"/>
<feComposite in2="SourceAlpha" operator="in" result="effect1_backgroundBlur_10_1654"/>
<feBlend mode="normal" in="SourceGraphic" in2="effect1_backgroundBlur_10_1654" result="shape"/>
</filter>
</defs>
</svg>
