<svg width="189" height="87" viewBox="0 0 189 87" fill="none" xmlns="http://www.w3.org/2000/svg">
<path d="M26.7631 32.5908C-1.07228 51.1476 36.1855 57.6929 17.1326 85.8581" stroke="white" stroke-width="1.65676" stroke-dasharray="1.66 1.66"/>
<g filter="url(#filter0_b_8_1652)">
<rect x="25.6069" y="1.09082" width="163.086" height="34.6992" rx="17.3496" transform="rotate(-0.113413 25.6069 1.09082)" fill="#27395C" fill-opacity="0.68"/>
</g>
<path d="M40.6147 22.6836V12.1228H47.6225V13.9638H42.8475V16.0264H44.5646C45.4 16.0264 46.1202 16.1622 46.7252 16.4338C47.3337 16.7019 47.803 17.0818 48.133 17.5734C48.463 18.065 48.628 18.6442 48.628 19.3112C48.628 19.9747 48.463 20.5608 48.133 21.0696C47.803 21.5749 47.3337 21.9703 46.7252 22.2556C46.1202 22.5409 45.4 22.6836 44.5646 22.6836H40.6147ZM42.8475 20.8891H44.5646C44.9634 20.8891 45.3003 20.8169 45.5753 20.6725C45.8503 20.5247 46.0583 20.3305 46.1993 20.0898C46.3437 19.8457 46.4159 19.5793 46.4159 19.2905C46.4159 18.8711 46.256 18.517 45.9363 18.2283C45.62 17.9361 45.1628 17.79 44.5646 17.79H42.8475V20.8891ZM52.2905 22.8331C51.7852 22.8331 51.3348 22.7455 50.9395 22.5701C50.5442 22.3914 50.2313 22.1284 50.001 21.7812C49.7741 21.4305 49.6607 20.9939 49.6607 20.4714C49.6607 20.0314 49.7414 19.6618 49.903 19.3627C50.0646 19.0636 50.2846 18.823 50.5631 18.6408C50.8415 18.4586 51.1578 18.3211 51.5119 18.2283C51.8694 18.1355 52.2441 18.0701 52.636 18.0323C53.0967 17.9842 53.468 17.9395 53.7498 17.8983C54.0317 17.8536 54.2363 17.7882 54.3635 17.7023C54.4907 17.6164 54.5543 17.4892 54.5543 17.3207V17.2898C54.5543 16.9632 54.4511 16.7105 54.2449 16.5317C54.0421 16.353 53.7533 16.2636 53.3786 16.2636C52.9832 16.2636 52.6687 16.3513 52.4349 16.5266C52.2011 16.6985 52.0464 16.9151 51.9708 17.1763L49.9391 17.0113C50.0422 16.53 50.2451 16.1141 50.5476 15.7634C50.8501 15.4093 51.2403 15.1377 51.7181 14.9487C52.1994 14.7562 52.7563 14.6599 53.3889 14.6599C53.8289 14.6599 54.25 14.7115 54.6523 14.8146C55.0579 14.9177 55.4172 15.0776 55.73 15.2942C56.0463 15.5107 56.2955 15.7892 56.4777 16.1295C56.6599 16.4664 56.751 16.8704 56.751 17.3413V22.6836H54.6677V21.5852H54.6058C54.4787 21.8328 54.3085 22.051 54.0953 22.2401C53.8822 22.4258 53.6261 22.5719 53.327 22.6784C53.0279 22.7816 52.6824 22.8331 52.2905 22.8331ZM52.9196 21.3171C53.2428 21.3171 53.5281 21.2535 53.7756 21.1263C54.0232 20.9957 54.2174 20.8203 54.3583 20.6003C54.4993 20.3803 54.5698 20.1311 54.5698 19.8526V19.0121C54.501 19.0568 54.4065 19.098 54.2861 19.1358C54.1693 19.1702 54.0369 19.2029 53.8891 19.2338C53.7413 19.2613 53.5934 19.2871 53.4456 19.3112C53.2978 19.3318 53.1637 19.3507 53.0434 19.3679C52.7856 19.4057 52.5604 19.4659 52.3679 19.5484C52.1754 19.6309 52.0258 19.7426 51.9193 19.8836C51.8127 20.0211 51.7594 20.1929 51.7594 20.3992C51.7594 20.6983 51.8677 20.9269 52.0843 21.085C52.3043 21.2397 52.5827 21.3171 52.9196 21.3171ZM57.9912 22.6836L57.9809 20.9407H58.2438C58.4295 20.9407 58.5893 20.896 58.7234 20.8066C58.8609 20.7138 58.9744 20.5642 59.0637 20.358C59.1531 20.1517 59.2236 19.8784 59.2752 19.5381C59.3267 19.1943 59.3611 18.7714 59.3783 18.2695L59.5072 14.763H65.5301V22.6836H63.4366V16.4905H61.4822L61.3584 18.9089C61.3275 19.5724 61.2467 20.1431 61.1161 20.6209C60.9889 21.0988 60.8118 21.4907 60.5849 21.7967C60.3581 22.0992 60.0848 22.3226 59.765 22.467C59.4453 22.6114 59.0741 22.6836 58.6512 22.6836H57.9912ZM67.2331 22.6836V14.763H69.4298V17.8364H70.0486L72.2041 14.763H74.7824L71.9824 18.6924L74.8133 22.6836H72.2041L70.2497 19.8732H69.4298V22.6836H67.2331ZM78.9941 22.8383C78.1931 22.8383 77.5004 22.6681 76.916 22.3278C76.335 21.984 75.8863 21.5062 75.5701 20.8942C75.2538 20.2789 75.0957 19.5656 75.0957 18.7543C75.0957 17.9361 75.2538 17.221 75.5701 16.6091C75.8863 15.9937 76.335 15.5159 76.916 15.1756C77.5004 14.8318 78.1931 14.6599 78.9941 14.6599C79.7951 14.6599 80.4861 14.8318 81.067 15.1756C81.6514 15.5159 82.1018 15.9937 82.4181 16.6091C82.7343 17.221 82.8925 17.9361 82.8925 18.7543C82.8925 19.5656 82.7343 20.2789 82.4181 20.8942C82.1018 21.5062 81.6514 21.984 81.067 22.3278C80.4861 22.6681 79.7951 22.8383 78.9941 22.8383ZM79.0044 21.1366C79.3688 21.1366 79.673 21.0335 79.9171 20.8272C80.1612 20.6175 80.3451 20.3322 80.4689 19.9712C80.5961 19.6102 80.6597 19.1994 80.6597 18.7388C80.6597 18.2781 80.5961 17.8673 80.4689 17.5063C80.3451 17.1454 80.1612 16.8601 79.9171 16.6504C79.673 16.4406 79.3688 16.3358 79.0044 16.3358C78.6365 16.3358 78.3271 16.4406 78.0762 16.6504C77.8287 16.8601 77.6413 17.1454 77.5141 17.5063C77.3904 17.8673 77.3285 18.2781 77.3285 18.7388C77.3285 19.1994 77.3904 19.6102 77.5141 19.9712C77.6413 20.3322 77.8287 20.6175 78.0762 20.8272C78.3271 21.0335 78.6365 21.1366 79.0044 21.1366ZM89.8333 17.8467V19.5742H85.6977V17.8467H89.8333ZM86.4196 14.763V22.6836H84.3209V14.763H86.4196ZM91.2101 14.763V22.6836H89.1268V14.763H91.2101ZM94.2912 17.197H96.6581C97.7066 17.197 98.5248 17.4479 99.1126 17.9498C99.7005 18.4483 99.9944 19.1152 99.9944 19.9506C99.9944 20.4938 99.862 20.9716 99.5973 21.3841C99.3326 21.7932 98.951 22.1129 98.4526 22.3433C97.9541 22.5701 97.3559 22.6836 96.6581 22.6836H92.9144V14.763H95.0131V20.9561H96.6581C97.0259 20.9561 97.3284 20.8633 97.5656 20.6777C97.8028 20.492 97.9232 20.2548 97.9266 19.9661C97.9232 19.6601 97.8028 19.4109 97.5656 19.2183C97.3284 19.0224 97.0259 18.9244 96.6581 18.9244H94.2912V17.197ZM100.845 22.6836V14.763H103.042V22.6836H100.845ZM107.185 21.2397L107.129 21.807C107.084 22.2608 106.998 22.7128 106.871 23.1632C106.747 23.6169 106.616 24.0278 106.479 24.3956C106.345 24.7634 106.236 25.0522 106.154 25.2619H104.731C104.782 25.0591 104.853 24.7755 104.942 24.4111C105.032 24.0501 105.116 23.6444 105.195 23.1941C105.274 22.7438 105.324 22.2848 105.344 21.8173L105.37 21.2397H107.185ZM111.646 16.4905V14.763H118.824V16.4905H116.271V22.6836H114.178V16.4905H111.646ZM123.481 22.8383C122.667 22.8383 121.965 22.6733 121.378 22.3433C120.793 22.0098 120.343 21.5388 120.027 20.9303C119.71 20.3184 119.552 19.5948 119.552 18.7594C119.552 17.9447 119.71 17.2296 120.027 16.6143C120.343 15.9989 120.788 15.5193 121.362 15.1756C121.94 14.8318 122.617 14.6599 123.394 14.6599C123.916 14.6599 124.403 14.7441 124.853 14.9126C125.307 15.0776 125.702 15.3268 126.039 15.6603C126.38 15.9937 126.644 16.4131 126.833 16.9185C127.022 17.4204 127.117 18.0083 127.117 18.6821V19.2854H120.429V17.924H125.049C125.049 17.6078 124.98 17.3276 124.843 17.0835C124.705 16.8394 124.515 16.6486 124.27 16.5111C124.03 16.3702 123.75 16.2997 123.43 16.2997C123.096 16.2997 122.801 16.3771 122.543 16.5317C122.289 16.683 122.089 16.8876 121.945 17.1454C121.8 17.3998 121.727 17.6834 121.723 17.9962V19.2905C121.723 19.6824 121.795 20.0211 121.94 20.3064C122.087 20.5917 122.295 20.8117 122.564 20.9664C122.832 21.1211 123.15 21.1985 123.518 21.1985C123.762 21.1985 123.985 21.1641 124.188 21.0954C124.391 21.0266 124.564 20.9235 124.709 20.786C124.853 20.6484 124.963 20.48 125.039 20.2806L127.071 20.4147C126.967 20.9028 126.756 21.3291 126.436 21.6935C126.12 22.0545 125.711 22.3364 125.209 22.5392C124.71 22.7386 124.135 22.8383 123.481 22.8383ZM128.55 25.6538V14.763H130.716V16.0934H130.814C130.91 15.8803 131.05 15.6637 131.232 15.4437C131.418 15.2202 131.658 15.0346 131.954 14.8868C132.253 14.7355 132.624 14.6599 133.068 14.6599C133.645 14.6599 134.178 14.8112 134.666 15.1137C135.154 15.4128 135.545 15.8648 135.837 16.4699C136.129 17.0715 136.275 17.8261 136.275 18.7336C136.275 19.6171 136.132 20.3631 135.847 20.9716C135.565 21.5766 135.18 22.0356 134.692 22.3484C134.207 22.6578 133.664 22.8125 133.062 22.8125C132.636 22.8125 132.274 22.742 131.974 22.6011C131.679 22.4601 131.436 22.2831 131.247 22.07C131.058 21.8534 130.914 21.6351 130.814 21.4151H130.747V25.6538H128.55ZM130.701 18.7233C130.701 19.1943 130.766 19.6051 130.897 19.9557C131.027 20.3064 131.216 20.5797 131.464 20.7756C131.711 20.9682 132.012 21.0644 132.366 21.0644C132.724 21.0644 133.026 20.9664 133.274 20.7705C133.521 20.5711 133.709 20.2961 133.836 19.9454C133.967 19.5913 134.032 19.184 134.032 18.7233C134.032 18.2661 133.968 17.8639 133.841 17.5167C133.714 17.1695 133.527 16.8979 133.279 16.7019C133.032 16.506 132.727 16.408 132.366 16.408C132.009 16.408 131.706 16.5025 131.459 16.6916C131.215 16.8807 131.027 17.1488 130.897 17.496C130.766 17.8432 130.701 18.2523 130.701 18.7233ZM137.74 25.6538V14.763H139.905V16.0934H140.003C140.1 15.8803 140.239 15.6637 140.421 15.4437C140.607 15.2202 140.847 15.0346 141.143 14.8868C141.442 14.7355 141.813 14.6599 142.257 14.6599C142.834 14.6599 143.367 14.8112 143.855 15.1137C144.343 15.4128 144.734 15.8648 145.026 16.4699C145.318 17.0715 145.464 17.8261 145.464 18.7336C145.464 19.6171 145.321 20.3631 145.036 20.9716C144.754 21.5766 144.369 22.0356 143.881 22.3484C143.396 22.6578 142.853 22.8125 142.252 22.8125C141.825 22.8125 141.463 22.742 141.164 22.6011C140.868 22.4601 140.626 22.2831 140.436 22.07C140.247 21.8534 140.103 21.6351 140.003 21.4151H139.936V25.6538H137.74ZM139.89 18.7233C139.89 19.1943 139.955 19.6051 140.086 19.9557C140.216 20.3064 140.406 20.5797 140.653 20.7756C140.901 20.9682 141.201 21.0644 141.555 21.0644C141.913 21.0644 142.215 20.9664 142.463 20.7705C142.711 20.5711 142.898 20.2961 143.025 19.9454C143.156 19.5913 143.221 19.184 143.221 18.7233C143.221 18.2661 143.157 17.8639 143.03 17.5167C142.903 17.1695 142.716 16.8979 142.468 16.7019C142.221 16.506 141.916 16.408 141.555 16.408C141.198 16.408 140.895 16.5025 140.648 16.6916C140.404 16.8807 140.216 17.1488 140.086 17.496C139.955 17.8432 139.89 18.2523 139.89 18.7233ZM149.187 22.8331C148.682 22.8331 148.232 22.7455 147.836 22.5701C147.441 22.3914 147.128 22.1284 146.898 21.7812C146.671 21.4305 146.557 20.9939 146.557 20.4714C146.557 20.0314 146.638 19.6618 146.8 19.3627C146.961 19.0636 147.181 18.823 147.46 18.6408C147.738 18.4586 148.055 18.3211 148.409 18.2283C148.766 18.1355 149.141 18.0701 149.533 18.0323C149.993 17.9842 150.365 17.9395 150.647 17.8983C150.928 17.8536 151.133 17.7882 151.26 17.7023C151.387 17.6164 151.451 17.4892 151.451 17.3207V17.2898C151.451 16.9632 151.348 16.7105 151.142 16.5317C150.939 16.353 150.65 16.2636 150.275 16.2636C149.88 16.2636 149.565 16.3513 149.332 16.5266C149.098 16.6985 148.943 16.9151 148.868 17.1763L146.836 17.0113C146.939 16.53 147.142 16.1141 147.444 15.7634C147.747 15.4093 148.137 15.1377 148.615 14.9487C149.096 14.7562 149.653 14.6599 150.286 14.6599C150.726 14.6599 151.147 14.7115 151.549 14.8146C151.955 14.9177 152.314 15.0776 152.627 15.2942C152.943 15.5107 153.192 15.7892 153.374 16.1295C153.557 16.4664 153.648 16.8704 153.648 17.3413V22.6836H151.564V21.5852H151.503C151.375 21.8328 151.205 22.051 150.992 22.2401C150.779 22.4258 150.523 22.5719 150.224 22.6784C149.925 22.7816 149.579 22.8331 149.187 22.8331ZM149.816 21.3171C150.139 21.3171 150.425 21.2535 150.672 21.1263C150.92 20.9957 151.114 20.8203 151.255 20.6003C151.396 20.3803 151.466 20.1311 151.466 19.8526V19.0121C151.398 19.0568 151.303 19.098 151.183 19.1358C151.066 19.1702 150.934 19.2029 150.786 19.2338C150.638 19.2613 150.49 19.2871 150.342 19.3112C150.195 19.3318 150.06 19.3507 149.94 19.3679C149.682 19.4057 149.457 19.4659 149.265 19.5484C149.072 19.6309 148.923 19.7426 148.816 19.8836C148.709 20.0211 148.656 20.1929 148.656 20.3992C148.656 20.6983 148.764 20.9269 148.981 21.085C149.201 21.2397 149.479 21.3171 149.816 21.3171ZM158.931 22.8383C158.119 22.8383 157.421 22.6664 156.837 22.3226C156.256 21.9754 155.809 21.4941 155.496 20.8788C155.187 20.2634 155.032 19.5552 155.032 18.7543C155.032 17.9429 155.189 17.2313 155.502 16.6194C155.818 16.0041 156.266 15.5245 156.847 15.1807C157.428 14.8335 158.119 14.6599 158.92 14.6599C159.611 14.6599 160.216 14.7854 160.735 15.0363C161.255 15.2873 161.665 15.6397 161.968 16.0934C162.27 16.5472 162.437 17.0801 162.468 17.692H160.395C160.337 17.2966 160.182 16.9787 159.931 16.738C159.684 16.4939 159.359 16.3719 158.956 16.3719C158.616 16.3719 158.319 16.4647 158.064 16.6504C157.813 16.8326 157.617 17.099 157.477 17.4496C157.336 17.8003 157.265 18.2248 157.265 18.7233C157.265 19.2287 157.334 19.6584 157.471 20.0125C157.612 20.3666 157.81 20.6364 158.064 20.8221C158.319 21.0077 158.616 21.1005 158.956 21.1005C159.207 21.1005 159.433 21.0489 159.632 20.9458C159.835 20.8427 160.002 20.6931 160.132 20.4972C160.266 20.2978 160.354 20.0589 160.395 19.7804H162.468C162.434 20.3855 162.269 20.9183 161.973 21.379C161.681 21.8362 161.277 22.1937 160.761 22.4515C160.246 22.7094 159.635 22.8383 158.931 22.8383ZM165.251 17.197H167.618C168.667 17.197 169.485 17.4479 170.073 17.9498C170.661 18.4483 170.955 19.1152 170.955 19.9506C170.955 20.4938 170.822 20.9716 170.558 21.3841C170.293 21.7932 169.911 22.1129 169.413 22.3433C168.914 22.5701 168.316 22.6836 167.618 22.6836H163.875V14.763H165.973V20.9561H167.618C167.986 20.9561 168.289 20.8633 168.526 20.6777C168.763 20.492 168.883 20.2548 168.887 19.9661C168.883 19.6601 168.763 19.4109 168.526 19.2183C168.289 19.0224 167.986 18.9244 167.618 18.9244H165.251V17.197ZM171.805 22.6836V14.763H174.002V22.6836H171.805Z" fill="white"/>
<defs>
<filter id="filter0_b_8_1652" x="10.0523" y="-14.7862" width="194.263" height="66.1309" filterUnits="userSpaceOnUse" color-interpolation-filters="sRGB">
<feFlood flood-opacity="0" result="BackgroundImageFix"/>
<feGaussianBlur in="BackgroundImageFix" stdDeviation="7.79445"/>
<feComposite in2="SourceAlpha" operator="in" result="effect1_backgroundBlur_8_1652"/>
<feBlend mode="normal" in="SourceGraphic" in2="effect1_backgroundBlur_8_1652" result="shape"/>
</filter>
</defs>
</svg>
