<svg width="411" height="203" viewBox="0 0 411 203" fill="none" xmlns="http://www.w3.org/2000/svg">
<path d="M326.001 18.5036C256.5 -52.9972 256.5 136.502 192.001 143.503" stroke="white" stroke-width="2.65347" stroke-dasharray="2.65 2.65"/>
<g filter="url(#filter0_b_10_1653)">
<rect x="0.654175" y="120.81" width="409.678" height="81.3468" rx="19" transform="rotate(-0.113413 0.654175 120.81)" fill="#27395C" fill-opacity="0.48"/>
</g>
<path d="M21.5302 176.001V146.91H40.8342V151.981H27.6808V157.663H32.4109C34.7121 157.663 36.696 158.037 38.3626 158.785C40.0388 159.524 41.3314 160.57 42.2405 161.924C43.1496 163.278 43.6041 164.874 43.6041 166.711C43.6041 168.539 43.1496 170.153 42.2405 171.555C41.3314 172.947 40.0388 174.036 38.3626 174.822C36.696 175.608 34.7121 176.001 32.4109 176.001H21.5302ZM27.6808 171.058H32.4109C33.5094 171.058 34.4374 170.859 35.195 170.461C35.9526 170.054 36.5255 169.519 36.9138 168.856C37.3115 168.184 37.5104 167.45 37.5104 166.654C37.5104 165.499 37.07 164.524 36.1893 163.728C35.3181 162.923 34.0586 162.521 32.4109 162.521H27.6808V171.058ZM53.6929 176.413C52.3008 176.413 51.0603 176.171 49.9713 175.688C48.8823 175.196 48.0205 174.472 47.3861 173.515C46.7611 172.549 46.4486 171.347 46.4486 169.907C46.4486 168.695 46.6711 167.677 47.1162 166.853C47.5613 166.029 48.1673 165.367 48.9344 164.865C49.7014 164.363 50.5726 163.984 51.548 163.728C52.5328 163.473 53.565 163.293 54.6446 163.188C55.9135 163.056 56.9363 162.933 57.7128 162.819C58.4893 162.696 59.0527 162.516 59.4031 162.279C59.7535 162.043 59.9287 161.692 59.9287 161.228V161.143C59.9287 160.243 59.6446 159.547 59.0764 159.055C58.5177 158.563 57.7222 158.316 56.69 158.316C55.601 158.316 54.7345 158.558 54.0906 159.041C53.4467 159.514 53.0205 160.111 52.8122 160.831L47.2156 160.376C47.4997 159.05 48.0584 157.904 48.8917 156.938C49.7251 155.963 50.7999 155.215 52.1162 154.694C53.4419 154.164 54.976 153.899 56.7185 153.899C57.9306 153.899 59.0906 154.041 60.1986 154.325C61.316 154.609 62.3056 155.049 63.1673 155.646C64.0385 156.242 64.7251 157.009 65.227 157.947C65.7289 158.875 65.9798 159.988 65.9798 161.285V176.001H60.2412V172.975H60.0707C59.7203 173.657 59.2516 174.259 58.6645 174.779C58.0774 175.291 57.3719 175.693 56.548 175.987C55.7241 176.271 54.7724 176.413 53.6929 176.413ZM55.4258 172.237C56.316 172.237 57.102 172.062 57.7838 171.711C58.4656 171.351 59.0006 170.868 59.3889 170.262C59.7772 169.656 59.9713 168.97 59.9713 168.203V165.887C59.7819 166.01 59.5215 166.124 59.19 166.228C58.8681 166.323 58.5035 166.413 58.0963 166.498C57.6891 166.574 57.2819 166.645 56.8747 166.711C56.4675 166.768 56.0982 166.82 55.7667 166.867C55.0565 166.972 54.4363 167.137 53.906 167.365C53.3756 167.592 52.9637 167.9 52.6702 168.288C52.3766 168.667 52.2298 169.14 52.2298 169.708C52.2298 170.532 52.5281 171.162 53.1247 171.598C53.7308 172.024 54.4978 172.237 55.4258 172.237ZM69.396 176.001L69.3676 171.2H70.092C70.6034 171.2 71.0437 171.077 71.4131 170.831C71.7918 170.575 72.1043 170.163 72.3506 169.595C72.5968 169.027 72.7909 168.274 72.9329 167.336C73.075 166.389 73.1697 165.224 73.217 163.842L73.5721 154.183H90.1631V176.001H84.396V158.941H79.0125L78.6716 165.603C78.5863 167.431 78.3638 169.003 78.004 170.319C77.6536 171.635 77.1659 172.715 76.5409 173.558C75.9159 174.391 75.1631 175.007 74.2824 175.404C73.4017 175.802 72.379 176.001 71.2142 176.001H69.396ZM94.8541 176.001V154.183H100.905V162.649H102.61L108.547 154.183H115.65L107.936 165.007L115.735 176.001H108.547L103.164 168.259H100.905V176.001H94.8541ZM127.251 176.427C125.045 176.427 123.137 175.958 121.527 175.021C119.926 174.074 118.691 172.758 117.819 171.072C116.948 169.377 116.512 167.412 116.512 165.177C116.512 162.923 116.948 160.954 117.819 159.268C118.691 157.573 119.926 156.257 121.527 155.319C123.137 154.372 125.045 153.899 127.251 153.899C129.458 153.899 131.361 154.372 132.961 155.319C134.571 156.257 135.812 157.573 136.683 159.268C137.554 160.954 137.99 162.923 137.99 165.177C137.99 167.412 137.554 169.377 136.683 171.072C135.812 172.758 134.571 174.074 132.961 175.021C131.361 175.958 129.458 176.427 127.251 176.427ZM127.28 171.74C128.283 171.74 129.121 171.456 129.794 170.887C130.466 170.31 130.973 169.524 131.314 168.529C131.664 167.535 131.839 166.403 131.839 165.134C131.839 163.866 131.664 162.734 131.314 161.74C130.973 160.745 130.466 159.959 129.794 159.382C129.121 158.804 128.283 158.515 127.28 158.515C126.266 158.515 125.414 158.804 124.723 159.382C124.041 159.959 123.525 160.745 123.174 161.74C122.834 162.734 122.663 163.866 122.663 165.134C122.663 166.403 122.834 167.535 123.174 168.529C123.525 169.524 124.041 170.31 124.723 170.887C125.414 171.456 126.266 171.74 127.28 171.74ZM157.109 162.677V167.436H145.717V162.677H157.109ZM147.706 154.183V176.001H141.924V154.183H147.706ZM160.902 154.183V176.001H155.163V154.183H160.902ZM169.389 160.887H175.909C178.797 160.887 181.051 161.579 182.67 162.961C184.289 164.334 185.099 166.171 185.099 168.473C185.099 169.969 184.735 171.285 184.005 172.421C183.276 173.548 182.225 174.429 180.852 175.063C179.479 175.688 177.831 176.001 175.909 176.001H165.596V154.183H171.378V171.242H175.909C176.922 171.242 177.755 170.987 178.409 170.475C179.062 169.964 179.394 169.311 179.403 168.515C179.394 167.672 179.062 166.986 178.409 166.456C177.755 165.916 176.922 165.646 175.909 165.646H169.389V160.887ZM187.443 176.001V154.183H193.494V176.001H187.443ZM204.907 172.024L204.751 173.586C204.628 174.836 204.391 176.081 204.041 177.322C203.7 178.572 203.34 179.704 202.961 180.717C202.592 181.73 202.294 182.526 202.066 183.103H198.146C198.288 182.545 198.482 181.763 198.728 180.759C198.975 179.765 199.207 178.648 199.424 177.407C199.642 176.167 199.78 174.902 199.836 173.615L199.907 172.024H204.907ZM217.194 158.941V154.183H236.967V158.941H229.936V176.001H224.169V158.941H217.194ZM249.797 176.427C247.553 176.427 245.621 175.973 244.002 175.063C242.392 174.145 241.151 172.848 240.28 171.171C239.409 169.486 238.973 167.492 238.973 165.191C238.973 162.947 239.409 160.977 240.28 159.282C241.151 157.587 242.378 156.266 243.959 155.319C245.55 154.372 247.416 153.899 249.556 153.899C250.995 153.899 252.335 154.131 253.576 154.595C254.826 155.049 255.915 155.736 256.843 156.654C257.78 157.573 258.509 158.728 259.03 160.12C259.551 161.503 259.811 163.122 259.811 164.978V166.64H241.388V162.89H254.115C254.115 162.019 253.926 161.247 253.547 160.575C253.168 159.902 252.643 159.377 251.971 158.998C251.308 158.61 250.536 158.416 249.655 158.416C248.737 158.416 247.922 158.629 247.212 159.055C246.511 159.472 245.962 160.035 245.564 160.745C245.167 161.446 244.963 162.227 244.954 163.089V166.654C244.954 167.734 245.152 168.667 245.55 169.453C245.957 170.239 246.53 170.845 247.269 171.271C248.008 171.697 248.883 171.91 249.897 171.91C250.569 171.91 251.185 171.815 251.743 171.626C252.302 171.437 252.78 171.152 253.178 170.774C253.576 170.395 253.879 169.931 254.087 169.382L259.684 169.751C259.4 171.096 258.817 172.27 257.936 173.274C257.065 174.268 255.938 175.045 254.556 175.603C253.183 176.152 251.597 176.427 249.797 176.427ZM263.76 184.183V154.183H269.726V157.848H269.996C270.261 157.26 270.645 156.664 271.147 156.058C271.658 155.442 272.321 154.931 273.135 154.524C273.959 154.107 274.982 153.899 276.204 153.899C277.794 153.899 279.262 154.315 280.607 155.149C281.952 155.973 283.026 157.218 283.831 158.884C284.636 160.542 285.039 162.62 285.039 165.12C285.039 167.554 284.646 169.609 283.86 171.285C283.083 172.952 282.023 174.216 280.678 175.078C279.343 175.93 277.847 176.356 276.189 176.356C275.015 176.356 274.016 176.162 273.192 175.774C272.378 175.385 271.71 174.898 271.189 174.311C270.668 173.714 270.271 173.113 269.996 172.507H269.811V184.183H263.76ZM269.684 165.092C269.684 166.389 269.864 167.521 270.223 168.487C270.583 169.453 271.104 170.206 271.786 170.745C272.468 171.276 273.296 171.541 274.272 171.541C275.257 171.541 276.09 171.271 276.772 170.731C277.454 170.182 277.97 169.424 278.32 168.458C278.68 167.483 278.86 166.361 278.86 165.092C278.86 163.832 278.685 162.724 278.334 161.768C277.984 160.812 277.468 160.063 276.786 159.524C276.104 158.984 275.266 158.714 274.272 158.714C273.287 158.714 272.454 158.974 271.772 159.495C271.099 160.016 270.583 160.755 270.223 161.711C269.864 162.668 269.684 163.795 269.684 165.092ZM289.073 184.183V154.183H295.039V157.848H295.309C295.574 157.26 295.957 156.664 296.459 156.058C296.971 155.442 297.633 154.931 298.448 154.524C299.272 154.107 300.294 153.899 301.516 153.899C303.107 153.899 304.575 154.315 305.919 155.149C307.264 155.973 308.339 157.218 309.144 158.884C309.949 160.542 310.351 162.62 310.351 165.12C310.351 167.554 309.958 169.609 309.172 171.285C308.396 172.952 307.335 174.216 305.99 175.078C304.655 175.93 303.159 176.356 301.502 176.356C300.328 176.356 299.329 176.162 298.505 175.774C297.69 175.385 297.023 174.898 296.502 174.311C295.981 173.714 295.583 173.113 295.309 172.507H295.124V184.183H289.073ZM294.996 165.092C294.996 166.389 295.176 167.521 295.536 168.487C295.896 169.453 296.417 170.206 297.098 170.745C297.78 171.276 298.609 171.541 299.584 171.541C300.569 171.541 301.402 171.271 302.084 170.731C302.766 170.182 303.282 169.424 303.633 168.458C303.992 167.483 304.172 166.361 304.172 165.092C304.172 163.832 303.997 162.724 303.647 161.768C303.296 160.812 302.78 160.063 302.098 159.524C301.417 158.984 300.579 158.714 299.584 158.714C298.599 158.714 297.766 158.974 297.084 159.495C296.412 160.016 295.896 160.755 295.536 161.711C295.176 162.668 294.996 163.795 294.996 165.092ZM320.607 176.413C319.215 176.413 317.974 176.171 316.885 175.688C315.796 175.196 314.935 174.472 314.3 173.515C313.675 172.549 313.363 171.347 313.363 169.907C313.363 168.695 313.585 167.677 314.03 166.853C314.475 166.029 315.081 165.367 315.848 164.865C316.615 164.363 317.487 163.984 318.462 163.728C319.447 163.473 320.479 163.293 321.559 163.188C322.828 163.056 323.85 162.933 324.627 162.819C325.403 162.696 325.967 162.516 326.317 162.279C326.668 162.043 326.843 161.692 326.843 161.228V161.143C326.843 160.243 326.559 159.547 325.99 159.055C325.432 158.563 324.636 158.316 323.604 158.316C322.515 158.316 321.649 158.558 321.005 159.041C320.361 159.514 319.935 160.111 319.726 160.831L314.13 160.376C314.414 159.05 314.972 157.904 315.806 156.938C316.639 155.963 317.714 155.215 319.03 154.694C320.356 154.164 321.89 153.899 323.633 153.899C324.845 153.899 326.005 154.041 327.113 154.325C328.23 154.609 329.22 155.049 330.081 155.646C330.953 156.242 331.639 157.009 332.141 157.947C332.643 158.875 332.894 159.988 332.894 161.285V176.001H327.155V172.975H326.985C326.634 173.657 326.166 174.259 325.579 174.779C324.991 175.291 324.286 175.693 323.462 175.987C322.638 176.271 321.686 176.413 320.607 176.413ZM322.34 172.237C323.23 172.237 324.016 172.062 324.698 171.711C325.38 171.351 325.915 170.868 326.303 170.262C326.691 169.656 326.885 168.97 326.885 168.203V165.887C326.696 166.01 326.436 166.124 326.104 166.228C325.782 166.323 325.418 166.413 325.01 166.498C324.603 166.574 324.196 166.645 323.789 166.711C323.382 166.768 323.012 166.82 322.681 166.867C321.971 166.972 321.35 167.137 320.82 167.365C320.29 167.592 319.878 167.9 319.584 168.288C319.291 168.667 319.144 169.14 319.144 169.708C319.144 170.532 319.442 171.162 320.039 171.598C320.645 172.024 321.412 172.237 322.34 172.237ZM347.446 176.427C345.212 176.427 343.289 175.954 341.679 175.007C340.079 174.05 338.848 172.724 337.986 171.029C337.134 169.334 336.708 167.384 336.708 165.177C336.708 162.942 337.139 160.982 338 159.296C338.872 157.601 340.107 156.28 341.708 155.333C343.308 154.377 345.212 153.899 347.418 153.899C349.321 153.899 350.988 154.244 352.418 154.936C353.848 155.627 354.98 156.598 355.813 157.848C356.646 159.098 357.106 160.565 357.191 162.251H351.481C351.32 161.162 350.893 160.286 350.202 159.623C349.52 158.951 348.625 158.615 347.517 158.615C346.58 158.615 345.761 158.87 345.06 159.382C344.369 159.884 343.829 160.617 343.441 161.583C343.052 162.549 342.858 163.719 342.858 165.092C342.858 166.484 343.048 167.668 343.427 168.643C343.815 169.618 344.359 170.362 345.06 170.873C345.761 171.384 346.58 171.64 347.517 171.64C348.209 171.64 348.829 171.498 349.378 171.214C349.937 170.93 350.396 170.518 350.756 169.978C351.125 169.429 351.367 168.771 351.481 168.004H357.191C357.096 169.67 356.642 171.138 355.827 172.407C355.022 173.667 353.91 174.652 352.489 175.362C351.069 176.072 349.388 176.427 347.446 176.427ZM364.858 160.887H371.378C374.266 160.887 376.52 161.579 378.139 162.961C379.758 164.334 380.568 166.171 380.568 168.473C380.568 169.969 380.203 171.285 379.474 172.421C378.745 173.548 377.694 174.429 376.321 175.063C374.948 175.688 373.3 176.001 371.378 176.001H361.065V154.183H366.846V171.242H371.378C372.391 171.242 373.224 170.987 373.878 170.475C374.531 169.964 374.862 169.311 374.872 168.515C374.862 167.672 374.531 166.986 373.878 166.456C373.224 165.916 372.391 165.646 371.378 165.646H364.858V160.887ZM382.912 176.001V154.183H388.963V176.001H382.912Z" fill="white"/>
<defs>
<filter id="filter0_b_10_1653" x="-28.5931" y="90.7513" width="468.332" height="140.653" filterUnits="userSpaceOnUse" color-interpolation-filters="sRGB">
<feFlood flood-opacity="0" result="BackgroundImageFix"/>
<feGaussianBlur in="BackgroundImageFix" stdDeviation="14.6424"/>
<feComposite in2="SourceAlpha" operator="in" result="effect1_backgroundBlur_10_1653"/>
<feBlend mode="normal" in="SourceGraphic" in2="effect1_backgroundBlur_10_1653" result="shape"/>
</filter>
</defs>
</svg>
