<svg width="198" height="58" viewBox="0 0 198 58" fill="none" xmlns="http://www.w3.org/2000/svg">
<path d="M1.89617 21.5875C1.61259 17.7902 1.35544 13.9834 1.019 10.1958C0.961317 9.57383 1.40351 8.61908 0.221127 8.37802C0.0697238 8.34663 0.0529013 7.6547 3.05176e-05 7.40155C0.83875 6.13822 1.9226 6.55291 3.0377 6.53121C4.85934 6.49263 6.67616 6.04902 8.49298 5.78382C18.5721 4.2794 28.6496 2.76936 38.7255 1.25368C39.4128 1.15002 40.499 1.44656 40.3501 0.0988484L41.4747 0C42.5129 0.913742 42.078 1.95767 42.0419 3.06671C41.965 5.30164 42.2582 7.54621 42.3808 9.79075C42.4913 11.7894 42.5802 13.7905 42.6787 15.7916L41.2368 15.09C40.9652 10.936 40.6937 6.78194 40.4125 2.51219L2.46332 8.19716C3.7658 8.34164 5.08077 8.33029 6.38057 8.16344C13.8338 7.17653 21.2837 6.16635 28.7305 5.13287C29.0601 5.04951 29.3817 4.93737 29.6918 4.79775C30.1388 4.6531 30.5858 4.43129 31.0376 4.412C31.5519 4.3879 32.0829 4.66514 32.5876 4.61211C34.2963 4.43129 35.9954 4.17332 37.6945 3.91535C37.9827 3.8281 38.2587 3.70498 38.5164 3.54889C38.9249 3.37048 39.3359 3.19689 39.9583 2.93652C40.2155 7.21109 40.4557 11.1578 40.6937 15.1069L39.2518 15.3311C39.0115 15.1648 38.7399 14.8296 38.5115 14.8489C36.5489 15.0531 34.6063 15.3014 32.6838 15.5939C32.1646 15.6711 31.6889 16.052 31.1746 16.105C30.1772 16.2063 29.1678 16.1653 28.1633 16.1991C27.5288 16.2183 26.8944 16.2689 26.2575 16.3051C26.2888 15.8542 26.3201 15.401 26.3489 14.9502L30.5905 14.304C30.3503 11.652 30.1099 9.14467 29.8696 6.47094L4.19124 9.94746C4.39791 12.6429 4.59018 15.1888 4.79204 17.812L11.4946 16.8958L13.3355 18.1423L4.95306 19.3477V21.168L3.48229 21.0498L3.38857 19.8613L3.22755 19.8878L3.36453 21.0378L1.89617 21.5875ZM39.0812 13.2071C38.9129 10.5285 38.7543 7.985 38.5837 5.29681L31.3404 6.26119C31.5807 8.92767 31.821 11.4639 32.0613 14.1328L39.0812 13.2071ZM2.69164 10.5815L2.5907 10.5478L3.08336 17.8409H3.27321C3.08095 15.4187 2.88709 12.9989 2.69164 10.5815Z" fill="#FF000B"/>
<path d="M178.722 36.7359C179.843 33.8428 180.965 30.9433 182.086 28.0373C182.403 27.22 182.715 26.4003 183.047 25.5444H186.729L181.291 51.2088H177.633C178.407 47.5056 179.171 43.8506 179.933 40.1981L179.806 40.1618C178.402 43.7654 176.998 47.3705 175.592 50.9773C175.01 51.0115 174.427 51.0059 173.846 50.9604C173.236 50.8429 172.634 50.69 172.043 50.5023C173.794 42.1943 175.549 33.8734 177.306 25.5396H180.976C180.512 27.7576 180.053 29.8985 179.623 32.0491C179.308 33.6162 179.034 35.1833 178.741 36.7624C178.681 36.8878 178.619 37.0156 178.556 37.141L178.652 37.1819C178.673 37.03 178.697 36.8878 178.722 36.7359Z" fill="#2B30A7"/>
<path d="M62.8889 25.5337H71.8769L66.4264 51.2197H62.7591C64.4101 43.4517 66.0419 35.7633 67.6953 27.9833H66.0323C64.4029 35.6532 62.7607 43.3931 61.1057 51.2029H57.4384C59.2625 42.6151 61.0721 34.0926 62.8889 25.5337Z" fill="#2B30A7"/>
<path d="M169.907 47.0421C169.924 47.1134 169.935 47.1859 169.941 47.2591C169.941 47.2904 169.897 47.3217 169.873 47.3555L169.633 48.3536V48.3343C169.544 48.5754 169.458 48.8165 169.371 49.0576V49.0455L169.131 49.5277L168.917 49.8195L168.939 49.7977L168.672 50.0581L168.696 50.034L168.432 50.3016L168.456 50.2775L168.172 50.5186H168.184L167.009 51.0779V51.0466H160.71V48.8237L160.731 48.5682C160.794 48.368 160.855 48.1655 160.914 47.963C161.479 45.1422 162.025 42.3166 162.611 39.4982C163.573 34.8765 164.555 30.2596 165.524 25.6667C167.831 25.6667 170.09 25.5896 172.347 25.703C173.346 25.7536 174.029 26.8891 173.815 28.097C173.383 30.577 172.873 33.0434 172.286 35.4961C171.859 37.2706 170.434 37.8829 168.547 38.0565C169.076 38.1723 169.386 38.2253 169.686 38.3121C171.053 38.7003 171.515 39.2547 171.284 40.6724C170.982 42.5191 170.508 44.337 170.107 46.1693C170.037 46.4538 169.967 46.7479 169.907 47.0421ZM164.308 48.7875C165.423 48.9732 165.958 48.4741 166.211 47.6134C166.379 47.0396 166.465 46.4417 166.586 45.8535C166.963 44.0091 167.389 42.1744 167.696 40.3204C167.876 39.2306 167.422 38.9028 166.348 39.1728C165.665 42.3359 164.993 45.5039 164.295 48.7875H164.308ZM166.886 36.704C167.901 36.704 168.569 36.4629 168.761 35.5732C169.227 33.4709 169.666 31.3638 170.075 29.2518C170.265 28.2705 169.804 27.8486 168.73 27.9813C168.11 30.8599 167.504 33.7289 166.874 36.704H166.886Z" fill="#2B30A7"/>
<path d="M68.2513 51.6325C68.4098 50.8513 68.554 50.1449 68.7174 49.3542C69.996 49.2047 70.4766 48.2717 70.8227 47.1264C72.8726 40.3445 74.9586 33.5722 77.035 26.7999C77.1623 26.3852 77.2993 25.973 77.4387 25.5317H83.2205C81.9713 34.1363 80.7479 42.6735 79.5007 51.2371H75.7517C76.8595 44.8747 77.9554 38.5918 79.0489 32.3113L78.7966 32.2486C78.4938 33.266 78.1765 34.2786 77.8905 35.3008C76.7418 39.3882 75.5995 43.4746 74.4636 47.5604C73.4446 51.1913 72.154 52.052 68.2513 51.6325Z" fill="#2B30A7"/>
<path d="M91.938 51.2315H88.3474C88.638 48.876 88.9213 46.5904 89.2127 44.2398H86.7876C86.1099 46.5366 85.4233 48.8671 84.7279 51.2315H81.1904C83.9013 42.634 86.5904 34.1139 89.2916 25.5479H94.805C93.8456 34.1404 92.8966 42.6509 91.938 51.2315ZM91.3223 29.116L91.1178 29.075C89.9162 33.2459 88.7032 37.4144 87.4701 41.677H89.5636C90.1423 37.4723 90.7267 33.2941 91.3223 29.116Z" fill="#2B30A7"/>
<path d="M196.507 25.2329C197.821 25.662 198.189 26.2383 197.917 27.6606C197.533 29.6642 197.093 31.658 196.66 33.7241H193.017C193.325 32.1957 193.628 30.6888 193.933 29.1868C193.964 29.0301 194.079 28.8685 194.055 28.7263C193.962 28.1959 193.93 27.2798 193.687 27.2147C192.803 26.9736 192.604 27.762 192.46 28.4514C191.178 34.6476 189.896 40.8445 188.614 47.0421C188.55 47.358 188.374 47.6835 188.427 47.9776C188.53 48.4175 188.673 48.8469 188.855 49.2602C189.242 48.9275 189.852 48.6623 189.969 48.2524C190.39 46.8059 190.645 45.287 190.96 43.7994C191.061 43.3293 191.159 42.8592 191.273 42.3336H194.956C194.416 44.7229 193.995 47.0494 193.339 49.3109C192.904 50.8225 191.717 51.6567 190.09 51.7049C189.169 51.7315 188.249 51.7362 187.329 51.7242C184.901 51.6952 184.262 50.9647 184.685 48.508C185.044 46.3767 185.51 44.2624 185.947 42.1431C186.896 37.5624 187.841 32.9647 188.831 28.384C189.152 26.8843 189.73 25.5294 191.5 25.2305L196.507 25.2329Z" fill="#2B30A7"/>
<path d="M137.33 42.7707C136.941 44.6537 136.576 46.5413 136.162 48.4171C135.667 50.6593 134.399 51.6815 132.11 51.7249C131.272 51.7418 130.428 51.7442 129.589 51.7249C127.494 51.6694 126.766 50.8352 127.143 48.7353C127.609 46.1339 128.179 43.5494 128.715 40.96C129.582 36.7651 130.447 32.5676 131.337 28.375C131.844 25.9954 132.824 25.1757 135.211 25.1227C136.328 25.0961 137.453 25.0961 138.575 25.1685C140.113 25.2673 140.7 25.9545 140.45 27.4396C140.125 29.3683 139.729 31.297 139.291 33.209C139.225 33.3541 139.126 33.481 139 33.5789C138.875 33.6767 138.727 33.7425 138.57 33.7707C137.609 33.8382 136.647 33.7972 135.528 33.7972C135.869 32.1264 136.191 30.5425 136.518 28.9585C136.549 28.8017 136.659 28.6354 136.629 28.4956C136.523 28.0423 136.369 27.5963 136.235 27.1479C135.835 27.5023 135.223 27.7868 135.076 28.2255C134.711 29.3201 134.555 30.4846 134.319 31.6225C133.223 36.917 132.129 42.2105 131.037 47.5033C131.023 47.5408 131.013 47.5796 131.008 47.6191C131.046 48.1856 130.418 49.0222 131.378 49.2271C132.229 49.408 132.456 48.6558 132.608 47.9301C132.983 46.1291 133.406 44.3402 133.809 42.5441L137.33 42.7707Z" fill="#2B30A7"/>
<path d="M23.3572 43.4901L20.9876 46.7425L16.9166 45.5659L17.3972 44.2906L18.0245 42.7909C18.0797 42.6487 18.135 42.5065 18.1927 42.3618C18.4066 41.8676 18.6205 41.371 18.8367 40.8767C19.589 39.2951 20.5358 37.7739 21.0477 36.1175C21.836 33.5812 23.314 32.1612 25.9959 32.0575C26.3444 32.043 26.6809 31.8502 27.0317 31.7851C30.1896 31.2113 32.999 29.3235 36.325 29.3741C37.5554 29.3886 38.7859 29.2102 40.0139 29.121L41.4823 28.9763L42.2033 28.9257H43.5923C44.1426 28.9426 44.7146 28.8727 45.2385 28.9957C46.3272 29.2536 46.5363 30.2445 45.748 31.0425C45.0847 31.7152 44.4623 32.4288 43.8254 33.1232L42.422 33.6776L41.7683 33.4366H40.3095C37.38 33.7644 34.4505 34.0899 31.5234 34.4371C31.2925 34.4915 31.0862 34.6212 30.9369 34.8059C29.459 36.4815 27.9978 38.1692 26.5295 39.8545L25.2894 41.395L24.5132 41.964L23.3572 43.4901Z" fill="#2B30A7"/>
<path d="M154.401 42.0851L152.479 51.2225H148.816C150.633 42.6155 152.436 34.0704 154.226 25.5871C156.427 25.5871 158.506 25.5124 160.575 25.6113C162.13 25.6884 162.856 26.6262 162.608 28.2271C162.289 30.2812 161.815 32.3112 161.392 34.3508C161.101 35.762 160.795 37.1692 160.474 38.5724C159.859 41.2871 158.844 42.0827 156.043 42.0851H154.401ZM154.934 39.6139C155.985 39.8116 156.591 39.4258 156.78 38.5724C157.47 35.4936 158.114 32.4029 158.761 29.3144C158.965 28.35 158.551 27.8678 157.417 27.9571C156.6 31.7928 155.78 35.6455 154.934 39.6139Z" fill="#2B30A7"/>
<path d="M106.787 25.3821H106.864L107.433 25.6232C107.621 26.0788 108.025 26.5683 107.962 26.983C107.611 29.2324 107.145 31.4625 106.716 33.7336H103.019C103.387 31.9784 103.791 30.2787 104.074 28.5573C104.146 28.1137 103.949 27.2795 103.689 27.1927C102.969 26.9517 102.68 27.605 102.548 28.2318C101.351 33.9506 100.158 39.6701 98.9693 45.3904C98.7987 46.2126 98.5951 47.0323 98.4888 47.864C98.4333 48.2932 98.5637 48.744 98.6111 49.1852L99.8901 48.797C100.044 48.269 100.2 47.741 100.354 47.2107V47.1287C100.688 45.8726 100.993 44.6068 101.375 43.3676C101.473 43.0542 101.791 42.6179 102.053 42.5817C102.82 42.4756 103.608 42.5455 104.53 42.5455C104.41 43.2688 104.334 43.7679 104.242 44.2693C103.985 45.6388 103.762 47.0178 103.44 48.3679C103.257 49.1153 102.87 49.8145 102.574 50.5378C102.017 50.8897 101.483 51.4877 100.892 51.5407C99.3082 51.675 97.7161 51.6927 96.1289 51.5938C95.0238 51.5335 94.4829 50.7306 94.6222 49.665C94.8628 47.8447 95.1872 46.0317 95.5518 44.2308C96.0903 41.5667 96.6939 38.9146 97.2702 36.2602C97.3354 35.9661 97.403 35.6744 97.4674 35.3826V35.3128L98.232 31.6674L98.7246 29.2565L99.2052 27.3277L99.4048 26.9565L99.3879 26.889L99.441 26.8432L99.9215 26.1199L100.161 25.8787L100.883 25.4207L101.212 25.3652L106.787 25.3821Z" fill="#2B30A7"/>
<path d="M149.509 36.702C149.297 37.6037 149.129 38.3318 148.948 39.0984H144.142C143.447 42.3146 142.757 45.5018 142.034 48.853H146.966C146.786 49.7571 146.638 50.4901 146.485 51.264H137.859C138.672 47.4378 139.468 43.6888 140.263 39.9326C141.21 35.4651 142.186 31.0122 143.078 26.5278C143.234 25.7539 143.481 25.4525 144.3 25.4694C146.774 25.5225 149.251 25.4887 151.873 25.4887C151.681 26.3735 151.515 27.1354 151.34 27.9286C149.919 27.9286 148.6 27.878 147.288 27.9623C146.951 27.984 146.425 28.3794 146.353 28.6856C145.738 31.2894 145.209 33.9149 144.617 36.702H149.509Z" fill="#2B30A7"/>
<path d="M119.093 27.9373H116.33C114.681 35.7053 113.04 43.4444 111.389 51.2342H107.726C109.365 43.4613 110.989 35.768 112.638 27.9494H109.932C110.098 27.0862 110.237 26.3582 110.389 25.5649H119.583C119.422 26.3461 119.268 27.0814 119.093 27.9373Z" fill="#2B30A7"/>
<path d="M18.0255 42.7913L17.4007 44.2886L5.06976 45.7664V47.3697L3.69753 47.5289L3.48364 46.1209C2.3349 45.7399 2.25319 45.2698 3.12315 44.4332C3.29983 44.195 3.38127 43.8992 3.35146 43.6039C3.05827 39.1653 2.73865 34.7268 2.43824 30.2883C2.31808 28.4921 2.23397 26.6936 2.13063 24.895L3.55574 25.2591C3.9771 30.989 4.39686 36.7199 4.81502 42.4514L5.05535 42.4345C4.64199 36.7383 4.22944 31.0405 3.81769 25.341L5.20915 24.9168C5.67537 30.6885 6.13919 36.4603 6.61503 42.3574L10.1982 41.9234L18.8498 40.8843L18.2081 42.3694L6.89861 43.8786C8.16989 43.857 9.42921 43.7196 10.6861 43.5845L18.0255 42.7913Z" fill="#FF000B"/>
<path d="M117.378 10.9007L119.001 7.20468C119.693 5.6207 119.693 5.6207 121.617 5.95099C120.688 10.3678 119.76 14.787 118.82 19.2641H116.794C117.188 17.3499 117.578 15.4524 117.967 13.5575L117.765 13.4827C117.157 14.9582 116.549 16.4329 115.944 17.9068C115.29 19.5028 115.292 19.5028 113.324 19.1967C114.257 14.7822 115.189 10.3727 116.136 5.89314H118.172L117.184 10.8355L117.378 10.9007Z" fill="#2B30A7"/>
<path d="M165.774 21.5346H163.833L164.218 19.4105H161.9C161.727 20.1169 161.561 20.8065 161.384 21.5394H159.331C159.915 20.1964 159.396 18.6173 160.749 17.5878C161.035 17.3709 161.045 16.785 161.173 16.3655C162.239 12.8488 163.302 9.34084 164.362 5.8418H167.485C167.275 7.66446 167.068 9.42929 166.858 11.1965C166.618 13.1445 166.125 15.1118 166.26 17.0333C166.329 18.3367 166.238 19.6436 165.988 20.9245C165.934 21.1336 165.863 21.3376 165.774 21.5346ZM162.89 17.6963L163.194 18.0073C163.472 17.7904 163.953 17.6071 163.999 17.3468C164.465 14.673 164.859 11.9873 165.274 9.30389L165.125 9.27258L162.89 17.6963Z" fill="#2B30A7"/>
<path d="M92.2556 19.288H90.2224C90.6313 17.2748 91.0249 15.3413 91.4241 13.4077L91.0925 13.1666C90.8518 13.4631 90.4751 13.7259 90.3955 14.0587C89.9874 15.7704 89.655 17.4991 89.2855 19.2735H87.2379C88.182 14.7699 89.1101 10.3531 90.0494 5.87598H92.0825C91.6905 7.82641 91.3163 9.69485 90.9388 11.561L91.2462 11.802C91.4869 11.5441 91.8539 11.3198 91.9264 11.0209C92.328 9.35012 92.6475 7.66248 93.0298 5.89285H95.0936C94.1494 10.3676 93.2045 14.8181 92.2556 19.288Z" fill="#2B30A7"/>
<path d="M99.8495 5.88769C99.4527 7.83331 99.0703 9.70181 98.6888 11.5703L99.0011 11.8113C99.241 11.5485 99.5943 11.3291 99.6668 11.0181C100.084 9.31362 100.433 7.59463 100.813 5.84912H102.834C102.568 7.1679 102.322 8.44088 102.056 9.70664C101.495 12.3715 100.929 15.0356 100.359 17.6988C99.9766 19.4853 99.9766 19.4853 97.9749 19.2033C98.3765 17.2601 98.7774 15.3184 99.1766 13.3784L98.8136 13.1374C98.5729 13.4435 98.2316 13.7208 98.1479 14.0656C97.7342 15.7749 97.393 17.5035 97.0179 19.2587H94.9968L97.8115 5.88769H99.8495Z" fill="#2B30A7"/>
<path d="M155.199 19.5994C153.108 19.7175 152.628 19.2064 153.037 17.1884C153.671 14.0856 154.37 10.9972 155.005 7.8943C155.485 5.54606 156.927 5.13379 159.315 5.63767C160.347 5.85706 160.248 6.82385 160.085 7.63151C159.556 10.2618 158.994 12.8898 158.444 15.5176C158.338 16.0263 158.22 16.5351 158.112 17.0462C157.65 19.2184 157.352 19.4788 155.199 19.5994ZM155.297 18.1528C156.098 17.4802 158.181 8.21254 157.828 7.11075C157.052 7.48927 154.844 16.9016 155.297 18.1456V18.1528Z" fill="#2B30A7"/>
<path d="M66.2887 19.6044C64.2987 19.7201 63.8037 19.1511 64.2171 17.22C64.8804 14.1243 65.6278 11.0456 66.1901 7.93067C66.6707 5.25696 68.6822 5.16534 70.5712 5.6644C71.6358 5.94648 71.4027 7.0097 71.2489 7.83424C70.9484 9.44958 70.5688 11.048 70.2299 12.6561C69.9247 14.1027 69.6363 15.5637 69.3287 17.0151C68.8721 19.156 68.4924 19.4766 66.2887 19.6044ZM69.2855 6.85781C68.836 7.15677 68.4635 7.26766 68.4203 7.45331C67.6152 10.954 66.7524 14.445 66.1925 18.2157C67.209 17.6009 68.699 11.7833 69.2855 6.85781Z" fill="#2B30A7"/>
<path d="M81.95 19.6027C79.955 19.716 79.4767 19.176 79.8829 17.2448C80.539 14.1106 81.2457 10.9981 81.8534 7.85907C82.3629 5.23839 84.3099 5.14677 86.2682 5.68923C87.3258 5.97613 87.0449 7.06588 86.8904 7.85907C86.5137 9.86018 86.0613 11.8491 85.6388 13.843C85.4174 14.899 85.2009 15.955 84.9755 17.011C84.5159 19.1832 84.1699 19.4749 81.95 19.6027ZM84.9852 7.30696L84.7131 7.02006C84.495 7.1599 84.1224 7.26116 84.0813 7.44198C83.2764 10.9572 82.3991 14.4602 81.8848 18.0308L82.5118 18.1682C83.608 14.6073 84.0934 10.9017 84.9924 7.29974L84.9852 7.30696Z" fill="#2B30A7"/>
<path d="M144.879 19.3337C145.84 14.7143 146.785 10.3024 147.727 5.83249C148.929 5.83249 150.051 5.80838 151.164 5.83249C151.993 5.8566 152.469 6.36531 152.344 7.16573C152.129 8.54691 151.838 9.91521 151.474 11.2644C151.361 11.6886 150.923 12.0238 150.716 12.2938C150.803 12.8531 151.037 13.5161 150.971 14.1453C150.823 15.2282 150.613 16.3012 150.34 17.3592C150.036 18.7262 149.419 19.2879 148.025 19.3361C147.035 19.3674 146.038 19.3337 144.879 19.3337ZM148.299 12.9664C147.924 14.6951 147.578 16.2284 147.237 17.8414C148.549 17.3447 149.34 14.102 148.299 12.9664ZM149.813 7.21155L149.472 7.36344C149.152 8.85824 148.839 10.3538 148.532 11.8501C150.155 10.9051 149.789 9.17882 150.277 7.80222C150.32 7.67685 149.977 7.41165 149.813 7.21155Z" fill="#2B30A7"/>
<path d="M142.155 19.2866C140.87 19.4868 139.661 19.0021 138.447 19.5277C137.791 19.8098 137.26 19.2504 137.389 18.5031C137.675 16.7253 138.049 14.9631 138.512 13.2232C138.659 12.7048 139.31 12.1503 139.853 11.955C141.614 11.3209 142.304 10.0432 142.433 8.30002C142.478 7.95056 142.541 7.60369 142.621 7.26091C141.862 7.18617 141.862 7.18617 141.134 9.87437C140.841 9.89361 140.528 9.925 140.216 9.93465C139.903 9.94423 139.588 9.93465 139.125 9.93465C139.261 9.27642 139.365 8.74359 139.48 8.20842C139.961 5.82881 140.536 5.39002 142.991 5.47441C144.451 5.52745 144.9 5.98552 144.635 7.43208C144.171 9.95389 143.614 12.4588 143.088 14.9686C142.792 16.3742 142.479 17.7822 142.155 19.2866ZM139.992 18.1462C141.079 16.1982 141.064 14.2357 141.595 12.266C140.437 12.9676 139.387 16.6129 139.983 18.1438L139.992 18.1462Z" fill="#2B30A7"/>
<path d="M77.3212 19.2873H74.9804V13.911L74.7714 13.8989L73.613 19.2343H71.5847C72.5268 14.7524 73.464 10.3018 74.4012 5.84883H76.4344L75.4539 10.6707L75.5669 10.7068C75.9994 9.59303 76.4368 8.48157 76.867 7.36771C77.5014 5.72587 77.5014 5.72587 79.7003 5.87293C77.1554 10.0487 76.2205 14.4655 77.3212 19.2873Z" fill="#2B30A7"/>
<path d="M45.1633 33.3932L48.6864 28.8992L49.888 30.7653C50.3134 30.4108 50.7556 30.0782 51.1521 29.7021C52.4811 28.4436 54.8722 28.1156 56.4392 28.9956C57.4653 29.5694 57.4774 30.2373 56.6026 31.0474C54.8771 32.6458 53.1708 34.266 51.5198 35.9415C50.3326 37.147 49.8207 37.106 48.8234 35.768C48.4941 35.3219 47.8164 35.0447 47.2445 34.8928C46.0477 34.5746 45.8098 34.4757 45.1633 33.3932Z" fill="#2B30A7"/>
<path d="M16.5835 49.6654C16.4249 48.901 16.2446 48.2188 16.1629 47.5389C16.1389 47.3796 16.1466 47.2171 16.1854 47.0607C16.2241 46.9043 16.2932 46.7571 16.3888 46.6276C16.5595 46.4491 17.1338 46.3503 17.2348 46.4685C18.0663 47.4473 19.2631 47.0326 20.2532 47.3605C20.7602 47.5317 21.402 47.7921 21.6086 48.2019C21.748 48.4792 21.3347 49.1928 20.9886 49.5256C20.2868 50.2102 20.2027 50.7768 20.7987 51.6013C21.8249 53.0238 21.6711 55.941 20.6017 57.2887C19.8302 58.2531 18.8593 58.1663 18.1985 57.1248C17.0905 55.413 15.9226 53.7495 14.8171 52.0257C14.5288 51.5796 14.0769 50.8829 14.2331 50.5791C14.4566 50.1668 15.1656 50.0004 15.6751 49.7714C15.8842 49.6799 16.1365 49.7063 16.5835 49.6654Z" fill="#2B30A7"/>
<path d="M106.508 11.2782C106.655 11.3281 106.805 11.3668 106.958 11.3939C109.169 11.5361 109.349 11.7724 108.88 13.9278C108.614 15.1799 108.351 16.4328 108.089 17.6865C107.869 18.7401 107.184 19.2704 106.148 19.3115C105.076 19.3548 103.984 19.3115 102.725 19.3115C103.686 14.7764 104.622 10.3451 105.568 5.86084H107.592C107.231 7.70037 106.868 9.4869 106.508 11.2782ZM106.729 12.9658C106.027 13.137 105.193 15.924 105.287 17.7877C106.198 17.4598 107.056 14.586 106.729 12.9731V12.9658Z" fill="#2B30A7"/>
<path d="M42.4221 33.6586L43.8256 33.104C43.9482 34.9002 44.0803 36.6987 44.1813 38.4973C44.2173 39.153 44.2606 39.7461 45.2267 39.5701C45.2868 40.033 45.3372 40.4139 45.3565 40.5658L43.9626 42.2174L43.0638 42.3162L42.7778 41.306C40.2616 41.6001 37.7695 41.9039 35.275 42.1836C31.3048 42.6272 27.3443 43.054 23.3646 43.4903L24.5278 41.9641L42.7922 39.7943C42.6529 37.6462 42.5374 35.6523 42.4221 33.6586Z" fill="#FF000B"/>
<path d="M135.707 11.6789L135.131 12.3636C135.251 12.7758 135.568 13.2749 135.498 13.7113C135.257 15.2911 134.914 16.8534 134.469 18.3884C134.333 18.8441 133.689 19.2395 133.189 19.4638C132.74 19.6638 132.172 19.618 131.656 19.63C129.952 19.6663 129.416 19.0273 129.75 17.3469C129.93 16.4476 130.151 15.5604 130.368 14.613H132.357C132.155 15.7606 131.961 16.872 131.764 17.9882L132.11 18.1763C132.328 17.887 132.65 17.6266 132.745 17.3011C132.984 16.4982 133.064 15.6497 133.297 14.8468C133.61 13.7788 133.439 13.0989 132.072 13.1591C132.165 12.7228 132.24 12.3828 132.312 12.0887C132.384 12.0236 132.413 11.9754 132.442 11.9754C134.787 11.9247 133.999 9.77176 134.686 8.6001C134.712 9.26791 134.727 9.93813 134.77 10.6035C134.802 11.1991 134.948 11.7198 135.707 11.6789Z" fill="#2B30A7"/>
<path d="M111.347 5.84668H113.412C112.453 10.3671 111.508 14.8057 110.562 19.2877H108.509L111.347 5.84668Z" fill="#2B30A7"/>
<path d="M29.7445 51.7022L30.8884 51.5865V53.8167L31.2898 53.8456C31.3955 52.845 31.5012 51.842 31.6142 50.7981C29.8454 51.0875 29.795 51.0513 29.9079 49.407C29.968 48.5271 29.9584 47.6181 30.1939 46.7815C30.2802 46.5173 30.4199 46.274 30.6044 46.0665C30.7888 45.8591 31.014 45.6921 31.2657 45.576C32.8014 45.0288 33.2195 45.3904 33.1066 47.0395C32.9672 49.0823 32.7957 51.1212 32.5923 53.156C32.4698 54.3615 31.2345 55.1644 30.1506 54.7183C29.8791 54.605 29.6195 54.1277 29.5979 53.7998C29.5975 53.098 29.6464 52.3971 29.7445 51.7022ZM31.9627 46.4368L31.3883 46.3813L31.1119 49.8001L31.6238 49.8483L31.9627 46.4368Z" fill="#FF000B"/>
<path d="M36.2165 50.1479L34.3444 50.6639C34.5174 48.8798 34.5174 47.3223 34.8587 45.842C35.099 44.7909 36.2622 44.8776 37.1033 44.9886C37.3436 45.0223 37.6801 45.8516 37.6561 46.3025C37.5503 48.4265 37.3604 50.5457 37.1514 52.6625C37.1313 52.9427 37.0464 53.2143 36.9035 53.4558C36.7606 53.6975 36.5635 53.9022 36.3279 54.0541C36.0924 54.2059 35.8248 54.3006 35.5464 54.3307C35.2681 54.3608 34.9865 54.3253 34.7241 54.2272C34.5658 54.1309 34.4318 53.9992 34.3325 53.8423C34.2334 53.6855 34.1717 53.5078 34.1522 53.3231C34.1113 52.6529 34.2411 51.973 34.306 51.2377L35.4355 51.093V53.3279L35.8489 53.3713C35.969 52.3177 36.0867 51.2762 36.2165 50.1479ZM35.6373 49.3378L36.1949 49.4005L36.541 45.8734L35.9834 45.8107L35.6373 49.3378Z" fill="#FF000B"/>
<path d="M39.2299 15.319L40.6719 15.0947H41.2317L42.6737 15.7963C43.3129 16.6932 43.1832 17.6527 42.914 18.6268L41.4913 19.3838L40.8881 19.4899L39.4774 19.1379C38.6195 18.2386 38.1581 17.267 38.9031 16.0616C39.0297 15.8223 39.1389 15.574 39.2299 15.319Z" fill="#2B30A7"/>
<path d="M3.55423 25.2519L2.12912 24.8878C1.2904 23.8439 1.12938 22.7493 1.8888 21.5873L3.36438 21.0376H3.42926H3.49415L4.96492 21.1558C6.33956 22.7493 6.3756 23.3135 5.20524 24.9071L3.81378 25.3315L3.55423 25.2519Z" fill="#2B30A7"/>
<path d="M41.4913 19.3762L42.914 18.6216C43.143 22.0499 43.3706 25.479 43.5965 28.9089H42.205L41.4913 19.3762Z" fill="#FF000B"/>
<path d="M40.6827 45.5225L39.224 45.631C39.1326 44.7317 39.2599 44.6835 42.0958 44.6377L39.8176 53.6039L38.5727 53.7462C39.284 50.9785 39.9617 48.336 40.6827 45.5225Z" fill="#FF000B"/>
<path d="M135.706 11.6787C134.947 11.7198 134.8 11.1966 134.759 10.6107C134.716 9.94533 134.701 9.27502 134.675 8.60721L134.699 8.55659C134.858 8.12742 135.096 7.70313 135.137 7.26193C135.154 7.07629 134.786 6.81109 134.54 6.66884C134.485 6.6375 134.221 6.9678 134.06 7.12933H134.074C133.787 7.57857 133.538 8.05112 133.329 8.5421C133.104 9.20999 133.106 10.0586 131.847 9.56679C131.923 9.07976 132.024 8.59699 132.149 8.12018C132.39 7.33907 132.7 6.57964 132.978 5.81055L133.014 5.82501L136.764 6.0878L136.749 6.09986C136.61 6.84002 136.466 7.57776 136.331 8.31794C136.125 9.44381 135.925 10.5673 135.723 11.6932L135.706 11.6787Z" fill="#2B30A7"/>
<path d="M27.5706 55.0197L26.369 55.1427C26.5565 52.9029 26.7368 50.7259 26.9266 48.4499L25.9533 48.151L27.8758 45.9932L28.3253 46.1764C28.0801 49.084 27.8302 51.9891 27.5706 55.0197Z" fill="#FF000B"/>
<path d="M120.29 2.41064H121.829C121.745 4.74202 119.541 6.02704 117.568 4.90837C117.253 4.72755 117.063 4.14652 117.018 3.72701C116.972 3.30751 117.191 2.8856 117.304 2.41306H118.935V4.1224C120.185 4.14892 119.92 3.10741 120.29 2.41064Z" fill="#2B30A7"/>
<path d="M102.569 50.5393C102.865 49.816 103.252 49.1216 103.434 48.3694C103.766 47.0169 103.979 45.6378 104.237 44.2708C104.328 43.7694 104.405 43.2679 104.525 42.547C103.603 42.547 102.814 42.4771 102.048 42.5832C101.785 42.6194 101.468 43.0654 101.37 43.3691C100.988 44.6083 100.683 45.8741 100.349 47.1302C100.646 45.5318 100.942 43.9357 101.243 42.3252H104.965C104.484 44.4951 104.073 46.6094 103.545 48.69C103.376 49.3483 102.903 49.9269 102.569 50.5393Z" fill="#2B30A7"/>
<path d="M160.709 48.8169V51.0398H167.022L160.082 51.4448L160.709 48.8169Z" fill="#2B30A7"/>
<path d="M132.971 5.78564C132.693 6.55473 132.388 7.31418 132.142 8.09529C132.017 8.5721 131.916 9.05487 131.839 9.5419C133.099 10.024 133.097 9.1851 133.322 8.5172C133.53 8.02625 133.78 7.55366 134.067 7.10443C133.827 8.02299 133.587 8.94395 133.346 9.93243H131.311C131.897 8.51479 131.388 6.77413 132.971 5.78564Z" fill="#2B30A7"/>
<path d="M24.3686 51.0827C23.7174 51.5938 23.34 52.1218 22.9868 52.1073C22.6335 52.0928 22.0471 51.5576 22.0255 51.2152C22.0039 50.8729 22.5373 50.3015 22.893 50.2509C23.2487 50.2003 23.6692 50.6607 24.3686 51.0827Z" fill="#FF000B"/>
<path d="M44.5059 47.0659C45.013 47.7458 45.5322 48.1412 45.4961 48.4763C45.4552 48.8524 44.9169 49.1778 44.5949 49.525C44.2584 49.1996 43.7129 48.9102 43.6504 48.5389C43.588 48.1676 44.0661 47.7795 44.5059 47.0659Z" fill="#FF000B"/>
<path d="M135.714 11.6715C135.917 10.5456 136.116 9.4221 136.323 8.29615C136.457 7.55603 136.601 6.81828 136.741 6.07812C136.741 6.75559 136.857 7.45718 136.717 8.10571C136.46 9.31118 136.056 10.4853 135.714 11.6715Z" fill="#2B30A7"/>
<path d="M136.754 6.06559L133.005 5.8028C134.285 5.42428 135.569 5.02889 136.754 6.06559Z" fill="#2B30A7"/>
<path d="M98.2176 31.6772L97.453 35.3226L98.2176 31.6772Z" fill="#2B30A7"/>
<path d="M134.052 7.12852C134.223 6.96699 134.487 6.64634 134.533 6.66804C134.773 6.81028 135.145 7.07549 135.128 7.26113C135.088 7.70232 134.85 8.12663 134.691 8.55579C134.379 8.12905 135.628 6.9911 134.052 7.12852Z" fill="#2B30A7"/>
<path d="M172.043 50.5015C172.634 50.6892 173.236 50.8421 173.846 50.9595C174.427 51.0049 175.01 51.0106 175.592 50.9763C174.441 51.0608 173.293 51.15 172.142 51.2006C172.097 50.9694 172.064 50.736 172.043 50.5015Z" fill="#2B30A7"/>
<path d="M137.33 42.7696L133.804 42.5285C134.967 42.4633 136.13 42.3983 137.294 42.3501C137.301 42.3597 137.318 42.6273 137.33 42.7696Z" fill="#2B30A7"/>
<path d="M98.7062 29.2803L98.2136 31.6912C98.377 30.8843 98.5412 30.0807 98.7062 29.2803Z" fill="#2B30A7"/>
<path d="M99.1911 27.3594L98.7106 29.2881L99.1911 27.3594Z" fill="#2B30A7"/>
<path d="M100.355 47.2163C100.202 47.7467 100.046 48.2746 99.8919 48.8027C100.046 48.2746 100.214 47.7371 100.355 47.2163Z" fill="#2B30A7"/>
<path d="M167.006 51.0715L168.182 50.5122L167.006 51.0715Z" fill="#2B30A7"/>
<path d="M100.869 25.438L100.147 25.8967L100.869 25.438Z" fill="#2B30A7"/>
<path d="M99.9063 26.1514L99.4251 26.8756L99.9063 26.1514Z" fill="#2B30A7"/>
<path d="M169.624 48.3541L169.864 47.356L169.624 48.3541Z" fill="#2B30A7"/>
<path d="M97.4629 35.3921C97.3977 35.6838 97.3309 35.9755 97.2657 36.2697C97.3309 35.9755 97.3977 35.6814 97.4629 35.3921Z" fill="#2B30A7"/>
<path d="M169.906 47.0421C169.979 46.7479 170.048 46.4538 170.118 46.1621C170.036 46.4538 169.967 46.7479 169.906 47.0421Z" fill="#2B30A7"/>
<path d="M169.373 49.0689C169.46 48.8275 169.547 48.5861 169.636 48.3447L169.373 49.0689Z" fill="#2B30A7"/>
<path d="M107.424 25.6335L106.854 25.3921L107.424 25.6335Z" fill="#2B30A7"/>
<path d="M160.914 47.9551C160.855 48.1579 160.794 48.3606 160.731 48.561C160.794 48.3606 160.855 48.1579 160.914 47.9551Z" fill="#2B30A7"/>
<path d="M169.128 49.5404L169.369 49.0576L169.128 49.5404Z" fill="#2B30A7"/>
<path d="M99.3928 26.981L99.1932 27.3522L99.3928 26.981Z" fill="#2B30A7"/>
<path d="M100.143 25.896L99.9019 26.1381L100.143 25.896Z" fill="#2B30A7"/>
<path d="M168.914 49.8275L169.128 49.5352L168.914 49.8275Z" fill="#2B30A7"/>
<path d="M168.67 50.0656L168.938 49.8047L168.67 50.0656Z" fill="#2B30A7"/>
<path d="M168.43 50.3091L168.694 50.041L168.43 50.3091Z" fill="#2B30A7"/>
<path d="M168.17 50.5198L168.454 50.2783L168.17 50.5198Z" fill="#2B30A7"/>
<path d="M11.4936 16.895L9.62878 15.5304L10.405 14.1971L11.8878 14.7781C11.9767 14.1924 12.0849 13.4835 12.2507 12.3817L14.0194 13.78L15.3004 12.2949L17.8261 16.1524L18.9845 17.5146C19.2776 17.7846 19.643 17.9968 19.8521 18.3319C20.8975 19.9762 22.4211 19.7785 23.976 19.4602C24.8555 19.2818 25.7279 19.0624 26.7349 18.831C26.5786 21.8277 23.6419 21.1454 22.5893 22.4208L13.3345 18.1414L11.4936 16.895Z" fill="#2B30A7"/>
<path d="M20.2342 15.8107C21.0465 13.2311 21.9742 12.7055 24.6369 13.2599C24.8941 13.313 25.2137 13.1659 25.4805 13.0526C25.9155 12.867 26.3216 12.4788 26.7542 12.4572C27.1867 12.4354 27.6939 12.7392 28.1625 12.9007C27.8644 13.2961 27.5881 13.7133 27.2613 14.0845C26.9696 14.388 26.6623 14.6761 26.3408 14.9476C26.312 15.3984 26.2808 15.8518 26.2495 16.3026C25.8842 17.6093 25.2041 18.6605 23.7742 18.9015C22.2962 19.1427 21.2676 18.4025 20.5178 17.1874C20.4265 16.7293 20.328 16.2688 20.2342 15.8107Z" fill="#2B30A7"/>
<path d="M26.5288 39.8231L40.5468 37.9836C40.4651 36.4189 40.3881 34.9121 40.3064 33.4028H41.7652C41.8758 35.3316 41.9863 37.2795 42.1016 39.271C40.0373 39.541 38.1868 39.7966 36.3339 40.0232C32.649 40.4748 28.964 40.9177 25.2791 41.3516L26.5288 39.8231Z" fill="#FF000B"/>
<path d="M40.0228 29.1092C39.8434 25.7854 39.6616 22.46 39.4773 19.1328L40.888 19.4825C41.0898 22.6423 41.2909 25.8031 41.4912 28.9646L40.0228 29.1092Z" fill="#FF000B"/>
<path d="M37.7301 21.5399L25.5675 23.9508L33.2216 28.9535L21.0878 32.8977C20.9076 30.306 20.7321 27.8035 20.5422 25.1008L6.56038 26.651L6.91845 21.576C8.05998 21.576 9.00684 21.5423 9.95129 21.576C13.1067 21.7087 16.2621 21.8388 19.4128 22.0413C20.1216 22.1202 20.8095 22.3312 21.4411 22.6633C21.7839 22.852 22.1688 22.9509 22.5598 22.9509C22.9509 22.9509 23.3356 22.852 23.6785 22.6633C27.7832 20.6888 31.9288 18.8059 36.0622 16.8771C37.5042 16.2021 37.7229 16.3299 37.7445 17.9066C37.7445 19.0687 37.7301 20.2259 37.7301 21.5399Z" fill="#2B30A7"/>
<path d="M20.2356 15.8101C20.3293 16.2681 20.4254 16.7286 20.5192 17.1891L18.986 17.5146L17.8371 16.1356L20.2356 15.8101Z" fill="#FF000B"/>
</svg>
