<svg width="197" height="59" viewBox="0 0 197 59" fill="none" xmlns="http://www.w3.org/2000/svg">
<path d="M2.18035 22.0932C1.8991 18.3272 1.64408 14.5517 1.3104 10.7954C1.2532 10.1785 1.69175 9.23163 0.519109 8.99256C0.368954 8.96142 0.35227 8.2752 0.299835 8.02414C1.13164 6.77122 2.20656 7.18249 3.31246 7.16097C5.11909 7.12271 6.92094 6.68275 8.72279 6.41974C18.7188 4.92772 28.7132 3.43012 38.7061 1.92694C39.3877 1.82413 40.465 2.11823 40.3173 0.781627L41.4327 0.683594C42.4623 1.5898 42.031 2.62513 41.9952 3.72502C41.9189 5.94153 42.2097 8.16761 42.3312 10.3936C42.4408 12.3758 42.5291 14.3605 42.6268 16.3451L41.1967 15.6492C40.9274 11.5295 40.658 7.40964 40.3792 3.17508L2.74282 8.81319C4.03456 8.95648 5.33869 8.94522 6.62778 8.77974C14.0196 7.80097 21.4081 6.79912 28.7934 5.77416C29.1203 5.69148 29.4393 5.58027 29.7469 5.4418C30.1901 5.29834 30.6335 5.07836 31.0815 5.05923C31.5916 5.03532 32.1183 5.31029 32.6188 5.25769C34.3134 5.07835 35.9985 4.82252 37.6836 4.56667C37.9694 4.48014 38.2432 4.35804 38.4987 4.20323C38.9039 4.02629 39.3115 3.85414 39.9288 3.59591C40.1838 7.83525 40.4221 11.7494 40.658 15.666L39.2281 15.8883C38.9897 15.7234 38.7204 15.391 38.4939 15.4101C36.5475 15.6126 34.6209 15.8588 32.7142 16.1489C32.1993 16.2255 31.7275 16.6033 31.2174 16.6559C30.2283 16.7563 29.2272 16.7156 28.231 16.7491C27.6017 16.7682 26.9726 16.8184 26.3409 16.8543C26.372 16.4072 26.4029 15.9577 26.4315 15.5106L30.6382 14.8697C30.3999 12.2396 30.1616 9.75289 29.9232 7.10119L4.45649 10.5491C4.66147 13.2223 4.85215 15.7472 5.05235 18.3487L11.6997 17.4401L13.5254 18.6763L5.21204 19.8718V21.6771L3.75339 21.5599L3.66044 20.3812L3.50075 20.4074L3.63661 21.548L2.18035 22.0932ZM39.0588 13.7818C38.892 11.1253 38.7347 8.60278 38.5654 5.93674L31.3818 6.89317C31.6202 9.53768 31.8586 12.053 32.0968 14.6999L39.0588 13.7818ZM2.96926 11.1779L2.86915 11.1445L3.35775 18.3774H3.54604C3.35536 15.9752 3.1631 13.5754 2.96926 11.1779Z" fill="#FF000B"/>
<path d="M177.548 37.1168C178.66 34.2475 179.773 31.3719 180.885 28.4898C181.199 27.6793 181.509 26.8663 181.838 26.0175H185.49L180.096 51.4703H176.468C177.236 47.7977 177.994 44.1728 178.749 40.5504L178.623 40.5145C177.231 44.0883 175.838 47.6637 174.445 51.2408C173.867 51.2747 173.289 51.2691 172.712 51.224C172.108 51.1075 171.511 50.9559 170.924 50.7697C172.661 42.5301 174.401 34.2778 176.144 26.0127H179.784C179.323 28.2125 178.868 30.3358 178.442 32.4686C178.13 34.0228 177.858 35.577 177.567 37.1431C177.507 37.2674 177.446 37.3941 177.384 37.5185L177.479 37.5591C177.5 37.4085 177.524 37.2674 177.548 37.1168Z" fill="white"/>
<path d="M62.6703 26.0068H71.5842L66.1786 51.4812H62.5416C64.1789 43.7772 65.7973 36.1522 67.4371 28.4362H65.7878C64.1718 36.043 62.5432 43.719 60.9018 51.4645H57.2647C59.0737 42.9475 60.8684 34.4952 62.6703 26.0068Z" fill="white"/>
<path d="M168.806 47.3388C168.823 47.4095 168.834 47.4815 168.84 47.554C168.84 47.5851 168.797 47.6161 168.773 47.6496L168.535 48.6396V48.6204C168.446 48.8595 168.361 49.0986 168.275 49.3377V49.3257L168.037 49.804L167.825 50.0933L167.846 50.0718L167.581 50.33L167.605 50.3061L167.343 50.5715L167.367 50.5476L167.085 50.7867H167.097L165.932 51.3414V51.3103H159.685V49.1058L159.706 48.8524C159.769 48.6538 159.829 48.453 159.888 48.2522C160.448 45.4546 160.989 42.6523 161.57 39.8572C162.524 35.2735 163.499 30.6946 164.459 26.1397C166.747 26.1397 168.988 26.0632 171.226 26.1756C172.217 26.2258 172.894 27.352 172.682 28.5499C172.253 31.0095 171.748 33.4555 171.166 35.888C170.742 37.6478 169.329 38.2551 167.457 38.4273C167.982 38.5421 168.289 38.5947 168.587 38.6808C169.943 39.0658 170.401 39.6157 170.172 41.0216C169.872 42.8531 169.403 44.6561 169.004 46.4733C168.935 46.7554 168.866 47.047 168.806 47.3388ZM163.253 49.0699C164.359 49.254 164.89 48.7591 165.141 47.9055C165.308 47.3364 165.393 46.7434 165.513 46.16C165.886 44.3309 166.309 42.5112 166.614 40.6726C166.792 39.5917 166.342 39.2666 165.277 39.5344C164.6 42.6715 163.932 45.8133 163.241 49.0699H163.253ZM165.811 37.086C166.816 37.086 167.479 36.8468 167.67 35.9645C168.132 33.8796 168.567 31.7897 168.973 29.6952C169.162 28.722 168.704 28.3036 167.639 28.4351C167.024 31.29 166.423 34.1354 165.799 37.086H165.811Z" fill="white"/>
<path d="M67.989 51.8905C68.1463 51.1158 68.2893 50.4152 68.4514 49.6309C69.7194 49.4827 70.196 48.5574 70.5393 47.4215C72.5723 40.6955 74.6411 33.9791 76.7004 27.2626C76.8267 26.8513 76.9625 26.4425 77.1008 26.0049H82.8349C81.596 34.5386 80.3827 43.0053 79.1457 51.4984H75.4276C76.5264 45.1884 77.6132 38.9572 78.6977 32.7285L78.4474 32.6663C78.1471 33.6754 77.8325 34.6797 77.5488 35.6935C76.4096 39.7471 75.2767 43.7999 74.1501 47.852C73.1395 51.4529 71.8596 52.3065 67.989 51.8905Z" fill="white"/>
<path d="M91.48 51.4934H87.919C88.2072 49.1573 88.4882 46.8906 88.7771 44.5594H86.372C85.6999 46.8372 85.019 49.1486 84.3293 51.4934H80.821C83.5095 42.9668 86.1765 34.5169 88.8554 26.0215H94.3234C93.3719 34.5432 92.4307 42.9836 91.48 51.4934ZM90.8694 29.5602L90.6666 29.5196C89.4748 33.6561 88.2719 37.7902 87.0489 42.0177H89.1252C89.6991 37.8476 90.2787 33.7039 90.8694 29.5602Z" fill="white"/>
<path d="M195.186 25.7084C196.489 26.1341 196.854 26.7055 196.584 28.1162C196.204 30.1032 195.767 32.0806 195.338 34.1297H191.725C192.03 32.6139 192.331 31.1194 192.633 29.6298C192.664 29.4743 192.778 29.3141 192.754 29.1731C192.662 28.647 192.631 27.7385 192.39 27.6739C191.513 27.4348 191.315 28.2167 191.172 28.9005C189.901 35.0456 188.63 41.1913 187.358 47.3379C187.294 47.6512 187.12 47.974 187.173 48.2657C187.274 48.702 187.417 49.1278 187.597 49.5377C187.981 49.2077 188.586 48.9447 188.703 48.5383C189.12 47.1036 189.372 45.5973 189.685 44.122C189.785 43.6557 189.882 43.1894 189.995 42.6682H193.648C193.112 45.0378 192.695 47.3451 192.044 49.588C191.613 51.0871 190.436 51.9144 188.822 51.9623C187.909 51.9886 186.997 51.9933 186.083 51.9814C183.676 51.9527 183.042 51.2282 183.462 48.7917C183.817 46.678 184.279 44.5811 184.713 42.4793C185.655 37.9363 186.591 33.3766 187.573 28.8336C187.892 27.3463 188.465 26.0025 190.221 25.7061L195.186 25.7084Z" fill="white"/>
<path d="M136.498 43.1017C136.112 44.9691 135.75 46.8412 135.34 48.7015C134.849 50.9252 133.591 51.939 131.321 51.982C130.489 51.9988 129.653 52.0012 128.821 51.982C126.743 51.927 126.021 51.0997 126.395 49.0171C126.857 46.4372 127.423 43.874 127.953 41.3059C128.814 37.1455 129.672 32.9827 130.554 28.8246C131.057 26.4647 132.029 25.6517 134.396 25.5991C135.504 25.5728 136.62 25.5728 137.733 25.6446C139.258 25.7426 139.84 26.424 139.592 27.8969C139.27 29.8097 138.877 31.7226 138.443 33.6187C138.378 33.7627 138.279 33.8885 138.154 33.9856C138.03 34.0826 137.884 34.1479 137.728 34.1758C136.775 34.2428 135.821 34.2021 134.711 34.2021C135.049 32.5451 135.368 30.9742 135.692 29.4033C135.723 29.2478 135.833 29.0828 135.803 28.9442C135.697 28.4947 135.545 28.0523 135.411 27.6076C135.015 27.9591 134.408 28.2413 134.263 28.6764C133.9 29.7619 133.745 30.9168 133.512 32.0454C132.425 37.2962 131.34 42.5461 130.256 47.7953C130.243 47.8325 130.233 47.8709 130.228 47.9101C130.266 48.472 129.643 49.3017 130.595 49.5049C131.438 49.6843 131.664 48.9382 131.814 48.2185C132.186 46.4324 132.606 44.6583 133.006 42.8769L136.498 43.1017Z" fill="white"/>
<path d="M23.4643 43.8144L21.1142 47.0399L17.0768 45.8731L17.5534 44.6082L18.1755 43.1209C18.2303 42.9799 18.2852 42.8388 18.3423 42.6954C18.5545 42.2052 18.7666 41.7127 18.9811 41.2225C19.7271 39.6539 20.6662 38.1452 21.1739 36.5025C21.9556 33.9871 23.4214 32.5788 26.0813 32.476C26.4269 32.4616 26.7606 32.2704 27.1085 32.2058C30.2404 31.6367 33.0266 29.7645 36.3252 29.8147C37.5455 29.8291 38.7658 29.6522 39.9837 29.5637L41.4399 29.4202L42.155 29.37H43.5326C44.0784 29.3868 44.6456 29.3174 45.1652 29.4394C46.2449 29.6952 46.4523 30.6779 45.6705 31.4694C45.0127 32.1365 44.3954 32.8442 43.7638 33.5329L42.3719 34.0828L41.7236 33.8437H40.2769C37.3715 34.1688 34.4661 34.4916 31.5631 34.8359C31.3342 34.8899 31.1296 35.0186 30.9815 35.2018C29.5158 36.8636 28.0667 38.5373 26.6104 40.2087L25.3806 41.7365L24.6107 42.3008L23.4643 43.8144Z" fill="white"/>
<path d="M153.429 42.422L151.522 51.4841H147.89C149.692 42.9481 151.48 34.4734 153.255 26.06C155.438 26.06 157.499 25.986 159.552 26.084C161.094 26.1605 161.814 27.0906 161.568 28.6783C161.251 30.7154 160.782 32.7287 160.362 34.7515C160.073 36.1511 159.77 37.5467 159.452 38.9382C158.841 41.6306 157.835 42.4196 155.057 42.422H153.429ZM153.957 39.9712C154.999 40.1673 155.6 39.7847 155.788 38.9382C156.472 35.8849 157.111 32.8196 157.752 29.7566C157.955 28.8002 157.545 28.3219 156.42 28.4105C155.61 32.2146 154.796 36.0355 153.957 39.9712Z" fill="white"/>
<path d="M106.207 25.8566H106.283L106.848 26.0957C107.034 26.5476 107.434 27.033 107.372 27.4442C107.024 29.6751 106.562 31.8868 106.136 34.1392H102.469C102.834 32.3985 103.235 30.7128 103.516 29.0056C103.588 28.5656 103.392 27.7383 103.134 27.6523C102.42 27.4132 102.133 28.0611 102.002 28.6828C100.815 34.3544 99.6323 40.0268 98.4533 45.6999C98.2841 46.5153 98.0821 47.3283 97.9768 48.1532C97.9217 48.5788 98.051 49.0259 98.0981 49.4635L99.3665 49.0785C99.519 48.5549 99.6739 48.0312 99.8263 47.5052V47.4239C100.158 46.1782 100.46 44.9228 100.839 43.6938C100.937 43.383 101.252 42.9503 101.511 42.9144C102.272 42.8092 103.054 42.8785 103.968 42.8785C103.849 43.5958 103.774 44.0908 103.683 44.5881C103.428 45.9463 103.206 47.3139 102.887 48.6529C102.706 49.3941 102.322 50.0876 102.029 50.8049C101.476 51.154 100.946 51.747 100.36 51.7996C98.7894 51.9327 97.2105 51.9503 95.6363 51.8522C94.5403 51.7924 94.0039 50.9961 94.142 49.9393C94.3807 48.134 94.7024 46.336 95.064 44.5499C95.598 41.9078 96.1967 39.2775 96.7682 36.645C96.8329 36.3533 96.8999 36.064 96.9638 35.7747V35.7054L97.7221 32.09L98.2107 29.6991L98.6872 27.7861L98.8852 27.418L98.8684 27.351L98.9211 27.3056L99.3977 26.5883L99.6355 26.3491L100.351 25.8948L100.677 25.8398L106.207 25.8566Z" fill="white"/>
<path d="M148.575 37.084C148.365 37.9782 148.198 38.7003 148.02 39.4607H143.253C142.564 42.6503 141.88 45.8113 141.163 49.1349H146.054C145.875 50.0315 145.729 50.7584 145.576 51.5259H137.022C137.828 47.7313 138.617 44.0132 139.406 40.288C140.345 35.8573 141.313 31.4411 142.197 26.9937C142.352 26.2261 142.597 25.9273 143.41 25.944C145.863 25.9966 148.32 25.9632 150.921 25.9632C150.73 26.8407 150.565 27.5962 150.391 28.3829C148.982 28.3829 147.674 28.3327 146.373 28.4164C146.039 28.4379 145.517 28.83 145.445 29.1337C144.835 31.716 144.311 34.3199 143.724 37.084H148.575Z" fill="white"/>
<path d="M118.411 28.3909H115.671C114.035 36.0949 112.407 43.7702 110.77 51.4957H107.137C108.763 43.787 110.374 36.1571 112.009 28.4029H109.325C109.49 27.5469 109.628 26.8248 109.779 26.0381H118.897C118.737 26.8128 118.585 27.5421 118.411 28.3909Z" fill="white"/>
<path d="M18.176 43.1218L17.5563 44.6067L5.32701 46.0724V47.6625L3.96609 47.8203L3.75396 46.424C2.6147 46.0461 2.53366 45.5799 3.39645 44.7502C3.57167 44.514 3.65244 44.2206 3.62288 43.9277C3.33211 39.5257 3.01511 35.1238 2.71718 30.7219C2.59801 28.9405 2.5146 27.1568 2.41211 25.373L3.82547 25.7341C4.24336 31.4168 4.65966 37.1004 5.07438 42.7847L5.31272 42.768C4.90277 37.1187 4.49362 31.4678 4.08526 25.8154L5.46526 25.3946C5.92763 31.1188 6.38763 36.843 6.85955 42.6915L10.4132 42.2611L18.9935 41.2306L18.3571 42.7034L7.14079 44.2002C8.40159 44.1787 9.65053 44.0425 10.8971 43.9085L18.176 43.1218Z" fill="#FF000B"/>
<path d="M116.711 11.4942L118.32 7.82865C119.007 6.25773 119.007 6.25773 120.915 6.5853C119.993 10.9657 119.073 15.3485 118.141 19.7887H116.132C116.522 17.8902 116.909 16.0084 117.295 14.1291L117.095 14.0549C116.491 15.5183 115.889 16.9808 115.288 18.4425C114.64 20.0254 114.643 20.0254 112.69 19.7218C113.615 15.3437 114.54 10.9705 115.479 6.52792H117.498L116.518 11.4296L116.711 11.4942Z" fill="white"/>
<path d="M164.708 22.04H162.783L163.164 19.9334H160.866C160.695 20.634 160.53 21.3179 160.354 22.0448H158.318C158.898 20.7129 158.383 19.1468 159.725 18.1258C160.008 17.9106 160.018 17.3296 160.145 16.9135C161.202 13.4258 162.257 9.94676 163.307 6.47656H166.405C166.196 8.2842 165.991 10.0345 165.783 11.7871C165.545 13.719 165.056 15.6702 165.19 17.5759C165.258 18.8685 165.168 20.1646 164.92 21.435C164.867 21.6423 164.796 21.8446 164.708 22.04ZM161.848 18.2334L162.149 18.5418C162.425 18.3267 162.902 18.1449 162.947 17.8867C163.409 15.235 163.801 12.5714 164.212 9.91012L164.065 9.87907L161.848 18.2334Z" fill="white"/>
<path d="M91.7943 19.8132H89.7779C90.1834 17.8166 90.5737 15.899 90.9697 13.9814L90.6408 13.7423C90.4021 14.0364 90.0285 14.297 89.9495 14.627C89.5448 16.3246 89.2151 18.039 88.8487 19.7988H86.818C87.7543 15.3323 88.6747 10.9519 89.6063 6.51172H91.6226C91.2339 8.44608 90.8627 10.2991 90.4883 12.1499L90.7933 12.3889C91.0319 12.1331 91.3959 11.9107 91.4678 11.6142C91.8661 9.95723 92.183 8.28349 92.5622 6.52846H94.6089C93.6725 10.9663 92.7354 15.3801 91.7943 19.8132Z" fill="white"/>
<path d="M99.3254 6.52263C98.9319 8.45221 98.5527 10.3053 98.1743 12.1584L98.484 12.3974C98.7219 12.1368 99.0723 11.9192 99.1442 11.6108C99.5585 9.92031 99.9041 8.2155 100.281 6.48438H102.285C102.021 7.79228 101.778 9.05477 101.513 10.3101C100.957 12.953 100.396 15.5951 99.8307 18.2364C99.4515 20.0082 99.4515 20.0082 97.4663 19.7285C97.8646 17.8013 98.2621 15.8756 98.6581 13.9516L98.298 13.7125C98.0594 14.0162 97.7209 14.2912 97.6379 14.6331C97.2276 16.3283 96.8891 18.0427 96.5172 19.7835H94.5128L97.3042 6.52263H99.3254Z" fill="white"/>
<path d="M154.22 20.1214C152.146 20.2386 151.669 19.7317 152.075 17.7303C152.704 14.6531 153.398 11.5901 154.027 8.5128C154.503 6.18392 155.934 5.77504 158.302 6.27477C159.325 6.49236 159.227 7.45117 159.065 8.25218C158.541 10.8608 157.983 13.4671 157.438 16.0733C157.332 16.5778 157.216 17.0824 157.109 17.5893C156.651 19.7436 156.355 20.0018 154.22 20.1214ZM154.317 18.6868C155.111 18.0197 157.177 8.82841 156.827 7.73571C156.057 8.11111 153.867 17.4458 154.317 18.6796V18.6868Z" fill="white"/>
<path d="M66.0413 20.1262C64.0677 20.241 63.5768 19.6767 63.9867 17.7615C64.6446 14.6913 65.3858 11.6379 65.9435 8.54871C66.4202 5.89704 68.4151 5.80617 70.2885 6.30112C71.3443 6.58087 71.1132 7.63533 70.9606 8.45307C70.6626 10.0551 70.2861 11.6403 69.95 13.2352C69.6473 14.6698 69.3613 16.1188 69.0562 17.5582C68.6034 19.6815 68.2269 19.9995 66.0413 20.1262ZM69.0134 7.4847C68.5676 7.78119 68.1982 7.89117 68.1553 8.07529C67.3568 11.5471 66.5012 15.0093 65.9459 18.749C66.954 18.1393 68.4318 12.3696 69.0134 7.4847Z" fill="white"/>
<path d="M81.5736 20.125C79.5951 20.2374 79.1208 19.7018 79.5235 17.7865C80.1743 14.6782 80.8751 11.5913 81.4778 8.47816C81.9831 5.87908 83.9141 5.78821 85.8562 6.3262C86.9051 6.61074 86.6265 7.6915 86.4733 8.47816C86.0997 10.4628 85.6511 12.4353 85.232 14.4127C85.0125 15.46 84.7977 16.5073 84.5742 17.5546C84.1184 19.709 83.7752 19.9982 81.5736 20.125ZM84.5838 7.9306L84.314 7.64606C84.0977 7.78475 83.7281 7.88517 83.6874 8.06451C82.8891 11.5507 82.019 15.0248 81.5089 18.566L82.1308 18.7023C83.218 15.1708 83.6993 11.4957 84.591 7.92343L84.5838 7.9306Z" fill="white"/>
<path d="M143.985 19.8586C144.938 15.2773 145.875 10.9017 146.809 6.46864C148.001 6.46864 149.114 6.44472 150.218 6.46864C151.04 6.49254 151.512 6.99706 151.388 7.79089C151.175 9.16068 150.886 10.5177 150.525 11.8557C150.413 12.2765 149.979 12.6089 149.774 12.8767C149.86 13.4314 150.091 14.0889 150.027 14.713C149.88 15.7869 149.671 16.8511 149.4 17.9003C149.099 19.256 148.487 19.8131 147.104 19.861C146.123 19.892 145.134 19.8586 143.985 19.8586ZM147.377 13.5438C147.005 15.2582 146.661 16.7788 146.323 18.3785C147.624 17.8859 148.409 14.6699 147.377 13.5438ZM148.878 7.83632L148.54 7.98696C148.222 9.46944 147.911 10.9527 147.607 12.4367C149.217 11.4994 148.854 9.78738 149.338 8.42212C149.381 8.29779 149.04 8.03478 148.878 7.83632Z" fill="white"/>
<path d="M141.283 19.8113C140.008 20.0098 138.809 19.5292 137.606 20.0505C136.955 20.3302 136.428 19.7755 136.557 19.0343C136.84 17.2711 137.211 15.5235 137.67 13.7979C137.815 13.2838 138.461 12.7338 139 12.5402C140.747 11.9113 141.431 10.6441 141.559 8.91532C141.603 8.56874 141.665 8.22473 141.745 7.88478C140.993 7.81065 140.993 7.81065 140.27 10.4767C139.98 10.4958 139.67 10.5269 139.36 10.5365C139.05 10.546 138.737 10.5365 138.278 10.5365C138.413 9.88368 138.516 9.35524 138.631 8.82448C139.107 6.46449 139.677 6.02931 142.112 6.113C143.56 6.16561 144.005 6.6199 143.742 8.05454C143.283 10.5556 142.73 13.0399 142.208 15.529C141.914 16.9229 141.605 18.3193 141.283 19.8113ZM139.138 18.6804C140.216 16.7484 140.201 14.8021 140.728 12.8486C139.579 13.5444 138.538 17.1597 139.129 18.678L139.138 18.6804Z" fill="white"/>
<path d="M76.983 19.8125H74.6615V14.4805L74.4542 14.4685L73.3054 19.7599H71.2938C72.2281 15.3149 73.1577 10.901 74.0871 6.48476H76.1035L75.1311 11.2669L75.2432 11.3027C75.6721 10.1981 76.1059 9.0958 76.5326 7.99113C77.1617 6.36282 77.1617 6.36282 79.3426 6.50867C76.8186 10.65 75.8914 15.0304 76.983 19.8125Z" fill="white"/>
<path d="M45.0912 33.8026L48.5852 29.3456L49.7769 31.1964C50.1988 30.8448 50.6374 30.5149 51.0306 30.1419C52.3487 28.8937 54.7201 28.5685 56.2741 29.4412C57.2918 30.0103 57.3038 30.6727 56.4362 31.4761C54.7249 33.0614 53.0327 34.6682 51.3953 36.3299C50.2179 37.5254 49.7102 37.4848 48.7211 36.1578C48.3945 35.7154 47.7224 35.4405 47.1552 35.2898C45.9683 34.9742 45.7323 34.8761 45.0912 33.8026Z" fill="white"/>
<path d="M16.7465 49.9394C16.5893 49.1814 16.4105 48.5048 16.3295 47.8305C16.3057 47.6724 16.3133 47.5113 16.3517 47.3562C16.3901 47.2011 16.4587 47.0551 16.5535 46.9266C16.7228 46.7497 17.2924 46.6516 17.3925 46.7688C18.2172 47.7396 19.4041 47.3283 20.386 47.6535C20.8889 47.8233 21.5253 48.0815 21.7302 48.488C21.8685 48.763 21.4586 49.4707 21.1154 49.8007C20.4194 50.4797 20.3359 51.0417 20.927 51.8594C21.9448 53.2701 21.7923 56.1633 20.7316 57.4999C19.9665 58.4563 19.0037 58.3702 18.3482 57.3373C17.2494 55.6397 16.0911 53.9898 14.9948 52.2802C14.7088 51.8378 14.2606 51.1469 14.4156 50.8455C14.6373 50.4367 15.3404 50.2717 15.8456 50.0446C16.053 49.9537 16.3033 49.98 16.7465 49.9394Z" fill="white"/>
<path d="M105.93 11.8688C106.076 11.9183 106.224 11.9567 106.376 11.9836C108.569 12.1246 108.747 12.359 108.283 14.4966C108.019 15.7383 107.758 16.9809 107.498 18.2243C107.28 19.2692 106.6 19.7951 105.573 19.8358C104.51 19.8789 103.427 19.8358 102.179 19.8358C103.132 15.3382 104.059 10.9434 104.998 6.49609H107.005C106.647 8.32047 106.287 10.0923 105.93 11.8688ZM106.149 13.5425C105.453 13.7123 104.626 16.4763 104.72 18.3247C105.622 17.9995 106.473 15.1493 106.149 13.5497V13.5425Z" fill="white"/>
<path d="M42.3721 34.0646L43.764 33.5146C43.8856 35.296 44.0167 37.0797 44.1168 38.8635C44.1525 39.5138 44.1955 40.102 45.1536 39.9275C45.2132 40.3865 45.2632 40.7643 45.2823 40.915L43.8999 42.5529L43.0085 42.6509L42.7249 41.649C40.2295 41.9407 37.7578 42.242 35.2839 42.5194C31.3465 42.9594 27.4186 43.3826 23.4717 43.8153L24.6253 42.3018L42.7391 40.1498C42.601 38.0194 42.4865 36.042 42.3721 34.0646Z" fill="#FF000B"/>
<path d="M134.888 12.2663L134.317 12.9453C134.436 13.3542 134.75 13.8491 134.681 14.2819C134.442 15.8487 134.101 17.3982 133.661 18.9205C133.525 19.3724 132.886 19.7646 132.391 19.987C131.945 20.1854 131.382 20.14 130.87 20.1519C129.18 20.1878 128.649 19.5542 128.98 17.8876C129.159 16.9957 129.378 16.1158 129.593 15.1762H131.566C131.366 16.3143 131.173 17.4166 130.978 18.5237L131.32 18.7101C131.537 18.4232 131.857 18.165 131.95 17.8422C132.188 17.0459 132.267 16.2043 132.498 15.4081C132.808 14.3489 132.639 13.6746 131.283 13.7343C131.375 13.3016 131.45 12.9644 131.521 12.6727C131.592 12.6082 131.621 12.5603 131.65 12.5603C133.976 12.5101 133.194 10.3749 133.875 9.21289C133.902 9.8752 133.916 10.5399 133.959 11.1998C133.99 11.7904 134.136 12.3069 134.888 12.2663Z" fill="white"/>
<path d="M110.729 6.48242H112.777C111.826 10.9656 110.889 15.3676 109.95 19.8126H107.915L110.729 6.48242Z" fill="white"/>
<path d="M29.799 51.9598L30.9334 51.8451V54.0568L31.3315 54.0855C31.4363 53.0932 31.5412 52.0985 31.6532 51.0632C29.8991 51.3501 29.849 51.3143 29.961 49.6836C30.0206 48.8108 30.0111 47.9094 30.2446 47.0797C30.3302 46.8177 30.4688 46.5763 30.6517 46.3706C30.8346 46.1649 31.058 45.9992 31.3076 45.8841C32.8306 45.3414 33.2453 45.7001 33.1333 47.3355C32.9951 49.3615 32.825 51.3836 32.6233 53.4016C32.5017 54.5972 31.2767 55.3934 30.2018 54.951C29.9324 54.8387 29.675 54.3653 29.6536 54.0401C29.6531 53.3441 29.7017 52.649 29.799 51.9598ZM31.9988 46.7378L31.4292 46.6828L31.1551 50.0733L31.6628 50.1212L31.9988 46.7378Z" fill="#FF000B"/>
<path d="M36.2177 50.4188L34.361 50.9305C34.5326 49.1611 34.5326 47.6165 34.871 46.1484C35.1094 45.106 36.263 45.192 37.0971 45.302C37.3355 45.3354 37.6691 46.158 37.6454 46.6051C37.5405 48.7116 37.3522 50.8133 37.1449 52.9127C37.1249 53.1906 37.0408 53.4599 36.899 53.6995C36.7572 53.9391 36.5618 54.1422 36.3282 54.2928C36.0946 54.4434 35.8292 54.5373 35.5531 54.5671C35.277 54.597 34.9978 54.5618 34.7376 54.4645C34.5806 54.369 34.4477 54.2384 34.3492 54.0828C34.2509 53.9273 34.1897 53.7511 34.1703 53.5679C34.1298 52.9032 34.2586 52.2289 34.3229 51.4996L35.4431 51.3561V53.5726L35.8531 53.6157C35.9721 52.5708 36.0889 51.5378 36.2177 50.4188ZM35.6433 49.6154L36.1962 49.6776L36.5395 46.1795L35.9865 46.1173L35.6433 49.6154Z" fill="#FF000B"/>
<path d="M39.2063 15.8757L40.6363 15.6533H41.1916L42.6216 16.3492C43.2556 17.2386 43.1269 18.1902 42.86 19.1563L41.449 19.907L40.8508 20.0122L39.4517 19.6632C38.6009 18.7713 38.1432 17.8077 38.8821 16.6122C39.0077 16.3749 39.116 16.1287 39.2063 15.8757Z" fill="white"/>
<path d="M3.8252 25.7274L2.41184 25.3664C1.58003 24.331 1.42034 23.2455 2.1735 22.093L3.63691 21.5479H3.70126H3.76562L5.22426 21.665C6.58757 23.2455 6.62332 23.805 5.4626 25.3855L4.08261 25.8063L3.8252 25.7274Z" fill="white"/>
<path d="M41.4492 19.9007L42.8602 19.1523C43.0874 22.5524 43.313 25.9533 43.5371 29.3549H42.1571L41.4492 19.9007Z" fill="#FF000B"/>
<path d="M40.6471 45.8306L39.2004 45.9382C39.1098 45.0464 39.2361 44.9985 42.0486 44.9531L39.7892 53.8454L38.5545 53.9866C39.26 51.2416 39.9321 48.621 40.6471 45.8306Z" fill="#FF000B"/>
<path d="M134.888 12.2661C134.135 12.3068 133.99 11.7879 133.949 11.2069C133.906 10.547 133.892 9.88221 133.865 9.2199L133.889 9.16969C134.046 8.74407 134.283 8.32327 134.323 7.88571C134.34 7.7016 133.975 7.43858 133.732 7.29751C133.677 7.26642 133.415 7.594 133.255 7.7542H133.27C132.985 8.19974 132.737 8.6684 132.53 9.15533C132.307 9.81771 132.309 10.6593 131.06 10.1716C131.136 9.68856 131.237 9.20977 131.36 8.73688C131.599 7.96222 131.906 7.20904 132.182 6.44629L132.218 6.46063L135.937 6.72126L135.922 6.73322C135.784 7.46727 135.641 8.19894 135.508 8.93301C135.303 10.0496 135.105 11.1639 134.904 12.2805L134.888 12.2661Z" fill="white"/>
<path d="M27.6439 55.249L26.4522 55.371C26.6381 53.1497 26.8169 50.9906 27.0052 48.7334L26.0399 48.4369L27.9466 46.2969L28.3924 46.4786C28.1492 49.3622 27.9014 52.2434 27.6439 55.249Z" fill="#FF000B"/>
<path d="M119.599 3.07422H121.125C121.042 5.38638 118.856 6.6608 116.899 5.55136C116.587 5.37202 116.399 4.79578 116.354 4.37974C116.308 3.96369 116.525 3.54526 116.637 3.07661H118.255V4.77187C119.495 4.79817 119.232 3.76524 119.599 3.07422Z" fill="white"/>
<path d="M102.024 50.8065C102.317 50.0892 102.701 49.4006 102.882 48.6545C103.211 47.3131 103.422 45.9455 103.678 44.5898C103.768 44.0925 103.844 43.5951 103.963 42.8802C103.049 42.8802 102.266 42.8108 101.506 42.916C101.246 42.9519 100.932 43.3942 100.834 43.6955C100.455 44.9245 100.153 46.1798 99.8212 47.4255C100.117 45.8403 100.41 44.2574 100.708 42.6602H104.399C103.923 44.8122 103.516 46.9091 102.991 48.9725C102.824 49.6253 102.355 50.1992 102.024 50.8065Z" fill="white"/>
<path d="M159.684 49.0977V51.3023H165.945L159.062 51.7039L159.684 49.0977Z" fill="white"/>
<path d="M132.174 6.4209C131.898 7.18365 131.595 7.93684 131.352 8.7115C131.228 9.18438 131.128 9.66317 131.052 10.1462C132.301 10.6243 132.299 9.79233 132.522 9.12994C132.729 8.64304 132.976 8.17435 133.261 7.72881C133.023 8.6398 132.785 9.55317 132.546 10.5335H130.527C131.109 9.12755 130.604 7.40123 132.174 6.4209Z" fill="white"/>
<path d="M24.4674 51.3453C23.8216 51.8522 23.4474 52.3759 23.097 52.3615C22.7467 52.3471 22.1651 51.8164 22.1437 51.4768C22.1222 51.1373 22.6513 50.5706 23.004 50.5204C23.3568 50.4702 23.7739 50.9269 24.4674 51.3453Z" fill="#FF000B"/>
<path d="M44.4381 47.3613C44.941 48.0356 45.4559 48.4277 45.4201 48.7601C45.3796 49.133 44.8457 49.4558 44.5263 49.8001C44.1926 49.4774 43.6516 49.1904 43.5897 48.8222C43.5277 48.454 44.0019 48.0691 44.4381 47.3613Z" fill="#FF000B"/>
<path d="M134.895 12.2592C135.095 11.1425 135.293 10.0283 135.498 8.91165C135.632 8.17763 135.775 7.44597 135.913 6.71191C135.913 7.3838 136.028 8.0796 135.889 8.72279C135.634 9.91832 135.233 11.0827 134.895 12.2592Z" fill="white"/>
<path d="M135.927 6.69977L132.209 6.43915C133.479 6.06375 134.752 5.67162 135.927 6.69977Z" fill="white"/>
<path d="M97.7076 32.0996L96.9492 35.715L97.7076 32.0996Z" fill="white"/>
<path d="M133.247 7.75362C133.416 7.59342 133.678 7.27542 133.724 7.29694C133.962 7.438 134.331 7.70103 134.314 7.88513C134.274 8.32269 134.038 8.74351 133.881 9.16913C133.571 8.7459 134.81 7.61734 133.247 7.75362Z" fill="white"/>
<path d="M170.924 50.7686C171.511 50.9547 172.108 51.1064 172.712 51.2228C173.289 51.2679 173.867 51.2735 174.445 51.2395C173.303 51.3233 172.164 51.4117 171.022 51.4619C170.978 51.2327 170.945 51.0012 170.924 50.7686Z" fill="white"/>
<path d="M136.497 43.1016L133.001 42.8624C134.154 42.7979 135.308 42.7334 136.462 42.6855C136.469 42.695 136.485 42.9605 136.497 43.1016Z" fill="white"/>
<path d="M98.1924 29.7227L97.7039 32.1137C97.8659 31.3135 98.0287 30.5165 98.1924 29.7227Z" fill="white"/>
<path d="M98.6725 27.8164L98.1959 29.7292L98.6725 27.8164Z" fill="white"/>
<path d="M99.8287 47.5098C99.6762 48.0358 99.5214 48.5594 99.3689 49.083C99.5214 48.5594 99.6882 48.0262 99.8287 47.5098Z" fill="white"/>
<path d="M165.93 51.334L167.095 50.7793L165.93 51.334Z" fill="white"/>
<path d="M100.337 25.9111L99.6212 26.3661L100.337 25.9111Z" fill="white"/>
<path d="M99.3826 26.6201L98.9054 27.3384L99.3826 26.6201Z" fill="white"/>
<path d="M168.525 48.6383L168.763 47.6484L168.525 48.6383Z" fill="white"/>
<path d="M96.9594 35.7842C96.8947 36.0735 96.8285 36.3628 96.7638 36.6545C96.8285 36.3628 96.8947 36.0711 96.9594 35.7842Z" fill="white"/>
<path d="M168.806 47.3376C168.878 47.0458 168.946 46.7541 169.016 46.4648C168.934 46.7541 168.866 47.0458 168.806 47.3376Z" fill="white"/>
<path d="M168.277 49.3471C168.363 49.1077 168.449 48.8683 168.538 48.6289L168.277 49.3471Z" fill="white"/>
<path d="M106.839 26.1056L106.274 25.8662L106.839 26.1056Z" fill="white"/>
<path d="M159.888 48.2432C159.829 48.4443 159.769 48.6454 159.706 48.8441C159.769 48.6454 159.829 48.4443 159.888 48.2432Z" fill="white"/>
<path d="M168.035 49.8157L168.274 49.3369L168.035 49.8157Z" fill="white"/>
<path d="M98.8733 27.4424L98.6753 27.8105L98.8733 27.4424Z" fill="white"/>
<path d="M99.6177 26.3662L99.3784 26.6067L99.6177 26.3662Z" fill="white"/>
<path d="M167.821 50.0999L168.034 49.8096L167.821 50.0999Z" fill="white"/>
<path d="M167.579 50.3363L167.845 50.0771L167.579 50.3363Z" fill="white"/>
<path d="M167.341 50.5779L167.604 50.3115L167.341 50.5779Z" fill="white"/>
<path d="M167.084 50.7868L167.366 50.5469L167.084 50.7868Z" fill="white"/>
<path d="M11.6994 17.4391L9.84996 16.0857L10.6198 14.7635L12.0903 15.3397C12.1785 14.7587 12.2858 14.0557 12.4503 12.963L14.2044 14.3498L15.4748 12.877L17.9797 16.7026L19.1286 18.0536C19.4193 18.3214 19.7816 18.5318 19.989 18.8641C21.0258 20.4949 22.5368 20.2988 24.0789 19.9832C24.9512 19.8062 25.8164 19.5886 26.815 19.3591C26.6601 22.3312 23.7476 21.6545 22.7037 22.9194L13.5252 18.6753L11.6994 17.4391Z" fill="white"/>
<path d="M20.3674 16.3631C21.173 13.8047 22.093 13.2835 24.7338 13.8334C24.9889 13.886 25.3059 13.7402 25.5704 13.6278C26.0019 13.4437 26.4047 13.0587 26.8336 13.0372C27.2626 13.0157 27.7656 13.3169 28.2303 13.4771C27.9347 13.8692 27.6607 14.283 27.3365 14.6511C27.0472 14.9521 26.7426 15.2378 26.4237 15.5072C26.3951 15.9543 26.3641 16.4038 26.3331 16.8509C25.9708 18.1469 25.2964 19.1894 23.8782 19.4285C22.4124 19.6676 21.3923 18.9336 20.6487 17.7285C20.5581 17.2742 20.4604 16.8175 20.3674 16.3631Z" fill="white"/>
<path d="M26.6106 40.1789L40.513 38.3545C40.432 36.8027 40.3557 35.3083 40.2747 33.8115H41.7214C41.8311 35.7244 41.9407 37.6563 42.0551 39.6313C40.0077 39.8991 38.1725 40.1526 36.3349 40.3774C32.6804 40.8252 29.0258 41.2644 25.3712 41.6948L26.6106 40.1789Z" fill="#FF000B"/>
<path d="M39.9926 29.5524C39.8146 26.256 39.6343 22.9579 39.4516 19.6582L40.8506 20.005C41.0508 23.1388 41.2502 26.2735 41.4488 29.409L39.9926 29.5524Z" fill="#FF000B"/>
<path d="M37.7195 22.0451L25.6571 24.4362L33.2482 29.3976L21.2144 33.3094C21.0357 30.739 20.8616 28.2571 20.6733 25.5767L6.8067 27.1142L7.16183 22.081C8.29394 22.081 9.233 22.0475 10.1697 22.081C13.2991 22.2125 16.4285 22.3416 19.5531 22.5424C20.2562 22.6207 20.9383 22.8299 21.5647 23.1593C21.9048 23.3464 22.2864 23.4445 22.6742 23.4445C23.0621 23.4445 23.4436 23.3464 23.7837 23.1593C27.8546 21.2011 31.966 19.3337 36.0654 17.4208C37.4954 16.7513 37.7123 16.8781 37.7338 18.4418C37.7338 19.5943 37.7195 20.742 37.7195 22.0451Z" fill="white"/>
<path d="M20.3687 16.3633C20.4616 16.8176 20.5569 17.2742 20.6499 17.7309L19.1293 18.0537L17.99 16.6861L20.3687 16.3633Z" fill="#FF000B"/>
</svg>
