<svg width="123" height="36" viewBox="0 0 123 36" fill="none" xmlns="http://www.w3.org/2000/svg">
<path d="M1.17769 13.408C1.00156 11.0495 0.841846 8.68506 0.632878 6.33263C0.597054 5.9463 0.871701 5.3533 0.137323 5.20358C0.0432864 5.18408 0.032838 4.75433 0 4.5971C0.520928 3.81245 1.19411 4.07 1.88669 4.05653C3.01811 4.03257 4.14654 3.75704 5.27497 3.59232C11.5351 2.65793 17.7942 1.72005 24.0523 0.778662C24.4792 0.714274 25.1539 0.898456 25.0614 0.0613946L25.7599 0C26.4047 0.567525 26.1346 1.21591 26.1122 1.90473C26.0644 3.29284 26.2465 4.68695 26.3226 6.08102C26.3913 7.32241 26.4465 8.56529 26.5077 9.80817L25.6121 9.37239C25.4434 6.79235 25.2748 4.21226 25.1002 1.56032L1.52995 5.09125C2.33892 5.18098 3.15564 5.17393 3.96295 5.0703C8.59213 4.45734 13.2193 3.82992 17.8444 3.18802C18.0492 3.13625 18.2489 3.0666 18.4415 2.97988C18.7191 2.89003 18.9968 2.75227 19.2774 2.74029C19.5968 2.72532 19.9267 2.89752 20.2401 2.86458C21.3014 2.75227 22.3567 2.59205 23.412 2.43182C23.591 2.37763 23.7624 2.30116 23.9225 2.20421C24.1762 2.0934 24.4315 1.98559 24.8181 1.82387C24.9778 4.4788 25.127 6.93007 25.2748 9.38289L24.3792 9.52212C24.23 9.41883 24.0613 9.21067 23.9195 9.22267C22.7005 9.34945 21.4939 9.50367 20.2999 9.68534C19.9774 9.73328 19.6819 9.96989 19.3625 10.0028C18.743 10.0657 18.1161 10.0402 17.4922 10.0612C17.0981 10.0732 16.7041 10.1046 16.3085 10.1271C16.328 9.84706 16.3474 9.56556 16.3653 9.28556L18.9997 8.88423C18.8505 7.23707 18.7012 5.67975 18.552 4.01909L2.60315 6.17836C2.73152 7.85251 2.85094 9.43378 2.97631 11.063L7.13929 10.4939L8.28263 11.2682L3.07632 12.0168V13.1474L2.16283 13.074L2.10462 12.3358L2.00461 12.3523L2.08969 13.0665L1.17769 13.408ZM24.2733 8.2029C24.1688 6.53924 24.0702 4.95948 23.9643 3.28984L19.4655 3.88882C19.6147 5.54497 19.764 7.12024 19.9132 8.7779L24.2733 8.2029ZM1.67175 6.57219L1.60906 6.55124L1.91505 11.0809H2.03297C1.91356 9.57656 1.79315 8.07362 1.67175 6.57219Z" fill="#DF2931"/>
<path d="M111.004 22.8164C111.701 21.0194 112.397 19.2186 113.094 17.4136C113.291 16.906 113.485 16.3969 113.691 15.8653H115.978L112.6 31.8054H110.328C110.809 29.5054 111.283 27.2353 111.757 24.9667L111.678 24.9442C110.806 27.1824 109.933 29.4215 109.061 31.6617C108.699 31.6829 108.337 31.6794 107.976 31.6512C107.597 31.5782 107.223 31.4832 106.856 31.3667C107.944 26.2065 109.034 21.0384 110.125 15.8623H112.404C112.116 17.24 111.831 18.5697 111.564 19.9054C111.369 20.8787 111.198 21.852 111.016 22.8328C110.979 22.9107 110.94 22.99 110.901 23.0679L110.961 23.0934C110.974 22.999 110.989 22.9107 111.004 22.8164Z" fill="white"/>
<path d="M39.0596 15.8594H44.6421L41.2568 31.813H38.979C40.0044 26.9883 41.018 22.213 42.0449 17.3808H41.012C40 22.1446 38.98 26.9518 37.9521 31.8025H35.6743C36.8073 26.4686 37.9312 21.1753 39.0596 15.8594Z" fill="white"/>
<path d="M105.529 29.2177C105.54 29.2619 105.547 29.307 105.55 29.3524C105.55 29.3719 105.523 29.3913 105.508 29.4123L105.359 30.0323V30.0203C105.304 30.17 105.25 30.3198 105.196 30.4695V30.462L105.047 30.7615L104.914 30.9427L104.928 30.9292L104.762 31.0909L104.777 31.0759L104.613 31.2421L104.628 31.2272L104.452 31.3769H104.459L103.729 31.7243V31.7049H99.8169V30.3243L99.8304 30.1655C99.8694 30.0412 99.9069 29.9154 99.9439 29.7896C100.295 28.0377 100.634 26.2827 100.998 24.5322C101.595 21.6616 102.205 18.794 102.807 15.9414C104.24 15.9414 105.643 15.8936 107.045 15.9639C107.666 15.9954 108.089 16.7007 107.956 17.4509C107.688 18.9912 107.372 20.5231 107.007 22.0465C106.742 23.1486 105.856 23.5289 104.685 23.6367C105.013 23.7086 105.205 23.7416 105.392 23.7955C106.241 24.0366 106.528 24.381 106.385 25.2614C106.197 26.4084 105.903 27.5375 105.653 28.6756C105.61 28.8523 105.567 29.0349 105.529 29.2177ZM102.051 30.3018C102.744 30.4171 103.077 30.1071 103.234 29.5725C103.338 29.2162 103.392 28.8448 103.467 28.4794C103.701 27.3339 103.965 26.1943 104.156 25.0428C104.268 24.366 103.986 24.1623 103.319 24.3301C102.895 26.2947 102.477 28.2623 102.044 30.3018H102.051ZM103.653 22.7967C104.283 22.7967 104.698 22.6469 104.818 22.0944C105.107 20.7886 105.379 19.4799 105.634 18.1682C105.752 17.5587 105.465 17.2966 104.798 17.379C104.413 19.1669 104.037 20.9489 103.646 22.7967H103.653Z" fill="white"/>
<path d="M42.3911 32.069C42.4896 31.5839 42.5792 31.1452 42.6807 30.654C43.4748 30.5612 43.7733 29.9817 43.9882 29.2703C45.2615 25.0581 46.557 20.8518 47.8467 16.6456C47.9258 16.388 48.0109 16.132 48.0975 15.8579H51.6885C50.9127 21.2022 50.1528 26.5046 49.3781 31.8235H47.0496C47.7377 27.8718 48.4183 23.9695 49.0975 20.0687L48.9408 20.0297C48.7527 20.6617 48.5557 21.2906 48.3781 21.9255C47.6646 24.4641 46.9551 27.0022 46.2496 29.5399C45.6167 31.795 44.8151 32.3296 42.3911 32.069Z" fill="white"/>
<path d="M57.1026 31.8205H54.8725C55.0529 30.3575 55.2289 28.9379 55.4099 27.478H53.9036C53.4827 28.9045 53.0563 30.352 52.6244 31.8205H50.4272C52.1109 26.4806 53.7812 21.1888 55.4589 15.8684H58.8833C58.2874 21.2052 57.698 26.4911 57.1026 31.8205ZM56.7201 18.0846L56.5932 18.0591C55.8468 20.6497 55.0934 23.2387 54.3276 25.8862H55.6278C55.9873 23.2746 56.3502 20.6796 56.7201 18.0846Z" fill="white"/>
<path d="M122.05 15.6722C122.866 15.9387 123.095 16.2966 122.926 17.18C122.687 18.4244 122.414 19.6628 122.145 20.9461H119.882C120.074 19.9967 120.262 19.0608 120.451 18.1279C120.471 18.0306 120.542 17.9303 120.527 17.8419C120.469 17.5125 120.45 16.9435 120.299 16.903C119.75 16.7533 119.626 17.243 119.536 17.6712C118.74 21.5196 117.944 25.3685 117.148 29.2179C117.108 29.414 116.999 29.6162 117.032 29.7989C117.095 30.0721 117.184 30.3388 117.297 30.5955C117.538 30.3889 117.917 30.2241 117.99 29.9696C118.251 29.0711 118.409 28.1278 118.605 27.2038C118.667 26.9118 118.728 26.6198 118.799 26.2934H121.087C120.751 27.7774 120.49 29.2224 120.082 30.627C119.812 31.5658 119.075 32.084 118.065 32.1139C117.493 32.1304 116.921 32.1333 116.349 32.1259C114.842 32.1079 114.445 31.6542 114.708 30.1283C114.93 28.8046 115.22 27.4914 115.491 26.1751C116.081 23.33 116.667 20.4744 117.282 17.6293C117.482 16.6979 117.841 15.8563 118.94 15.6707L122.05 15.6722Z" fill="white"/>
<path d="M85.2948 26.5645C85.0534 27.734 84.8264 28.9065 84.5694 30.0715C84.262 31.4641 83.4741 32.099 82.0529 32.1259C81.532 32.1364 81.0081 32.1379 80.4872 32.1259C79.1859 32.0915 78.7335 31.5734 78.9679 30.2691C79.2574 28.6534 79.6113 27.0482 79.9438 25.4399C80.4827 22.8344 81.0201 20.2274 81.5725 17.6234C81.8874 16.1454 82.4963 15.6363 83.9785 15.6034C84.6724 15.5869 85.3713 15.5869 86.0682 15.6318C87.0235 15.6932 87.3879 16.12 87.2325 17.0424C87.031 18.2403 86.7846 19.4382 86.5131 20.6257C86.4721 20.7159 86.4101 20.7947 86.3321 20.8555C86.2541 20.9162 86.1627 20.9571 86.0652 20.9746C85.4683 21.0166 84.8709 20.9911 84.1755 20.9911C84.3875 19.9533 84.5874 18.9696 84.7904 17.9857C84.8099 17.8884 84.8784 17.7851 84.8594 17.6982C84.7934 17.4167 84.6979 17.1397 84.6144 16.8612C84.3665 17.0813 83.986 17.258 83.8951 17.5305C83.6681 18.2104 83.5711 18.9336 83.4246 19.6404C82.7443 22.9288 82.0644 26.2166 81.386 29.504C81.3775 29.5272 81.3715 29.5513 81.368 29.5758C81.392 29.9277 81.0021 30.4473 81.598 30.5746C82.1264 30.6869 82.2678 30.2197 82.3618 29.769C82.5948 28.6504 82.8577 27.5394 83.1082 26.4237L85.2948 26.5645Z" fill="white"/>
<path d="M14.5071 27.0121L13.0353 29.0321L10.5068 28.3013L10.8053 27.5092L11.1949 26.5778C11.2293 26.4895 11.2636 26.4011 11.2994 26.3113C11.4323 26.0043 11.5651 25.6959 11.6994 25.3889C12.1666 24.4065 12.7547 23.4617 13.0727 22.4329C13.5622 20.8577 14.4802 19.9757 16.146 19.9113C16.3625 19.9023 16.5714 19.7825 16.7893 19.7421C18.7507 19.3857 20.4956 18.2132 22.5614 18.2446C23.3256 18.2536 24.0898 18.1428 24.8525 18.0874L25.7645 17.9976L26.2124 17.9661H27.0751C27.4169 17.9766 27.7721 17.9332 28.0975 18.0096C28.7737 18.1698 28.9036 18.7852 28.414 19.2809C28.002 19.6987 27.6154 20.1419 27.2199 20.5732L26.3482 20.9175L25.9422 20.7678H25.0362C23.2166 20.9714 21.3971 21.1736 19.5791 21.3892C19.4357 21.423 19.3076 21.5036 19.2148 21.6183C18.2969 22.659 17.3894 23.7073 16.4774 24.754L15.7072 25.7108L15.2251 26.0642L14.5071 27.0121Z" fill="white"/>
<path d="M95.8991 26.1392L94.7048 31.8144H92.4302C93.5585 26.4686 94.6783 21.1613 95.7901 15.8923C97.1573 15.8923 98.4481 15.8459 99.7334 15.9073C100.699 15.9552 101.15 16.5377 100.996 17.532C100.798 18.8078 100.504 20.0686 100.241 21.3354C100.06 22.2119 99.8699 23.0859 99.6709 23.9574C99.2885 25.6435 98.6586 26.1377 96.9184 26.1392H95.8991ZM96.23 24.6043C96.8824 24.7271 97.2588 24.4875 97.3763 23.9574C97.8047 22.0452 98.2052 20.1255 98.6066 18.2073C98.7336 17.6083 98.4766 17.3088 97.7722 17.3643C97.2648 19.7467 96.7554 22.1395 96.23 24.6043Z" fill="white"/>
<path d="M66.3254 15.7649H66.3734L66.7268 15.9146C66.8433 16.1976 67.0942 16.5016 67.0552 16.7592C66.8373 18.1563 66.5478 19.5414 66.2809 20.952H63.9848C64.2132 19.8618 64.4642 18.8062 64.6402 17.737C64.6852 17.4614 64.5627 16.9433 64.4012 16.8894C63.9538 16.7397 63.7743 17.1455 63.6923 17.5348C62.949 21.0868 62.2081 24.6391 61.4697 28.192C61.3637 28.7027 61.2373 29.2118 61.1713 29.7284C61.1368 29.9949 61.2178 30.2749 61.2473 30.549L62.0416 30.3079C62.1371 29.9799 62.2341 29.652 62.3296 29.3226V29.2717C62.537 28.4915 62.7265 27.7053 62.964 26.9357C63.025 26.741 63.2224 26.47 63.3849 26.4475C63.8613 26.3816 64.3507 26.4251 64.9236 26.4251C64.8491 26.8743 64.8016 27.1843 64.7446 27.4957C64.5852 28.3463 64.4462 29.2028 64.2462 30.0413C64.1328 30.5055 63.8923 30.9398 63.7088 31.389C63.3624 31.6076 63.031 31.979 62.664 32.012C61.6802 32.0954 60.6914 32.1064 59.7055 32.0449C59.0192 32.0075 58.6832 31.5088 58.7697 30.847C58.9192 29.7164 59.1206 28.5903 59.3471 27.4718C59.6815 25.8171 60.0565 24.1699 60.4144 22.5212C60.4549 22.3386 60.4969 22.1574 60.5369 21.9762V21.9328L61.0118 19.6687L61.3178 18.1713L61.6162 16.9733L61.7402 16.7427L61.7297 16.7008L61.7627 16.6723L62.0611 16.2231L62.2101 16.0733L62.658 15.7888L62.8625 15.7544L66.3254 15.7649Z" fill="white"/>
<path d="M92.8588 22.7955C92.7273 23.3556 92.6228 23.8078 92.5108 24.284H89.5253C89.0939 26.2815 88.6655 28.2611 88.2166 30.3426H91.2795C91.1676 30.9041 91.0761 31.3593 90.9806 31.84H85.6235C86.1284 29.4636 86.6224 27.1351 87.1163 24.8021C87.7047 22.0273 88.3106 19.2616 88.8645 16.4764C88.9614 15.9957 89.1149 15.8085 89.6238 15.819C91.1601 15.852 92.6988 15.831 94.3275 15.831C94.208 16.3806 94.105 16.8537 93.9961 17.3464C93.1137 17.3464 92.2944 17.315 91.4795 17.3673C91.2705 17.3808 90.9436 17.6264 90.8986 17.8166C90.5167 19.4338 90.1882 21.0645 89.8208 22.7955H92.8588Z" fill="white"/>
<path d="M73.9689 17.3519H72.2527C71.2284 22.1766 70.2091 26.9834 69.1838 31.8215H66.9087C67.927 26.9939 68.9358 22.2155 69.9597 17.3594H68.2789C68.3819 16.8233 68.4684 16.3711 68.5629 15.8784H74.2734C74.1734 16.3636 74.0779 16.8203 73.9689 17.3519Z" fill="white"/>
<path d="M11.1951 26.5778L10.807 27.5077L3.14825 28.4256V29.4214L2.29595 29.5203L2.16311 28.6458C1.44963 28.4092 1.39888 28.1172 1.93921 27.5976C2.04894 27.4496 2.09953 27.2659 2.08101 27.0824C1.89891 24.3257 1.70039 21.5689 1.51381 18.8122C1.43918 17.6966 1.38694 16.5795 1.32275 15.4624L2.20789 15.6885C2.4696 19.2474 2.73031 22.8068 2.99003 26.3667L3.13929 26.3562C2.88256 22.8183 2.62632 19.2793 2.37058 15.7394L3.23482 15.4759C3.52439 19.0607 3.81247 22.6456 4.10801 26.3083L6.33351 26.0387L11.707 25.3933L11.3085 26.3157L4.28414 27.2531C5.07374 27.2397 5.8559 27.1543 6.63656 27.0704L11.1951 26.5778Z" fill="#DF2931"/>
<path d="M72.9048 6.76985L73.9126 4.47428C74.3425 3.49047 74.3425 3.49047 75.5378 3.69562C74.9604 6.43891 74.384 9.18368 73.8006 11.9644H72.5423C72.7868 10.7754 73.0288 9.59695 73.2707 8.42001L73.1452 8.37357C72.7673 9.29001 72.3899 10.2059 72.0139 11.1213C71.608 12.1127 71.6095 12.1127 70.3867 11.9225C70.9661 9.18068 71.545 6.44191 72.1334 3.65968H73.3977L72.7843 6.72941L72.9048 6.76985Z" fill="white"/>
<path d="M102.963 13.3749H101.757L101.996 12.0557H100.557C100.45 12.4944 100.347 12.9227 100.236 13.3779H98.9614C99.3244 12.5438 99.0019 11.5631 99.8423 10.9236C100.02 10.7889 100.026 10.425 100.105 10.1645C100.768 7.98019 101.428 5.80142 102.086 3.62817H104.026C103.895 4.76023 103.767 5.85636 103.637 6.95397C103.487 8.16386 103.181 9.38579 103.265 10.5792C103.308 11.3887 103.251 12.2004 103.096 12.9961C103.063 13.1259 103.018 13.2526 102.963 13.3749ZM101.172 10.991L101.361 11.1842C101.533 11.0494 101.832 10.9356 101.86 10.7739C102.15 9.11324 102.395 7.44513 102.653 5.77848L102.56 5.75903L101.172 10.991Z" fill="white"/>
<path d="M57.2996 11.9791H56.0368C56.2907 10.7287 56.5352 9.52781 56.7831 8.32687L56.5772 8.17714C56.4277 8.36131 56.1937 8.52453 56.1443 8.7312C55.8908 9.79436 55.6843 10.868 55.4549 11.9701H54.1831C54.7695 9.17292 55.3459 6.42965 55.9293 3.64893H57.1921C56.9486 4.86034 56.7162 6.02083 56.4817 7.17987L56.6727 7.32959C56.8221 7.16937 57.0501 7.0301 57.0951 6.84443C57.3445 5.80671 57.543 4.75852 57.7805 3.65941H59.0622C58.4758 6.43865 57.889 9.20286 57.2996 11.9791Z" fill="white"/>
<path d="M62.0159 3.65677C61.7695 4.86519 61.532 6.02571 61.295 7.18621L61.489 7.33593C61.638 7.17271 61.8574 7.03644 61.9024 6.84327C62.1619 5.78461 62.3784 4.71695 62.6143 3.63281H63.8696C63.7041 4.4519 63.5516 5.24255 63.3862 6.02871C63.0377 7.68387 62.6863 9.33853 62.3324 10.9926C62.0949 12.1022 62.0949 12.1022 60.8516 11.9271C61.1011 10.7201 61.35 9.5142 61.598 8.30926L61.3725 8.15954C61.2231 8.3497 61.0111 8.52192 60.9591 8.73603C60.7022 9.7977 60.4902 10.8714 60.2572 11.9615H59.002L60.7501 3.65677H62.0159Z" fill="white"/>
<path d="M96.3943 12.1727C95.0955 12.2461 94.7971 11.9286 95.051 10.6752C95.445 8.74807 95.8794 6.82986 96.2733 4.90266C96.5718 3.44417 97.4676 3.18811 98.9508 3.50107C99.5912 3.63734 99.5302 4.23781 99.4288 4.73944C99.1003 6.37314 98.7509 8.00536 98.4094 9.63752C98.3434 9.95346 98.2705 10.2695 98.2035 10.5869C97.9165 11.9361 97.7316 12.0978 96.3943 12.1727ZM96.4553 11.2742C96.9522 10.8565 98.2465 5.10032 98.027 4.416C97.5451 4.6511 96.1733 10.4971 96.4553 11.2697V11.2742Z" fill="white"/>
<path d="M41.1717 12.1757C39.9357 12.2476 39.6283 11.8942 39.885 10.6948C40.297 8.77206 40.7612 6.85985 41.1105 4.92518C41.409 3.26454 42.6583 3.20763 43.8316 3.5176C44.4928 3.6928 44.348 4.35316 44.2525 4.86528C44.0659 5.86857 43.8301 6.86134 43.6196 7.86012C43.43 8.75861 43.2509 9.66605 43.0598 10.5675C42.7762 11.8972 42.5404 12.0964 41.1717 12.1757ZM43.033 4.25883C42.7538 4.44451 42.5225 4.51338 42.4956 4.62869C41.9956 6.80295 41.4597 8.97122 41.1119 11.3132C41.7433 10.9314 42.6688 7.31806 43.033 4.25883Z" fill="white"/>
<path d="M50.8992 12.1757C49.6601 12.2461 49.3631 11.9106 49.6153 10.7112C50.0229 8.76455 50.4618 6.83139 50.8392 4.88173C51.1557 3.25403 52.365 3.19712 53.5812 3.53404C54.2381 3.71224 54.0637 4.38908 53.9677 4.88173C53.7337 6.12461 53.4528 7.35995 53.1903 8.59833C53.0528 9.25421 52.9184 9.91009 52.7784 10.566C52.4929 11.9151 52.278 12.0963 50.8992 12.1757ZM52.7844 4.53881L52.6154 4.36062C52.4799 4.44748 52.2485 4.51036 52.223 4.62267C51.7231 6.80594 51.1782 8.98166 50.8587 11.1994L51.2482 11.2847C51.929 9.07304 52.2305 6.7715 52.7889 4.53433L52.7844 4.53881Z" fill="white"/>
<path d="M89.9849 12.0077C90.5818 9.13863 91.1687 6.39836 91.7535 3.62214C92.4999 3.62214 93.1968 3.60716 93.8882 3.62214C94.4031 3.63711 94.6985 3.95307 94.621 4.45021C94.4876 5.30806 94.3071 6.15791 94.0806 6.99586C94.0107 7.25936 93.7387 7.46753 93.6102 7.63525C93.6642 7.98263 93.8092 8.39441 93.7687 8.78524C93.6767 9.45777 93.5457 10.1243 93.3763 10.7813C93.1878 11.6304 92.8044 11.9793 91.9385 12.0092C91.3236 12.0287 90.7042 12.0077 89.9849 12.0077ZM92.109 8.05302C91.876 9.12668 91.6611 10.079 91.4491 11.0808C92.264 10.7723 92.7554 8.7583 92.109 8.05302ZM93.0493 4.47866L92.8374 4.573C92.6384 5.50142 92.4439 6.43031 92.2535 7.35969C93.2613 6.7727 93.0343 5.70054 93.3373 4.84553C93.3643 4.76766 93.1508 4.60295 93.0493 4.47866Z" fill="white"/>
<path d="M88.2925 11.9794C87.4941 12.1038 86.7432 11.8028 85.9894 12.1292C85.5819 12.3044 85.252 11.957 85.3325 11.4928C85.51 10.3886 85.7424 9.29412 86.0299 8.21346C86.1208 7.89152 86.5253 7.54708 86.8627 7.4258C87.9565 7.03197 88.3849 6.23836 88.4654 5.1557C88.4929 4.93865 88.5319 4.72321 88.5819 4.51031C88.1105 4.46389 88.1105 4.46389 87.6581 6.13353C87.4761 6.14548 87.2821 6.16497 87.0882 6.17097C86.8937 6.17692 86.6982 6.17097 86.4103 6.17097C86.4953 5.76214 86.5598 5.4312 86.6313 5.09881C86.9297 3.62084 87.2866 3.34831 88.8119 3.40072C89.7182 3.43366 89.9972 3.71817 89.8327 4.61663C89.5447 6.18292 89.1988 7.73874 88.8719 9.29757C88.6879 10.1706 88.4939 11.0451 88.2925 11.9794ZM86.9492 11.2712C87.6241 10.0613 87.6151 8.84235 87.9445 7.61897C87.2251 8.05474 86.5733 10.3188 86.9432 11.2697L86.9492 11.2712Z" fill="white"/>
<path d="M48.0239 11.9793H46.57V8.64001L46.4402 8.63251L45.7207 11.9463H44.4609C45.046 9.16261 45.6282 6.39835 46.2103 3.63261H47.4731L46.8641 6.62746L46.9342 6.64991C47.2029 5.95813 47.4746 5.2678 47.7418 4.57599C48.1358 3.55625 48.1358 3.55625 49.5015 3.64758C47.9209 6.24113 47.3402 8.9844 48.0239 11.9793Z" fill="white"/>
<path d="M28.0513 20.7407L30.2395 17.9495L30.9858 19.1086C31.25 18.8884 31.5247 18.6818 31.7709 18.4482C32.5964 17.6665 34.0815 17.4629 35.0547 18.0094C35.6921 18.3658 35.6996 18.7806 35.1562 19.2838C34.0845 20.2766 33.0247 21.2829 31.9993 22.3235C31.262 23.0722 30.944 23.0468 30.3246 22.2157C30.1201 21.9387 29.6991 21.7665 29.3439 21.6721C28.6006 21.4745 28.4528 21.4131 28.0513 20.7407Z" fill="white"/>
<path d="M10.299 30.8469C10.2005 30.3722 10.0885 29.9485 10.0378 29.5262C10.0229 29.4272 10.0276 29.3263 10.0517 29.2291C10.0758 29.132 10.1187 29.0406 10.1781 28.9601C10.2841 28.8493 10.6408 28.7879 10.7035 28.8613C11.22 29.4693 11.9633 29.2117 12.5782 29.4154C12.8932 29.5217 13.2918 29.6834 13.4201 29.938C13.5067 30.1102 13.25 30.5534 13.035 30.7601C12.5991 31.1853 12.5469 31.5372 12.9171 32.0493C13.5545 32.9328 13.4589 34.7447 12.7947 35.5818C12.3155 36.1807 11.7125 36.1268 11.3021 35.4799C10.6139 34.4168 9.88851 33.3836 9.20193 32.3129C9.02282 32.0358 8.74217 31.6031 8.8392 31.4144C8.97802 31.1584 9.41835 31.055 9.73479 30.9128C9.86467 30.8559 10.0214 30.8724 10.299 30.8469Z" fill="white"/>
<path d="M66.1523 7.00483C66.2433 7.03583 66.3363 7.05987 66.4313 7.07672C67.8045 7.16505 67.9165 7.31183 67.6256 8.65054C67.4601 9.4282 67.2966 10.2064 67.1341 10.985C66.9972 11.6394 66.5717 11.9688 65.9284 11.9943C65.2625 12.0212 64.5846 11.9943 63.8027 11.9943C64.3996 9.1776 64.9805 6.42533 65.5684 3.64014H66.8252C66.6012 4.78267 66.3758 5.89228 66.1523 7.00483ZM66.2893 8.05305C65.8534 8.15938 65.3355 9.89037 65.394 11.0479C65.9594 10.8443 66.4923 9.05932 66.2893 8.05755V8.05305Z" fill="white"/>
<path d="M26.3478 20.9055L27.2195 20.561C27.2957 21.6766 27.3778 22.7937 27.4404 23.9108C27.4628 24.3181 27.4897 24.6865 28.0898 24.5771C28.1271 24.8646 28.1584 25.1012 28.1704 25.1956L27.3046 26.2213L26.7464 26.2827L26.5687 25.6553C25.006 25.838 23.4581 26.0267 21.9088 26.2003C19.4429 26.4759 16.983 26.7409 14.5112 27.0119L15.2337 26.0641L26.5777 24.7164C26.4912 23.3822 26.4195 22.1438 26.3478 20.9055Z" fill="#DF2931"/>
<path d="M84.2876 7.25352L83.9297 7.6788C84.0042 7.93485 84.2012 8.2448 84.1577 8.51585C84.0082 9.49707 83.7947 10.4675 83.5188 11.4208C83.4338 11.7038 83.0339 11.9494 82.7234 12.0887C82.4445 12.213 82.092 12.1845 81.7711 12.192C80.7128 12.2145 80.3798 11.8177 80.5873 10.7739C80.6993 10.2154 80.8367 9.66434 80.9712 9.0759H82.207C82.0815 9.78867 81.9605 10.479 81.8386 11.1723L82.053 11.2891C82.189 11.1094 82.389 10.9477 82.4475 10.7455C82.5964 10.2468 82.6459 9.71978 82.7904 9.22112C82.9849 8.55779 82.8789 8.13551 82.0295 8.17291C82.0875 7.90191 82.134 7.69074 82.1785 7.50808C82.2235 7.46763 82.2415 7.43769 82.2595 7.43769C83.7162 7.40624 83.2263 6.06903 83.6533 5.34131C83.6697 5.75609 83.6787 6.17236 83.7057 6.58564C83.7252 6.95552 83.8162 7.27897 84.2876 7.25352Z" fill="white"/>
<path d="M69.1582 3.6311H70.4405C69.8451 6.43876 69.2582 9.19552 68.6703 11.9793H67.3955L69.1582 3.6311Z" fill="white"/>
<path d="M18.4743 32.1123L19.1848 32.0404V33.4255L19.4341 33.4435C19.4998 32.822 19.5654 32.1991 19.6356 31.5507C18.537 31.7304 18.5057 31.708 18.5758 30.6867C18.6132 30.1402 18.6072 29.5756 18.7534 29.056C18.807 28.8919 18.8938 28.7408 19.0084 28.6119C19.1229 28.4831 19.2628 28.3794 19.4192 28.3073C20.373 27.9674 20.6327 28.192 20.5625 29.2162C20.4759 30.485 20.3695 31.7514 20.2431 33.0152C20.167 33.7639 19.3998 34.2626 18.7266 33.9855C18.5579 33.9152 18.3967 33.6187 18.3833 33.415C18.383 32.9792 18.4134 32.5438 18.4743 32.1123ZM19.852 28.8419L19.4953 28.8074L19.3236 30.9308L19.6416 30.9608L19.852 28.8419Z" fill="#DF2931"/>
<path d="M22.4941 31.1466L21.3313 31.4671C21.4387 30.3589 21.4387 29.3916 21.6507 28.4722C21.8 27.8193 22.5224 27.8732 23.0448 27.9421C23.1941 27.9631 23.403 28.4782 23.3881 28.7582C23.3225 30.0774 23.2045 31.3937 23.0747 32.7084C23.0622 32.8825 23.0095 33.0511 22.9207 33.2011C22.8319 33.3512 22.7096 33.4784 22.5632 33.5727C22.417 33.667 22.2507 33.7259 22.0778 33.7445C21.905 33.7632 21.7301 33.7412 21.5671 33.6803C21.4688 33.6204 21.3856 33.5386 21.3239 33.4412C21.2623 33.3438 21.224 33.2334 21.2119 33.1187C21.1865 32.7024 21.2671 32.2802 21.3074 31.8234L22.0089 31.7336V33.1217L22.2657 33.1487C22.3403 32.4943 22.4134 31.8474 22.4941 31.1466ZM22.1343 30.6434L22.4806 30.6824L22.6956 28.4917L22.3493 28.4527L22.1343 30.6434Z" fill="#DF2931"/>
<path d="M24.3657 9.51452L25.2613 9.37524H25.6091L26.5046 9.81102C26.9017 10.3681 26.8211 10.964 26.6539 11.569L25.7703 12.0392L25.3956 12.1051L24.5194 11.8865C23.9866 11.3279 23.7 10.7245 24.1627 9.97574C24.2413 9.82711 24.3092 9.67294 24.3657 9.51452Z" fill="white"/>
<path d="M2.20745 15.6841L1.32232 15.458C0.801388 14.8096 0.701381 14.1298 1.17306 13.408L2.08954 13.0667H2.12983H2.17014L3.08363 13.14C3.93742 14.1298 3.9598 14.4802 3.23289 15.47L2.36866 15.7336L2.20745 15.6841Z" fill="white"/>
<path d="M25.7705 12.0348L26.6542 11.5662C26.7964 13.6955 26.9378 15.8253 27.0781 17.9556H26.2138L25.7705 12.0348Z" fill="#DF2931"/>
<path d="M25.2685 28.2744L24.3625 28.3418C24.3058 27.7832 24.3849 27.7533 26.1462 27.7249L24.7312 33.2938L23.958 33.3822C24.3998 31.6631 24.8208 30.0219 25.2685 28.2744Z" fill="#DF2931"/>
<path d="M84.2877 7.25336C83.8163 7.27886 83.7253 6.95392 83.6998 6.59003C83.6728 6.17675 83.6638 5.76043 83.6473 5.34565L83.6623 5.31421C83.7608 5.04765 83.9088 4.78412 83.9343 4.51009C83.9448 4.39479 83.7163 4.23008 83.5638 4.14173C83.5293 4.12226 83.3654 4.32741 83.2654 4.42774H83.2744C83.0959 4.70676 82.9409 5.00026 82.8115 5.30521C82.6715 5.72003 82.673 6.24709 81.8906 5.94165C81.9381 5.63915 82.0011 5.3393 82.0786 5.04315C82.2281 4.55801 82.4205 4.08632 82.5935 3.60864L82.616 3.61763L84.9446 3.78085L84.9356 3.78834C84.8491 4.24804 84.7596 4.70626 84.6761 5.16598C84.5477 5.86526 84.4237 6.56309 84.2982 7.26236L84.2877 7.25336Z" fill="white"/>
<path d="M17.1251 34.1725L16.3788 34.2489C16.4952 32.8578 16.6072 31.5056 16.7251 30.092L16.1206 29.9064L17.3147 28.5662L17.5938 28.68C17.4416 30.4859 17.2863 32.2903 17.1251 34.1725Z" fill="#DF2931"/>
<path d="M74.7123 1.49731H75.6676C75.6156 2.94533 74.2469 3.74345 73.0211 3.04865C72.8256 2.93634 72.7076 2.57546 72.6796 2.31491C72.6512 2.05436 72.7871 1.79231 72.8571 1.49881H73.8704V2.56049C74.6468 2.57696 74.4823 1.93007 74.7123 1.49731Z" fill="white"/>
<path d="M63.7059 31.3906C63.8894 30.9413 64.1298 30.5101 64.2433 30.0429C64.4493 29.2028 64.5818 28.3463 64.7417 27.4973C64.7982 27.1858 64.8462 26.8743 64.9207 26.4266C64.3478 26.4266 63.8579 26.3832 63.382 26.449C63.219 26.4715 63.022 26.7485 62.961 26.9372C62.7236 27.7069 62.5341 28.493 62.3267 29.2732C62.5116 28.2804 62.6951 27.2891 62.8821 26.2888H65.1937C64.8952 27.6365 64.6402 28.9497 64.3118 30.242C64.2073 30.6508 63.9134 31.0102 63.7059 31.3906Z" fill="white"/>
<path d="M99.8167 30.3198V31.7005H103.738L99.4272 31.952L99.8167 30.3198Z" fill="white"/>
<path d="M82.5875 3.59375C82.4145 4.07143 82.225 4.54312 82.0726 5.02827C81.9951 5.32441 81.9321 5.62426 81.8846 5.92676C82.667 6.2262 82.6655 5.70515 82.8054 5.29032C82.9349 4.98539 83.0899 4.69187 83.2683 4.41285C83.1189 4.98336 82.9699 5.55537 82.8204 6.16931H81.5562C81.9206 5.28882 81.6041 4.2077 82.5875 3.59375Z" fill="white"/>
<path d="M15.1354 31.7275C14.7309 32.0449 14.4965 32.3729 14.2771 32.3639C14.0577 32.3549 13.6935 32.0225 13.6801 31.8098C13.6666 31.5972 13.998 31.2423 14.2189 31.2109C14.4398 31.1794 14.701 31.4654 15.1354 31.7275Z" fill="#DF2931"/>
<path d="M27.6422 29.2329C27.9572 29.6552 28.2796 29.9007 28.2572 30.1089C28.2318 30.3425 27.8975 30.5446 27.6975 30.7602C27.4885 30.5581 27.1496 30.3784 27.1109 30.1478C27.0721 29.9172 27.3691 29.6761 27.6422 29.2329Z" fill="#DF2931"/>
<path d="M84.292 7.24894C84.4175 6.54962 84.5414 5.85184 84.6699 5.15251C84.7534 4.69283 84.8429 4.23461 84.9294 3.7749C84.9294 4.19568 85.0014 4.63143 84.9144 5.03423C84.7549 5.78295 84.504 6.51217 84.292 7.24894Z" fill="white"/>
<path d="M84.9385 3.76765L82.6099 3.60444C83.4052 3.36934 84.2026 3.12376 84.9385 3.76765Z" fill="white"/>
<path d="M61.0027 19.6748L60.5278 21.939L61.0027 19.6748Z" fill="white"/>
<path d="M83.2593 4.42777C83.3653 4.32744 83.5292 4.12829 83.5577 4.14176C83.7072 4.23011 83.9382 4.39483 83.9277 4.51013C83.9027 4.78416 83.7547 5.04769 83.6562 5.31425C83.4622 5.04919 84.2381 4.34242 83.2593 4.42777Z" fill="white"/>
<path d="M106.856 31.3665C107.223 31.483 107.597 31.578 107.976 31.651C108.337 31.6791 108.699 31.6827 109.061 31.6614C108.346 31.7138 107.632 31.7692 106.917 31.8007C106.889 31.6571 106.869 31.5121 106.856 31.3665Z" fill="white"/>
<path d="M85.2951 26.5645L83.1055 26.4147C83.8278 26.3743 84.5502 26.3339 85.2731 26.304C85.2776 26.3099 85.2876 26.4761 85.2951 26.5645Z" fill="white"/>
<path d="M61.3069 18.1863L61.001 19.6837C61.1025 19.1826 61.2044 18.6834 61.3069 18.1863Z" fill="white"/>
<path d="M61.607 16.9929L61.3086 18.1909L61.607 16.9929Z" fill="white"/>
<path d="M62.3309 29.3257C62.2354 29.6551 62.1385 29.983 62.043 30.311C62.1385 29.983 62.2429 29.6491 62.3309 29.3257Z" fill="white"/>
<path d="M103.728 31.7197L104.457 31.3723L103.728 31.7197Z" fill="white"/>
<path d="M62.6491 15.7993L62.2012 16.0839L62.6491 15.7993Z" fill="white"/>
<path d="M62.0514 16.2427L61.7529 16.6919L62.0514 16.2427Z" fill="white"/>
<path d="M105.354 30.0325L105.502 29.4126L105.354 30.0325Z" fill="white"/>
<path d="M60.5336 21.9822C60.4931 22.1633 60.4516 22.3446 60.4111 22.5272C60.4516 22.3446 60.4931 22.1618 60.5336 21.9822Z" fill="white"/>
<path d="M105.529 29.2177C105.574 29.035 105.617 28.8523 105.661 28.6711C105.61 28.8523 105.567 29.035 105.529 29.2177Z" fill="white"/>
<path d="M105.198 30.4756C105.252 30.3258 105.305 30.1761 105.361 30.0264L105.198 30.4756Z" fill="white"/>
<path d="M66.7206 15.9207L66.3672 15.771L66.7206 15.9207Z" fill="white"/>
<path d="M99.944 29.7852C99.9071 29.9109 99.8696 30.0367 99.8306 30.161C99.8696 30.0367 99.9071 29.9109 99.944 29.7852Z" fill="white"/>
<path d="M105.045 30.7692L105.195 30.4697L105.045 30.7692Z" fill="white"/>
<path d="M61.7324 16.7578L61.6084 16.9884L61.7324 16.7578Z" fill="white"/>
<path d="M62.1983 16.0837L62.0493 16.2335L62.1983 16.0837Z" fill="white"/>
<path d="M104.913 30.9473L105.046 30.7661L104.913 30.9473Z" fill="white"/>
<path d="M104.761 31.0956L104.927 30.9338L104.761 31.0956Z" fill="white"/>
<path d="M104.611 31.2465L104.775 31.0803L104.611 31.2465Z" fill="white"/>
<path d="M104.451 31.377L104.627 31.2273L104.451 31.377Z" fill="white"/>
<path d="M7.1392 10.4938L5.98096 9.64626L6.46307 8.81816L7.38401 9.17905C7.43925 8.81521 7.50644 8.37494 7.60942 7.69061L8.70797 8.55911L9.50358 7.63672L11.0723 10.0326L11.7918 10.8786C11.9738 11.0464 12.2008 11.1781 12.3306 11.3863C12.9799 12.4075 13.9263 12.2847 14.892 12.0871C15.4383 11.9763 15.9801 11.84 16.6055 11.6963C16.5085 13.5575 14.6845 13.1337 14.0307 13.9259L8.2826 11.268L7.1392 10.4938Z" fill="white"/>
<path d="M12.5679 9.8199C13.0724 8.21768 13.6485 7.89124 15.3024 8.23563C15.4621 8.26857 15.6606 8.17724 15.8263 8.10685C16.0965 7.99157 16.3488 7.75046 16.6174 7.73702C16.8861 7.72352 17.2011 7.91218 17.4921 8.01252C17.307 8.25807 17.1354 8.51718 16.9324 8.74774C16.7512 8.93625 16.5604 9.11517 16.3607 9.28384C16.3428 9.56384 16.3234 9.84539 16.304 10.1254C16.0771 10.937 15.6547 11.5899 14.7665 11.7396C13.8485 11.8894 13.2097 11.4297 12.744 10.6749C12.6873 10.3904 12.6261 10.1044 12.5679 9.8199Z" fill="white"/>
<path d="M16.4773 24.7345L25.1839 23.5919C25.1332 22.6201 25.0854 21.6842 25.0346 20.7468H25.9407C26.0093 21.9448 26.078 23.1546 26.1496 24.3915C24.8675 24.5593 23.7181 24.718 22.5673 24.8587C20.2786 25.1392 17.9899 25.4143 15.7012 25.6838L16.4773 24.7345Z" fill="#DF2931"/>
<path d="M24.8583 18.0797C24.7469 16.0152 24.634 13.9498 24.5195 11.8833L25.3957 12.1005C25.5211 14.0631 25.6459 16.0262 25.7703 17.9898L24.8583 18.0797Z" fill="#DF2931"/>
<path d="M23.4347 13.378L15.8805 14.8755L20.6345 17.9826L13.0982 20.4324C12.9862 18.8227 12.8773 17.2683 12.7593 15.5897L4.0752 16.5526L4.2976 13.4005C5.0066 13.4005 5.59469 13.3795 6.18129 13.4005C8.14114 13.4829 10.1009 13.5637 12.0578 13.6895C12.4981 13.7385 12.9253 13.8695 13.3176 14.0758C13.5305 14.193 13.7695 14.2544 14.0124 14.2544C14.2553 14.2544 14.4943 14.193 14.7072 14.0758C17.2567 12.8494 19.8315 11.6799 22.3988 10.482C23.2944 10.0627 23.4302 10.1421 23.4436 11.1214C23.4436 11.8432 23.4347 12.5619 23.4347 13.378Z" fill="white"/>
<path d="M12.5678 9.82007C12.626 10.1046 12.6857 10.3906 12.7439 10.6766L11.7916 10.8787L11.0781 10.0222L12.5678 9.82007Z" fill="#DF2931"/>
</svg>
