<svg width="34" height="34" viewBox="0 0 34 34" fill="none" xmlns="http://www.w3.org/2000/svg">
<path d="M30.7513 28.748L27.8853 25.8821C30.011 23.4119 31.1753 20.2585 31.1649 16.9996C31.1649 11.204 27.6629 6.44121 22.6663 4.24963V7.08296C26.0479 9.04646 28.3316 12.8162 28.3316 16.9996C28.3254 19.5164 27.4932 21.9616 25.9629 23.9597L24.1425 22.1393C24.9953 20.5923 25.4997 18.6855 25.4997 16.9996C25.4997 14.4907 24.4018 11.4746 22.6663 9.9163V20.6631L19.833 17.8298V5.6663C19.8329 5.41004 19.7632 5.15863 19.6315 4.93882C19.4998 4.71901 19.3109 4.53905 19.085 4.4181C18.8591 4.29715 18.6046 4.23974 18.3486 4.25198C18.0927 4.26422 17.8448 4.34567 17.6315 4.48763L10.9463 8.94305L5.25126 3.24805L3.24809 5.25121L28.7481 30.7512L30.7513 28.748ZM16.9997 8.31263V14.9965L12.9891 10.9859L16.9997 8.31263ZM5.66634 24.083H9.48709L17.6301 29.5116C17.8437 29.6535 18.0917 29.735 18.3478 29.7474C18.6039 29.7599 18.8586 29.7029 19.085 29.5825C19.3111 29.4614 19.5001 29.2812 19.6319 29.0612C19.7636 28.8411 19.8331 28.5894 19.833 28.333V25.671L16.9997 22.8377V25.6866L10.7026 21.4876C10.6672 21.4635 10.6233 21.4593 10.5864 21.4409C10.4191 21.3498 10.235 21.2938 10.0453 21.2765C9.99993 21.2723 9.96167 21.2496 9.91634 21.2496H5.66634V12.7496H6.91159L4.39417 10.2322C3.92652 10.4663 3.53298 10.8256 3.25736 11.27C2.98174 11.7145 2.83484 12.2267 2.83301 12.7496V21.2496C2.83301 22.8122 4.10376 24.083 5.66634 24.083Z" fill="white"/>
</svg>
