<svg width="53" height="54" viewBox="0 0 53 54" fill="none" xmlns="http://www.w3.org/2000/svg">
<path d="M27.6486 17.2813C33.463 17.2813 35.943 19.7613 35.943 25.5757H41.4726C41.4726 16.6592 36.5651 11.7518 27.6486 11.7518V17.2813ZM37.1098 32.3301C36.5785 31.8472 35.8804 31.5897 35.1628 31.6119C34.4452 31.634 33.7644 31.9342 33.2639 32.4489L26.6478 39.2531C25.0553 38.949 21.8537 37.9509 18.558 34.6635C15.2624 31.3652 14.2643 28.1552 13.9685 26.5738L20.7671 19.9549C21.2825 19.4548 21.5831 18.7738 21.6053 18.056C21.6275 17.3383 21.3695 16.64 20.886 16.1091L10.6701 4.87573C10.1864 4.34311 9.51408 4.02004 8.79599 3.97512C8.0779 3.93021 7.37059 4.167 6.82427 4.63519L0.824687 9.78046C0.346685 10.2602 0.0613824 10.8987 0.0228978 11.5748C-0.018574 12.266 -0.809303 28.6391 11.8866 41.3405C22.9623 52.4135 36.836 53.2236 40.657 53.2236C41.2155 53.2236 41.5583 53.207 41.6495 53.2014C42.3256 53.1636 42.9637 52.877 43.4411 52.3969L48.5836 46.3945C49.0522 45.8486 49.2894 45.1415 49.245 44.4234C49.2006 43.7053 48.8781 43.0328 48.3458 42.5487L37.1098 32.3301Z" fill="white"/>
<path d="M47.3812 24.8803H52.9107C52.9107 10.697 42.2027 0 28 0V5.52957C39.2306 5.52957 47.3812 13.6663 47.3812 24.8803Z" fill="white"/>
</svg>
