<svg width="34" height="34" viewBox="0 0 34 34" fill="none" xmlns="http://www.w3.org/2000/svg">
<path d="M16.9997 2.83301C9.18817 2.83301 2.83301 9.18817 2.83301 16.9997C2.83301 24.8112 9.18817 31.1663 16.9997 31.1663C24.8112 31.1663 31.1663 24.8112 31.1663 16.9997C31.1663 9.18817 24.8112 2.83301 16.9997 2.83301ZM16.9997 28.333C10.7508 28.333 5.66634 23.2486 5.66634 16.9997C5.66634 10.7508 10.7508 5.66634 16.9997 5.66634C23.2486 5.66634 28.333 10.7508 28.333 16.9997C28.333 23.2486 23.2486 28.333 16.9997 28.333Z" fill="white"/>
<path d="M12.75 24.0837L24.0833 17.0003L12.75 9.91699V24.0837Z" fill="white"/>
</svg>
