<svg width="40" height="26" viewBox="0 0 40 26" fill="none" xmlns="http://www.w3.org/2000/svg">
<path d="M39.4771 3.86057H18.9909L14.3302 0.115294C14.1389 -0.0384314 13.8665 -0.0384314 13.6751 0.115294L9.93464 3.12113V2.11765C9.93464 1.82893 9.70048 1.59477 9.41177 1.59477H5.31591C5.02719 1.59477 4.79303 1.82893 4.79303 2.11765V7.2529L0.195383 10.9475C0.0224857 11.0865 -0.0440067 11.3195 0.0297188 11.5287C0.103444 11.738 0.301004 11.878 0.522878 11.878H2.96297V25.037C2.96297 25.3258 3.19704 25.5599 3.48584 25.5599H39.4771C39.7659 25.5599 40 25.3258 40 25.037V4.38344C40 4.09464 39.7659 3.86057 39.4771 3.86057ZM38.9543 4.90632V10.8322H27.6665L20.2922 4.90632H38.9543ZM5.83878 2.64052H8.88889V3.96148L5.83878 6.41255V2.64052ZM14.0027 1.19364L25.9971 10.8322H24.8844L14.3305 2.35111C14.1392 2.19739 13.8668 2.19739 13.6754 2.35111L3.12148 10.8322H2.00828L14.0027 1.19364ZM20.2179 24.5142H17.0806V16.4967H20.2179V24.5142ZM36.6885 17.7603H26.7538V16.4967H36.6885V17.7603ZM26.7538 18.8061H36.6885V19.9826H26.7538V18.8061ZM26.7538 21.0283H36.6885V22.2048H26.7538V21.0283ZM26.7538 23.2505H36.6885V24.5142H26.7538V23.2505ZM38.9543 24.5142H37.7342V15.9739C37.7342 15.6851 37.5 15.451 37.2113 15.451H26.2309C25.9422 15.451 25.7081 15.6851 25.7081 15.9739V24.5142H21.2636V15.9739C21.2636 15.6851 21.0295 15.451 20.7407 15.451H16.5577C16.2689 15.451 16.0349 15.6851 16.0349 15.9739V24.5142H4.00872V11.4607L14.003 3.42946L24.3729 11.7627C24.4657 11.8373 24.5814 11.878 24.7004 11.878H38.9543V24.5142Z" fill="#0085FF"/>
<path d="M12.2006 14.2305H7.05901C6.77029 14.2305 6.53613 14.4646 6.53613 14.7533V19.895C6.53613 20.1837 6.77029 20.4178 7.05901 20.4178H12.2006C12.4893 20.4178 12.7235 20.1837 12.7235 19.895V14.7533C12.7235 14.4645 12.4894 14.2305 12.2006 14.2305ZM7.58188 15.2762H9.4991V19.3721H7.58188V15.2762ZM11.6777 19.3721H10.5448V15.2762H11.6777V19.3721Z" fill="#0085FF"/>
</svg>
