<svg width="40" height="40" viewBox="0 0 40 40" fill="none" xmlns="http://www.w3.org/2000/svg">
<path d="M31.6667 3.33301H15C13.1617 3.33301 11.6667 4.82801 11.6667 6.66634V16.6663H8.33333C6.495 16.6663 5 18.1613 5 19.9997V34.9997C5 35.4417 5.17559 35.8656 5.48816 36.1782C5.80072 36.4907 6.22464 36.6663 6.66667 36.6663H33.3333C33.7754 36.6663 34.1993 36.4907 34.5118 36.1782C34.8244 35.8656 35 35.4417 35 34.9997V6.66634C35 4.82801 33.505 3.33301 31.6667 3.33301ZM8.33333 19.9997H18.3333V33.333H8.33333V19.9997ZM31.6667 33.333H21.6667V19.9997C21.6667 18.1613 20.1717 16.6663 18.3333 16.6663H15V6.66634H31.6667V33.333Z" fill="#0085FF"/>
<path d="M18.3332 10H21.6665V13.3333H18.3332V10ZM24.9998 10H28.3332V13.3333H24.9998V10ZM24.9998 16.7183H28.3332V20H24.9998V16.7183ZM24.9998 23.3333H28.3332V26.6667H24.9998V23.3333ZM11.6665 23.335H14.9998V26.6683H11.6665V23.335Z" fill="#0085FF"/>
</svg>
