<svg width="40" height="40" viewBox="0 0 40 40" fill="none" xmlns="http://www.w3.org/2000/svg">
<path d="M31.913 4.95134C31.616 4.45888 31.1971 4.05126 30.6968 3.76779C30.1964 3.48433 29.6314 3.33459 29.0563 3.33301H10.943C9.77968 3.33301 8.68468 3.95301 8.08634 4.95134L3.57134 12.4747C3.4151 12.7337 3.33268 13.0305 3.33301 13.333C3.33966 14.9417 3.93217 16.4929 4.99968 17.6963V31.6663C4.99968 33.5047 6.49468 34.9997 8.33301 34.9997H31.6663C33.5047 34.9997 34.9997 33.5047 34.9997 31.6663V17.6963C36.0672 16.4929 36.6597 14.9417 36.6663 13.333C36.6667 13.0305 36.5842 12.7337 36.428 12.4747L31.913 4.95134ZM33.3063 13.7513C33.2035 14.556 32.8111 15.2957 32.2025 15.8322C31.594 16.3687 30.8109 16.6652 29.9997 16.6663C28.1613 16.6663 26.6663 15.1713 26.6663 13.333C26.6663 13.2197 26.6247 13.1197 26.6013 13.013L26.6347 13.0063L25.3663 6.66634H29.0563L33.3063 13.7513ZM18.0313 6.66634H21.9663L23.3213 13.4413C23.263 15.228 21.7997 16.6663 19.9997 16.6663C18.1997 16.6663 16.7363 15.228 16.678 13.4413L18.0313 6.66634ZM10.943 6.66634H14.633L13.3663 13.0063L13.3997 13.013C13.3747 13.1197 13.333 13.2197 13.333 13.333C13.333 15.1713 11.838 16.6663 9.99968 16.6663C9.18843 16.6652 8.40535 16.3687 7.79681 15.8322C7.18826 15.2957 6.79588 14.556 6.69301 13.7513L10.943 6.66634ZM16.6663 31.6663V26.6663H23.333V31.6663H16.6663ZM26.6663 31.6663V26.6663C26.6663 24.828 25.1713 23.333 23.333 23.333H16.6663C14.828 23.333 13.333 24.828 13.333 26.6663V31.6663H8.33301V19.763C8.86801 19.9013 9.41968 19.9997 9.99968 19.9997C10.946 20.0002 11.8816 19.7987 12.7438 19.4086C13.6061 19.0186 14.3752 18.4491 14.9997 17.738C16.2213 19.1247 18.0113 19.9997 19.9997 19.9997C21.988 19.9997 23.778 19.1247 24.9997 17.738C25.6242 18.4491 26.3932 19.0186 27.2555 19.4086C28.1178 19.7987 29.0533 20.0002 29.9997 19.9997C30.5797 19.9997 31.1313 19.9013 31.6663 19.763V31.6663H26.6663Z" fill="#0085FF"/>
</svg>
