<svg width="29" height="29" viewBox="0 0 29 29" fill="none" xmlns="http://www.w3.org/2000/svg">
<path fill-rule="evenodd" clip-rule="evenodd" d="M21.749 7.02076C20.7661 6.03145 19.5967 5.24699 18.3085 4.71285C17.0203 4.17871 15.6389 3.90549 14.2444 3.90904C8.39677 3.90904 3.63641 8.66822 3.63405 14.5182C3.63405 16.3879 4.12214 18.2126 5.04986 19.8222L3.54541 25.3189L9.16968 23.8428C10.7254 24.6896 12.4684 25.1337 14.2397 25.1345H14.2444C20.0909 25.1345 24.8512 20.3753 24.8536 14.5253C24.8576 13.1313 24.5853 11.7504 24.0524 10.4623C23.5195 9.17419 22.7366 8.00448 21.749 7.02076ZM14.2444 23.344H14.2409C12.6614 23.3442 11.111 22.9192 9.75232 22.1138L9.43086 21.9223L6.09341 22.798L6.98332 19.5445L6.77414 19.2112C5.89107 17.8054 5.42359 16.1784 5.42568 14.5182C5.42805 9.65622 9.38359 5.70067 14.248 5.70067C15.4064 5.6981 16.5539 5.92531 17.624 6.36917C18.6941 6.81302 19.6655 7.4647 20.482 8.28649C21.303 9.10436 21.9536 10.0768 22.3965 11.1477C22.8393 12.2185 23.0655 13.3665 23.062 14.5253C23.0596 19.3873 19.104 23.344 14.2444 23.344ZM19.0816 16.7389C18.8157 16.6053 17.5133 15.9648 17.2699 15.8761C17.0276 15.7875 16.8515 15.7438 16.6742 16.0085C16.497 16.2732 15.9888 16.87 15.834 17.0473C15.6791 17.2246 15.5243 17.2459 15.2596 17.1135C14.9949 16.9811 14.1404 16.701 13.1276 15.7981C12.3393 15.0949 11.8075 14.2275 11.6527 13.9616C11.4979 13.6957 11.6361 13.5527 11.7697 13.4203C11.889 13.3021 12.0344 13.1107 12.1668 12.9559C12.2991 12.801 12.3429 12.6911 12.4315 12.5139C12.5201 12.3366 12.4764 12.1818 12.409 12.0494C12.3429 11.9159 11.8122 10.6111 11.5912 10.0805C11.3773 9.5664 11.1587 9.63495 10.9956 9.62785C10.8267 9.62095 10.6576 9.61779 10.4886 9.6184C10.3542 9.62182 10.2219 9.65299 10.1001 9.70993C9.97827 9.76687 9.86953 9.84837 9.78068 9.94931C9.53723 10.2152 8.85296 10.8558 8.85296 12.1605C8.85296 13.4652 9.80314 14.7262 9.9355 14.9035C10.0679 15.0808 11.8051 17.7576 14.4642 18.9063C15.0977 19.1793 15.5917 19.3424 15.9758 19.4653C16.6104 19.6674 17.1883 19.6379 17.6457 19.5705C18.155 19.4949 19.214 18.9299 19.435 18.3107C19.656 17.6914 19.656 17.1608 19.5898 17.0497C19.5236 16.9386 19.3451 16.8712 19.0816 16.7389Z" fill="black"/>
</svg>
